%TF.GenerationSoftware,KiCad,Pcbnew,7.0.11*%
%TF.CreationDate,2024-02-25T15:21:29+01:00*%
%TF.ProjectId,EuroTap,4575726f-5461-4702-9e6b-696361645f70,rev?*%
%TF.SameCoordinates,Original*%
%TF.FileFunction,Copper,L1,Top*%
%TF.FilePolarity,Positive*%
%FSLAX46Y46*%
G04 Gerber Fmt 4.6, Leading zero omitted, Abs format (unit mm)*
G04 Created by KiCad (PCBNEW 7.0.11) date 2024-02-25 15:21:29*
%MOMM*%
%LPD*%
G01*
G04 APERTURE LIST*
%TA.AperFunction,SMDPad,CuDef*%
%ADD10R,1.270000X3.600000*%
%TD*%
%TA.AperFunction,SMDPad,CuDef*%
%ADD11R,1.350000X4.200000*%
%TD*%
%TA.AperFunction,SMDPad,CuDef*%
%ADD12R,2.580000X1.500000*%
%TD*%
%TA.AperFunction,ViaPad*%
%ADD13C,0.500000*%
%TD*%
%TA.AperFunction,Conductor*%
%ADD14C,0.700000*%
%TD*%
G04 APERTURE END LIST*
D10*
%TO.P,J3,1,In*%
%TO.N,/Signal*%
X135015000Y-107800000D03*
D11*
%TO.P,J3,2,Ext*%
%TO.N,GND*%
X137840000Y-108000000D03*
X132190000Y-108000000D03*
%TD*%
D12*
%TO.P,J2,1,S*%
%TO.N,GND*%
X127790000Y-112700000D03*
%TO.P,J2,2,T*%
%TO.N,/Signal*%
X120210000Y-105500000D03*
%TO.P,J2,3,R1*%
%TO.N,unconnected-(J2-R1-Pad3)*%
X127790000Y-109300000D03*
%TO.P,J2,4,R2*%
%TO.N,unconnected-(J2-R2-Pad4)*%
X120210000Y-112700000D03*
%TO.P,J2,10*%
%TO.N,N/C*%
X120210000Y-103300000D03*
%TO.P,J2,11*%
X127790000Y-103800000D03*
%TD*%
%TO.P,J1,1,S*%
%TO.N,GND*%
X149790000Y-112700000D03*
%TO.P,J1,2,T*%
%TO.N,/Signal*%
X142210000Y-105500000D03*
%TO.P,J1,3,R1*%
%TO.N,unconnected-(J1-R1-Pad3)*%
X149790000Y-109300000D03*
%TO.P,J1,4,R2*%
%TO.N,unconnected-(J1-R2-Pad4)*%
X142210000Y-112700000D03*
%TO.P,J1,10*%
%TO.N,N/C*%
X142210000Y-103300000D03*
%TO.P,J1,11*%
X149790000Y-103800000D03*
%TD*%
D13*
%TO.N,GND*%
X147000000Y-108110000D03*
X123000000Y-114000000D03*
X123000000Y-102000000D03*
X140000000Y-108000000D03*
X123000000Y-108110000D03*
X135030000Y-116110000D03*
X140030000Y-116110000D03*
X130000000Y-108000000D03*
X147000000Y-102000000D03*
X130030000Y-116110000D03*
X147000000Y-114000000D03*
%TD*%
D14*
%TO.N,/Signal*%
X142210000Y-108790000D02*
X142210000Y-105500000D01*
X138205000Y-112795000D02*
X142210000Y-108790000D01*
X135015000Y-112795000D02*
X138205000Y-112795000D01*
X120210000Y-108210000D02*
X120210000Y-105500000D01*
X125505000Y-110495000D02*
X122495000Y-110495000D01*
X122495000Y-110495000D02*
X120210000Y-108210000D01*
X126070000Y-111060000D02*
X125505000Y-110495000D01*
X130810000Y-112810000D02*
X129060000Y-111060000D01*
X129060000Y-111060000D02*
X126070000Y-111060000D01*
X135000000Y-112810000D02*
X130810000Y-112810000D01*
X135015000Y-112795000D02*
X135000000Y-112810000D01*
X135015000Y-107800000D02*
X135015000Y-112795000D01*
%TD*%
%TA.AperFunction,Conductor*%
%TO.N,GND*%
G36*
X129005392Y-100000972D02*
G01*
X129017433Y-100002025D01*
X129044880Y-100004426D01*
X129045961Y-100004526D01*
X129171776Y-100016918D01*
X129191685Y-100020541D01*
X129256467Y-100037899D01*
X129260203Y-100038966D01*
X129351570Y-100066682D01*
X129367959Y-100072952D01*
X129433867Y-100103686D01*
X129439867Y-100106685D01*
X129482639Y-100129548D01*
X129519046Y-100149008D01*
X129531715Y-100156791D01*
X129592889Y-100199625D01*
X129600430Y-100205346D01*
X129668455Y-100261172D01*
X129677472Y-100269345D01*
X129730653Y-100322526D01*
X129738826Y-100331543D01*
X129794652Y-100399568D01*
X129800373Y-100407109D01*
X129843207Y-100468283D01*
X129850990Y-100480952D01*
X129893304Y-100560114D01*
X129896328Y-100566163D01*
X129927041Y-100632027D01*
X129933319Y-100648436D01*
X129961008Y-100739713D01*
X129962123Y-100743616D01*
X129979454Y-100808298D01*
X129983082Y-100828238D01*
X129995456Y-100953882D01*
X129995581Y-100955223D01*
X129999028Y-100994604D01*
X129999500Y-101005416D01*
X129999500Y-105087534D01*
X130029898Y-105259937D01*
X130089775Y-105424446D01*
X130177309Y-105576057D01*
X130289836Y-105710163D01*
X130423942Y-105822690D01*
X130423943Y-105822691D01*
X130423945Y-105822692D01*
X130575555Y-105910225D01*
X130740062Y-105970101D01*
X130912468Y-106000500D01*
X130912470Y-106000500D01*
X130912532Y-106000511D01*
X130975135Y-106031537D01*
X131011025Y-106091484D01*
X131015000Y-106122627D01*
X131015000Y-107750000D01*
X133365000Y-107750000D01*
X133365000Y-106124500D01*
X133384685Y-106057461D01*
X133437489Y-106011706D01*
X133489000Y-106000500D01*
X133755500Y-106000500D01*
X133822539Y-106020185D01*
X133868294Y-106072989D01*
X133879500Y-106124500D01*
X133879500Y-109647870D01*
X133879501Y-109647876D01*
X133885908Y-109707483D01*
X133936202Y-109842328D01*
X133936206Y-109842335D01*
X134005358Y-109934709D01*
X134022454Y-109957546D01*
X134114811Y-110026685D01*
X134156682Y-110082618D01*
X134164500Y-110125951D01*
X134164500Y-111835500D01*
X134144815Y-111902539D01*
X134092011Y-111948294D01*
X134040500Y-111959500D01*
X131213651Y-111959500D01*
X131146612Y-111939815D01*
X131125970Y-111923181D01*
X129689401Y-110486612D01*
X129682573Y-110479206D01*
X129648337Y-110438900D01*
X129585203Y-110390906D01*
X129582598Y-110388870D01*
X129579431Y-110386324D01*
X129539518Y-110328979D01*
X129536944Y-110259156D01*
X129540940Y-110246362D01*
X129574091Y-110157483D01*
X129580500Y-110097873D01*
X129580499Y-108502128D01*
X129574091Y-108442517D01*
X129572298Y-108437711D01*
X129523797Y-108307671D01*
X129523793Y-108307664D01*
X129480625Y-108250000D01*
X131015000Y-108250000D01*
X131015000Y-110147844D01*
X131021401Y-110207372D01*
X131021403Y-110207379D01*
X131071645Y-110342086D01*
X131071649Y-110342093D01*
X131157809Y-110457187D01*
X131157812Y-110457190D01*
X131272906Y-110543350D01*
X131272913Y-110543354D01*
X131407620Y-110593596D01*
X131407627Y-110593598D01*
X131467155Y-110599999D01*
X131467172Y-110600000D01*
X131940000Y-110600000D01*
X131940000Y-108250000D01*
X132440000Y-108250000D01*
X132440000Y-110600000D01*
X132912828Y-110600000D01*
X132912844Y-110599999D01*
X132972372Y-110593598D01*
X132972379Y-110593596D01*
X133107086Y-110543354D01*
X133107093Y-110543350D01*
X133222187Y-110457190D01*
X133222190Y-110457187D01*
X133308350Y-110342093D01*
X133308354Y-110342086D01*
X133358596Y-110207379D01*
X133358598Y-110207372D01*
X133364999Y-110147844D01*
X133365000Y-110147827D01*
X133365000Y-108250000D01*
X132440000Y-108250000D01*
X131940000Y-108250000D01*
X131015000Y-108250000D01*
X129480625Y-108250000D01*
X129437547Y-108192455D01*
X129437544Y-108192452D01*
X129322335Y-108106206D01*
X129322328Y-108106202D01*
X129187482Y-108055908D01*
X129187483Y-108055908D01*
X129127883Y-108049501D01*
X129127881Y-108049500D01*
X129127873Y-108049500D01*
X129127864Y-108049500D01*
X126452129Y-108049500D01*
X126452123Y-108049501D01*
X126392516Y-108055908D01*
X126257671Y-108106202D01*
X126257664Y-108106206D01*
X126142455Y-108192452D01*
X126142452Y-108192455D01*
X126056206Y-108307664D01*
X126056202Y-108307671D01*
X126005908Y-108442517D01*
X126000368Y-108494053D01*
X125999501Y-108502123D01*
X125999500Y-108502135D01*
X125999500Y-109590984D01*
X125979815Y-109658023D01*
X125927011Y-109703778D01*
X125857853Y-109713722D01*
X125820409Y-109702074D01*
X125800025Y-109691965D01*
X125798981Y-109691582D01*
X125779160Y-109684602D01*
X125778165Y-109684267D01*
X125700733Y-109667223D01*
X125697464Y-109666457D01*
X125620489Y-109647314D01*
X125619584Y-109647191D01*
X125598506Y-109644610D01*
X125597501Y-109644501D01*
X125597497Y-109644500D01*
X125597492Y-109644500D01*
X125518227Y-109644500D01*
X125514870Y-109644455D01*
X125435564Y-109642306D01*
X125434520Y-109642391D01*
X125412352Y-109644500D01*
X122898651Y-109644500D01*
X122831612Y-109624815D01*
X122810970Y-109608181D01*
X121096819Y-107894030D01*
X121063334Y-107832707D01*
X121060500Y-107806349D01*
X121060500Y-106874499D01*
X121080185Y-106807460D01*
X121132989Y-106761705D01*
X121184500Y-106750499D01*
X121547871Y-106750499D01*
X121547872Y-106750499D01*
X121607483Y-106744091D01*
X121742331Y-106693796D01*
X121857546Y-106607546D01*
X121943796Y-106492331D01*
X121994091Y-106357483D01*
X122000500Y-106297873D01*
X122000499Y-105350936D01*
X122995631Y-105350936D01*
X123026442Y-105552063D01*
X123026445Y-105552075D01*
X123097111Y-105742881D01*
X123097115Y-105742888D01*
X123204745Y-105915567D01*
X123204749Y-105915572D01*
X123285479Y-106000500D01*
X123344941Y-106063053D01*
X123473344Y-106152424D01*
X123511949Y-106179294D01*
X123511950Y-106179294D01*
X123511951Y-106179295D01*
X123698942Y-106259540D01*
X123898259Y-106300500D01*
X124050743Y-106300500D01*
X124202439Y-106285074D01*
X124396579Y-106224162D01*
X124396580Y-106224161D01*
X124396588Y-106224159D01*
X124574502Y-106125409D01*
X124728895Y-105992866D01*
X124853448Y-105831958D01*
X124943060Y-105649271D01*
X124994063Y-105452285D01*
X125004369Y-105249064D01*
X124973556Y-105047929D01*
X124921564Y-104907546D01*
X124902888Y-104857118D01*
X124902887Y-104857117D01*
X124902886Y-104857113D01*
X124795252Y-104684429D01*
X124712971Y-104597870D01*
X125999500Y-104597870D01*
X125999501Y-104597876D01*
X126005908Y-104657483D01*
X126056202Y-104792328D01*
X126056206Y-104792335D01*
X126142452Y-104907544D01*
X126142455Y-104907547D01*
X126257664Y-104993793D01*
X126257671Y-104993797D01*
X126392517Y-105044091D01*
X126392516Y-105044091D01*
X126399444Y-105044835D01*
X126452127Y-105050500D01*
X129127872Y-105050499D01*
X129187483Y-105044091D01*
X129322331Y-104993796D01*
X129437546Y-104907546D01*
X129523796Y-104792331D01*
X129574091Y-104657483D01*
X129580500Y-104597873D01*
X129580499Y-103002128D01*
X129574091Y-102942517D01*
X129523796Y-102807669D01*
X129523795Y-102807668D01*
X129523793Y-102807664D01*
X129437547Y-102692455D01*
X129437544Y-102692452D01*
X129322335Y-102606206D01*
X129322328Y-102606202D01*
X129187482Y-102555908D01*
X129187483Y-102555908D01*
X129127883Y-102549501D01*
X129127881Y-102549500D01*
X129127873Y-102549500D01*
X129127864Y-102549500D01*
X126452129Y-102549500D01*
X126452123Y-102549501D01*
X126392516Y-102555908D01*
X126257671Y-102606202D01*
X126257664Y-102606206D01*
X126142455Y-102692452D01*
X126142452Y-102692455D01*
X126056206Y-102807664D01*
X126056202Y-102807671D01*
X126005908Y-102942517D01*
X125999501Y-103002116D01*
X125999501Y-103002123D01*
X125999500Y-103002135D01*
X125999500Y-104597870D01*
X124712971Y-104597870D01*
X124655059Y-104536947D01*
X124543684Y-104459428D01*
X124488050Y-104420705D01*
X124301056Y-104340459D01*
X124101741Y-104299500D01*
X123949258Y-104299500D01*
X123949257Y-104299500D01*
X123797560Y-104314925D01*
X123603420Y-104375837D01*
X123603405Y-104375844D01*
X123425500Y-104474589D01*
X123425495Y-104474592D01*
X123271106Y-104607132D01*
X123271104Y-104607134D01*
X123146554Y-104768037D01*
X123146553Y-104768040D01*
X123056940Y-104950728D01*
X123005937Y-105147714D01*
X122995631Y-105350936D01*
X122000499Y-105350936D01*
X122000499Y-104702128D01*
X121994091Y-104642517D01*
X121980894Y-104607134D01*
X121943797Y-104507670D01*
X121919034Y-104474592D01*
X121918823Y-104474310D01*
X121894406Y-104408849D01*
X121909257Y-104340575D01*
X121918823Y-104325690D01*
X121943796Y-104292331D01*
X121994091Y-104157483D01*
X122000500Y-104097873D01*
X122000499Y-102502128D01*
X121994091Y-102442517D01*
X121943796Y-102307669D01*
X121943795Y-102307668D01*
X121943793Y-102307664D01*
X121857547Y-102192455D01*
X121857544Y-102192452D01*
X121742335Y-102106206D01*
X121742328Y-102106202D01*
X121607482Y-102055908D01*
X121607483Y-102055908D01*
X121547883Y-102049501D01*
X121547881Y-102049500D01*
X121547873Y-102049500D01*
X121547864Y-102049500D01*
X118872129Y-102049500D01*
X118872123Y-102049501D01*
X118812516Y-102055908D01*
X118677671Y-102106202D01*
X118677664Y-102106206D01*
X118562455Y-102192452D01*
X118562452Y-102192455D01*
X118476206Y-102307664D01*
X118476202Y-102307671D01*
X118425908Y-102442517D01*
X118419501Y-102502116D01*
X118419501Y-102502123D01*
X118419500Y-102502135D01*
X118419500Y-104097870D01*
X118419501Y-104097876D01*
X118425908Y-104157483D01*
X118476202Y-104292328D01*
X118476203Y-104292330D01*
X118501176Y-104325690D01*
X118525592Y-104391155D01*
X118510740Y-104459428D01*
X118501176Y-104474310D01*
X118476203Y-104507669D01*
X118476202Y-104507671D01*
X118425908Y-104642517D01*
X118421402Y-104684432D01*
X118419501Y-104702123D01*
X118419500Y-104702135D01*
X118419500Y-106297870D01*
X118419501Y-106297876D01*
X118425908Y-106357483D01*
X118476202Y-106492328D01*
X118476206Y-106492335D01*
X118562452Y-106607544D01*
X118562455Y-106607547D01*
X118677664Y-106693793D01*
X118677671Y-106693797D01*
X118722618Y-106710561D01*
X118812517Y-106744091D01*
X118872127Y-106750500D01*
X119235500Y-106750499D01*
X119302539Y-106770183D01*
X119348294Y-106822987D01*
X119359500Y-106874499D01*
X119359500Y-108170392D01*
X119359091Y-108180456D01*
X119354798Y-108233164D01*
X119365502Y-108311732D01*
X119365910Y-108315062D01*
X119374486Y-108393912D01*
X119374710Y-108394930D01*
X119379525Y-108415473D01*
X119379774Y-108416471D01*
X119407113Y-108490891D01*
X119408227Y-108494053D01*
X119423580Y-108539614D01*
X119433556Y-108569221D01*
X119433557Y-108569223D01*
X119433558Y-108569225D01*
X119434001Y-108570185D01*
X119443146Y-108589266D01*
X119443564Y-108590109D01*
X119486267Y-108656918D01*
X119488036Y-108659771D01*
X119528927Y-108727733D01*
X119529538Y-108728536D01*
X119542578Y-108745216D01*
X119543197Y-108745986D01*
X119543199Y-108745988D01*
X119543200Y-108745989D01*
X119599302Y-108802091D01*
X119601608Y-108804461D01*
X119656151Y-108862041D01*
X119657010Y-108862771D01*
X119674123Y-108876911D01*
X121865593Y-111068382D01*
X121872419Y-111075786D01*
X121906659Y-111116096D01*
X121906662Y-111116099D01*
X121969796Y-111164093D01*
X121972420Y-111166144D01*
X122034246Y-111215842D01*
X122034252Y-111215845D01*
X122035183Y-111216440D01*
X122053023Y-111227504D01*
X122053938Y-111228055D01*
X122125915Y-111261355D01*
X122128890Y-111262779D01*
X122199979Y-111298036D01*
X122199984Y-111298037D01*
X122199988Y-111298039D01*
X122201127Y-111298458D01*
X122220776Y-111305376D01*
X122221835Y-111305733D01*
X122299281Y-111322779D01*
X122302545Y-111323543D01*
X122379505Y-111342684D01*
X122379507Y-111342684D01*
X122380594Y-111342832D01*
X122401375Y-111345377D01*
X122402502Y-111345499D01*
X122402503Y-111345500D01*
X122481773Y-111345500D01*
X122485130Y-111345545D01*
X122564432Y-111347693D01*
X122564432Y-111347692D01*
X122564435Y-111347693D01*
X122565479Y-111347608D01*
X122587648Y-111345500D01*
X123241061Y-111345500D01*
X123308100Y-111365185D01*
X123353855Y-111417989D01*
X123363799Y-111487147D01*
X123334774Y-111550703D01*
X123321832Y-111563586D01*
X123271103Y-111607135D01*
X123146554Y-111768037D01*
X123146553Y-111768040D01*
X123056940Y-111950728D01*
X123005937Y-112147714D01*
X122995631Y-112350936D01*
X123026442Y-112552063D01*
X123026445Y-112552075D01*
X123097111Y-112742881D01*
X123097115Y-112742888D01*
X123204745Y-112915567D01*
X123204747Y-112915569D01*
X123204748Y-112915571D01*
X123344941Y-113063053D01*
X123473344Y-113152424D01*
X123511949Y-113179294D01*
X123511950Y-113179294D01*
X123511951Y-113179295D01*
X123698942Y-113259540D01*
X123898259Y-113300500D01*
X124050743Y-113300500D01*
X124202439Y-113285074D01*
X124396579Y-113224162D01*
X124396580Y-113224161D01*
X124396588Y-113224159D01*
X124574502Y-113125409D01*
X124728895Y-112992866D01*
X124762076Y-112950000D01*
X126000000Y-112950000D01*
X126000000Y-113497844D01*
X126006401Y-113557372D01*
X126006403Y-113557379D01*
X126056645Y-113692086D01*
X126056649Y-113692093D01*
X126142809Y-113807187D01*
X126142812Y-113807190D01*
X126257906Y-113893350D01*
X126257913Y-113893354D01*
X126392620Y-113943596D01*
X126392627Y-113943598D01*
X126452155Y-113949999D01*
X126452172Y-113950000D01*
X127540000Y-113950000D01*
X127540000Y-112950000D01*
X126000000Y-112950000D01*
X124762076Y-112950000D01*
X124853448Y-112831958D01*
X124943060Y-112649271D01*
X124994063Y-112452285D01*
X125004369Y-112249064D01*
X124973556Y-112047929D01*
X124906120Y-111865844D01*
X124902888Y-111857118D01*
X124902887Y-111857117D01*
X124902886Y-111857113D01*
X124795252Y-111684429D01*
X124672154Y-111554931D01*
X124640234Y-111492781D01*
X124646982Y-111423238D01*
X124690257Y-111368383D01*
X124756318Y-111345632D01*
X124762029Y-111345500D01*
X125101349Y-111345500D01*
X125168388Y-111365185D01*
X125189030Y-111381819D01*
X125440593Y-111633381D01*
X125447420Y-111640787D01*
X125481658Y-111681096D01*
X125481661Y-111681099D01*
X125544781Y-111729081D01*
X125547427Y-111731150D01*
X125593323Y-111768042D01*
X125609247Y-111780842D01*
X125609252Y-111780844D01*
X125610163Y-111781427D01*
X125627955Y-111792463D01*
X125628933Y-111793052D01*
X125628936Y-111793054D01*
X125628938Y-111793055D01*
X125628940Y-111793056D01*
X125700919Y-111826357D01*
X125703898Y-111827783D01*
X125774979Y-111863037D01*
X125774982Y-111863037D01*
X125774987Y-111863040D01*
X125776019Y-111863419D01*
X125795853Y-111870402D01*
X125796830Y-111870730D01*
X125796833Y-111870732D01*
X125796835Y-111870732D01*
X125796837Y-111870733D01*
X125874253Y-111887773D01*
X125877514Y-111888536D01*
X125905927Y-111895602D01*
X125966233Y-111930884D01*
X125997892Y-111993170D01*
X126000000Y-112015937D01*
X126000000Y-112450000D01*
X127916000Y-112450000D01*
X127983039Y-112469685D01*
X128028794Y-112522489D01*
X128040000Y-112574000D01*
X128040000Y-113950000D01*
X129127828Y-113950000D01*
X129127844Y-113949999D01*
X129187372Y-113943598D01*
X129187379Y-113943596D01*
X129322086Y-113893354D01*
X129322093Y-113893350D01*
X129437187Y-113807190D01*
X129437190Y-113807187D01*
X129523350Y-113692093D01*
X129523354Y-113692086D01*
X129573596Y-113557379D01*
X129573598Y-113557372D01*
X129579999Y-113497844D01*
X129580000Y-113497827D01*
X129580000Y-113082150D01*
X129599685Y-113015111D01*
X129652489Y-112969356D01*
X129721647Y-112959412D01*
X129785203Y-112988437D01*
X129791681Y-112994469D01*
X130180592Y-113383380D01*
X130187419Y-113390785D01*
X130221662Y-113431099D01*
X130284781Y-113479081D01*
X130287427Y-113481150D01*
X130349242Y-113530838D01*
X130349247Y-113530842D01*
X130349252Y-113530844D01*
X130350163Y-113531427D01*
X130367955Y-113542463D01*
X130368933Y-113543052D01*
X130368936Y-113543054D01*
X130368938Y-113543055D01*
X130368940Y-113543056D01*
X130440919Y-113576357D01*
X130443898Y-113577783D01*
X130514979Y-113613037D01*
X130514982Y-113613037D01*
X130514987Y-113613040D01*
X130516019Y-113613419D01*
X130535853Y-113620402D01*
X130536830Y-113620730D01*
X130536833Y-113620732D01*
X130536835Y-113620732D01*
X130536837Y-113620733D01*
X130614253Y-113637773D01*
X130617514Y-113638536D01*
X130694506Y-113657684D01*
X130694508Y-113657684D01*
X130694512Y-113657685D01*
X130695604Y-113657833D01*
X130716375Y-113660377D01*
X130717502Y-113660499D01*
X130717503Y-113660500D01*
X130796773Y-113660500D01*
X130800130Y-113660545D01*
X130879432Y-113662693D01*
X130879432Y-113662692D01*
X130879435Y-113662693D01*
X130880479Y-113662608D01*
X130902648Y-113660500D01*
X134960394Y-113660500D01*
X134970456Y-113660908D01*
X135023167Y-113665201D01*
X135101748Y-113654493D01*
X135105074Y-113654086D01*
X135177353Y-113646226D01*
X135190758Y-113645500D01*
X138165394Y-113645500D01*
X138175456Y-113645908D01*
X138228167Y-113650201D01*
X138306748Y-113639493D01*
X138310074Y-113639086D01*
X138388910Y-113630514D01*
X138388916Y-113630511D01*
X138390036Y-113630266D01*
X138410307Y-113625515D01*
X138411463Y-113625227D01*
X138411468Y-113625227D01*
X138444648Y-113613037D01*
X138485922Y-113597874D01*
X138489076Y-113596762D01*
X138564221Y-113571444D01*
X138564230Y-113571438D01*
X138565351Y-113570920D01*
X138584123Y-113561923D01*
X138585104Y-113561436D01*
X138585116Y-113561432D01*
X138651972Y-113518697D01*
X138654711Y-113516997D01*
X138722736Y-113476070D01*
X138722743Y-113476062D01*
X138723669Y-113475360D01*
X138740076Y-113462533D01*
X138740981Y-113461804D01*
X138740989Y-113461800D01*
X138797091Y-113405696D01*
X138799422Y-113403427D01*
X138857041Y-113348849D01*
X138857044Y-113348843D01*
X138857757Y-113348005D01*
X138871904Y-113330883D01*
X140207821Y-111994966D01*
X140269142Y-111961483D01*
X140338834Y-111966467D01*
X140394767Y-112008339D01*
X140419184Y-112073803D01*
X140419500Y-112082649D01*
X140419500Y-113497870D01*
X140419501Y-113497876D01*
X140425908Y-113557483D01*
X140476202Y-113692328D01*
X140476206Y-113692335D01*
X140562452Y-113807544D01*
X140562455Y-113807547D01*
X140677664Y-113893793D01*
X140677671Y-113893797D01*
X140812517Y-113944091D01*
X140812516Y-113944091D01*
X140819444Y-113944835D01*
X140872127Y-113950500D01*
X143547872Y-113950499D01*
X143607483Y-113944091D01*
X143742331Y-113893796D01*
X143857546Y-113807546D01*
X143943796Y-113692331D01*
X143994091Y-113557483D01*
X144000500Y-113497873D01*
X144000499Y-112350936D01*
X144995631Y-112350936D01*
X145026442Y-112552063D01*
X145026445Y-112552075D01*
X145097111Y-112742881D01*
X145097115Y-112742888D01*
X145204745Y-112915567D01*
X145204747Y-112915569D01*
X145204748Y-112915571D01*
X145344941Y-113063053D01*
X145473344Y-113152424D01*
X145511949Y-113179294D01*
X145511950Y-113179294D01*
X145511951Y-113179295D01*
X145698942Y-113259540D01*
X145898259Y-113300500D01*
X146050743Y-113300500D01*
X146202439Y-113285074D01*
X146396579Y-113224162D01*
X146396580Y-113224161D01*
X146396588Y-113224159D01*
X146574502Y-113125409D01*
X146728895Y-112992866D01*
X146762076Y-112950000D01*
X148000000Y-112950000D01*
X148000000Y-113497844D01*
X148006401Y-113557372D01*
X148006403Y-113557379D01*
X148056645Y-113692086D01*
X148056649Y-113692093D01*
X148142809Y-113807187D01*
X148142812Y-113807190D01*
X148257906Y-113893350D01*
X148257913Y-113893354D01*
X148392620Y-113943596D01*
X148392627Y-113943598D01*
X148452155Y-113949999D01*
X148452172Y-113950000D01*
X149540000Y-113950000D01*
X149540000Y-112950000D01*
X150040000Y-112950000D01*
X150040000Y-113950000D01*
X151127828Y-113950000D01*
X151127844Y-113949999D01*
X151187372Y-113943598D01*
X151187379Y-113943596D01*
X151322086Y-113893354D01*
X151322093Y-113893350D01*
X151437187Y-113807190D01*
X151437190Y-113807187D01*
X151523350Y-113692093D01*
X151523354Y-113692086D01*
X151573596Y-113557379D01*
X151573598Y-113557372D01*
X151579999Y-113497844D01*
X151580000Y-113497827D01*
X151580000Y-112950000D01*
X150040000Y-112950000D01*
X149540000Y-112950000D01*
X148000000Y-112950000D01*
X146762076Y-112950000D01*
X146853448Y-112831958D01*
X146943060Y-112649271D01*
X146994063Y-112452285D01*
X146994179Y-112450000D01*
X148000000Y-112450000D01*
X149540000Y-112450000D01*
X149540000Y-111450000D01*
X150040000Y-111450000D01*
X150040000Y-112450000D01*
X151580000Y-112450000D01*
X151580000Y-111902172D01*
X151579999Y-111902155D01*
X151573598Y-111842627D01*
X151573596Y-111842620D01*
X151523354Y-111707913D01*
X151523350Y-111707906D01*
X151437190Y-111592812D01*
X151437187Y-111592809D01*
X151322093Y-111506649D01*
X151322086Y-111506645D01*
X151187379Y-111456403D01*
X151187372Y-111456401D01*
X151127844Y-111450000D01*
X150040000Y-111450000D01*
X149540000Y-111450000D01*
X148452155Y-111450000D01*
X148392627Y-111456401D01*
X148392620Y-111456403D01*
X148257913Y-111506645D01*
X148257906Y-111506649D01*
X148142812Y-111592809D01*
X148142809Y-111592812D01*
X148056649Y-111707906D01*
X148056645Y-111707913D01*
X148006403Y-111842620D01*
X148006401Y-111842627D01*
X148000000Y-111902155D01*
X148000000Y-112450000D01*
X146994179Y-112450000D01*
X147004369Y-112249064D01*
X146973556Y-112047929D01*
X146906120Y-111865844D01*
X146902888Y-111857118D01*
X146902887Y-111857117D01*
X146902886Y-111857113D01*
X146795252Y-111684429D01*
X146655059Y-111536947D01*
X146538627Y-111455908D01*
X146488050Y-111420705D01*
X146301056Y-111340459D01*
X146101741Y-111299500D01*
X145949258Y-111299500D01*
X145949257Y-111299500D01*
X145797560Y-111314925D01*
X145603420Y-111375837D01*
X145603405Y-111375844D01*
X145425500Y-111474589D01*
X145425495Y-111474592D01*
X145271106Y-111607132D01*
X145271104Y-111607134D01*
X145146554Y-111768037D01*
X145146553Y-111768040D01*
X145056940Y-111950728D01*
X145005937Y-112147714D01*
X144995631Y-112350936D01*
X144000499Y-112350936D01*
X144000499Y-111902128D01*
X143994091Y-111842517D01*
X143985879Y-111820500D01*
X143943797Y-111707671D01*
X143943793Y-111707664D01*
X143857547Y-111592455D01*
X143857544Y-111592452D01*
X143742335Y-111506206D01*
X143742328Y-111506202D01*
X143607482Y-111455908D01*
X143607483Y-111455908D01*
X143547883Y-111449501D01*
X143547881Y-111449500D01*
X143547873Y-111449500D01*
X143547865Y-111449500D01*
X141052649Y-111449500D01*
X140985610Y-111429815D01*
X140939855Y-111377011D01*
X140929911Y-111307853D01*
X140958936Y-111244297D01*
X140964954Y-111237833D01*
X142104917Y-110097870D01*
X147999500Y-110097870D01*
X147999501Y-110097876D01*
X148005908Y-110157483D01*
X148056202Y-110292328D01*
X148056206Y-110292335D01*
X148142452Y-110407544D01*
X148142455Y-110407547D01*
X148257664Y-110493793D01*
X148257671Y-110493797D01*
X148392517Y-110544091D01*
X148392516Y-110544091D01*
X148399444Y-110544835D01*
X148452127Y-110550500D01*
X151127872Y-110550499D01*
X151187483Y-110544091D01*
X151322331Y-110493796D01*
X151437546Y-110407546D01*
X151523796Y-110292331D01*
X151574091Y-110157483D01*
X151580500Y-110097873D01*
X151580499Y-108502128D01*
X151574091Y-108442517D01*
X151572298Y-108437711D01*
X151523797Y-108307671D01*
X151523793Y-108307664D01*
X151437547Y-108192455D01*
X151437544Y-108192452D01*
X151322335Y-108106206D01*
X151322328Y-108106202D01*
X151187482Y-108055908D01*
X151187483Y-108055908D01*
X151127883Y-108049501D01*
X151127881Y-108049500D01*
X151127873Y-108049500D01*
X151127864Y-108049500D01*
X148452129Y-108049500D01*
X148452123Y-108049501D01*
X148392516Y-108055908D01*
X148257671Y-108106202D01*
X148257664Y-108106206D01*
X148142455Y-108192452D01*
X148142452Y-108192455D01*
X148056206Y-108307664D01*
X148056202Y-108307671D01*
X148005908Y-108442517D01*
X148000368Y-108494053D01*
X147999501Y-108502123D01*
X147999500Y-108502135D01*
X147999500Y-110097870D01*
X142104917Y-110097870D01*
X142783398Y-109419389D01*
X142790793Y-109412573D01*
X142831100Y-109378337D01*
X142879134Y-109315147D01*
X142881104Y-109312627D01*
X142930841Y-109250754D01*
X142930843Y-109250748D01*
X142931480Y-109249753D01*
X142942406Y-109232138D01*
X142943046Y-109231074D01*
X142943054Y-109231064D01*
X142976392Y-109159003D01*
X142977780Y-109156106D01*
X143013036Y-109085021D01*
X143013038Y-109085012D01*
X143013452Y-109083886D01*
X143020389Y-109064183D01*
X143020729Y-109063172D01*
X143020732Y-109063167D01*
X143037781Y-108985706D01*
X143038546Y-108982443D01*
X143057684Y-108905495D01*
X143057684Y-108905491D01*
X143057685Y-108905488D01*
X143057830Y-108904426D01*
X143060371Y-108883677D01*
X143060500Y-108882497D01*
X143060500Y-108803226D01*
X143060545Y-108799869D01*
X143062004Y-108745989D01*
X143062693Y-108720568D01*
X143062692Y-108720567D01*
X143062693Y-108720564D01*
X143062608Y-108719520D01*
X143060500Y-108697352D01*
X143060500Y-106874499D01*
X143080185Y-106807460D01*
X143132989Y-106761705D01*
X143184500Y-106750499D01*
X143547871Y-106750499D01*
X143547872Y-106750499D01*
X143607483Y-106744091D01*
X143742331Y-106693796D01*
X143857546Y-106607546D01*
X143943796Y-106492331D01*
X143994091Y-106357483D01*
X144000500Y-106297873D01*
X144000499Y-105350936D01*
X144995631Y-105350936D01*
X145026442Y-105552063D01*
X145026445Y-105552075D01*
X145097111Y-105742881D01*
X145097115Y-105742888D01*
X145204745Y-105915567D01*
X145204749Y-105915572D01*
X145285479Y-106000500D01*
X145344941Y-106063053D01*
X145473344Y-106152424D01*
X145511949Y-106179294D01*
X145511950Y-106179294D01*
X145511951Y-106179295D01*
X145698942Y-106259540D01*
X145898259Y-106300500D01*
X146050743Y-106300500D01*
X146202439Y-106285074D01*
X146396579Y-106224162D01*
X146396580Y-106224161D01*
X146396588Y-106224159D01*
X146574502Y-106125409D01*
X146728895Y-105992866D01*
X146853448Y-105831958D01*
X146943060Y-105649271D01*
X146994063Y-105452285D01*
X147004369Y-105249064D01*
X146973556Y-105047929D01*
X146921564Y-104907546D01*
X146902888Y-104857118D01*
X146902887Y-104857117D01*
X146902886Y-104857113D01*
X146795252Y-104684429D01*
X146712971Y-104597870D01*
X147999500Y-104597870D01*
X147999501Y-104597876D01*
X148005908Y-104657483D01*
X148056202Y-104792328D01*
X148056206Y-104792335D01*
X148142452Y-104907544D01*
X148142455Y-104907547D01*
X148257664Y-104993793D01*
X148257671Y-104993797D01*
X148392517Y-105044091D01*
X148392516Y-105044091D01*
X148399444Y-105044835D01*
X148452127Y-105050500D01*
X151127872Y-105050499D01*
X151187483Y-105044091D01*
X151322331Y-104993796D01*
X151437546Y-104907546D01*
X151523796Y-104792331D01*
X151574091Y-104657483D01*
X151580500Y-104597873D01*
X151580499Y-103002128D01*
X151574091Y-102942517D01*
X151523796Y-102807669D01*
X151523795Y-102807668D01*
X151523793Y-102807664D01*
X151437547Y-102692455D01*
X151437544Y-102692452D01*
X151322335Y-102606206D01*
X151322328Y-102606202D01*
X151187482Y-102555908D01*
X151187483Y-102555908D01*
X151127883Y-102549501D01*
X151127881Y-102549500D01*
X151127873Y-102549500D01*
X151127864Y-102549500D01*
X148452129Y-102549500D01*
X148452123Y-102549501D01*
X148392516Y-102555908D01*
X148257671Y-102606202D01*
X148257664Y-102606206D01*
X148142455Y-102692452D01*
X148142452Y-102692455D01*
X148056206Y-102807664D01*
X148056202Y-102807671D01*
X148005908Y-102942517D01*
X147999501Y-103002116D01*
X147999501Y-103002123D01*
X147999500Y-103002135D01*
X147999500Y-104597870D01*
X146712971Y-104597870D01*
X146655059Y-104536947D01*
X146543684Y-104459428D01*
X146488050Y-104420705D01*
X146301056Y-104340459D01*
X146101741Y-104299500D01*
X145949258Y-104299500D01*
X145949257Y-104299500D01*
X145797560Y-104314925D01*
X145603420Y-104375837D01*
X145603405Y-104375844D01*
X145425500Y-104474589D01*
X145425495Y-104474592D01*
X145271106Y-104607132D01*
X145271104Y-104607134D01*
X145146554Y-104768037D01*
X145146553Y-104768040D01*
X145056940Y-104950728D01*
X145005937Y-105147714D01*
X144995631Y-105350936D01*
X144000499Y-105350936D01*
X144000499Y-104702128D01*
X143994091Y-104642517D01*
X143980894Y-104607134D01*
X143943797Y-104507670D01*
X143919034Y-104474592D01*
X143918823Y-104474310D01*
X143894406Y-104408849D01*
X143909257Y-104340575D01*
X143918823Y-104325690D01*
X143943796Y-104292331D01*
X143994091Y-104157483D01*
X144000500Y-104097873D01*
X144000499Y-102502128D01*
X143994091Y-102442517D01*
X143943796Y-102307669D01*
X143943795Y-102307668D01*
X143943793Y-102307664D01*
X143857547Y-102192455D01*
X143857544Y-102192452D01*
X143742335Y-102106206D01*
X143742328Y-102106202D01*
X143607482Y-102055908D01*
X143607483Y-102055908D01*
X143547883Y-102049501D01*
X143547881Y-102049500D01*
X143547873Y-102049500D01*
X143547864Y-102049500D01*
X140872129Y-102049500D01*
X140872123Y-102049501D01*
X140812516Y-102055908D01*
X140677671Y-102106202D01*
X140677664Y-102106206D01*
X140562455Y-102192452D01*
X140562452Y-102192455D01*
X140476206Y-102307664D01*
X140476202Y-102307671D01*
X140425908Y-102442517D01*
X140419501Y-102502116D01*
X140419501Y-102502123D01*
X140419500Y-102502135D01*
X140419500Y-104097870D01*
X140419501Y-104097876D01*
X140425908Y-104157483D01*
X140476202Y-104292328D01*
X140476203Y-104292330D01*
X140501176Y-104325690D01*
X140525592Y-104391155D01*
X140510740Y-104459428D01*
X140501176Y-104474310D01*
X140476203Y-104507669D01*
X140476202Y-104507671D01*
X140425908Y-104642517D01*
X140421402Y-104684432D01*
X140419501Y-104702123D01*
X140419500Y-104702135D01*
X140419500Y-106297870D01*
X140419501Y-106297876D01*
X140425908Y-106357483D01*
X140476202Y-106492328D01*
X140476206Y-106492335D01*
X140562452Y-106607544D01*
X140562455Y-106607547D01*
X140677664Y-106693793D01*
X140677671Y-106693797D01*
X140722618Y-106710561D01*
X140812517Y-106744091D01*
X140872127Y-106750500D01*
X141235500Y-106750499D01*
X141302539Y-106770183D01*
X141348294Y-106822987D01*
X141359500Y-106874499D01*
X141359500Y-108386349D01*
X141339815Y-108453388D01*
X141323181Y-108474030D01*
X137889030Y-111908181D01*
X137827707Y-111941666D01*
X137801349Y-111944500D01*
X135989500Y-111944500D01*
X135922461Y-111924815D01*
X135876706Y-111872011D01*
X135865500Y-111820500D01*
X135865500Y-110125951D01*
X135885185Y-110058912D01*
X135915187Y-110026685D01*
X136007546Y-109957546D01*
X136093796Y-109842331D01*
X136144091Y-109707483D01*
X136150500Y-109647873D01*
X136150500Y-108250000D01*
X136665000Y-108250000D01*
X136665000Y-110147844D01*
X136671401Y-110207372D01*
X136671403Y-110207379D01*
X136721645Y-110342086D01*
X136721649Y-110342093D01*
X136807809Y-110457187D01*
X136807812Y-110457190D01*
X136922906Y-110543350D01*
X136922913Y-110543354D01*
X137057620Y-110593596D01*
X137057627Y-110593598D01*
X137117155Y-110599999D01*
X137117172Y-110600000D01*
X137590000Y-110600000D01*
X137590000Y-108250000D01*
X138090000Y-108250000D01*
X138090000Y-110600000D01*
X138562828Y-110600000D01*
X138562844Y-110599999D01*
X138622372Y-110593598D01*
X138622379Y-110593596D01*
X138757086Y-110543354D01*
X138757093Y-110543350D01*
X138872187Y-110457190D01*
X138872190Y-110457187D01*
X138958350Y-110342093D01*
X138958354Y-110342086D01*
X139008596Y-110207379D01*
X139008598Y-110207372D01*
X139014999Y-110147844D01*
X139015000Y-110147827D01*
X139015000Y-108250000D01*
X138090000Y-108250000D01*
X137590000Y-108250000D01*
X136665000Y-108250000D01*
X136150500Y-108250000D01*
X136150499Y-106124499D01*
X136170184Y-106057461D01*
X136222988Y-106011706D01*
X136274499Y-106000500D01*
X136541000Y-106000500D01*
X136608039Y-106020185D01*
X136653794Y-106072989D01*
X136665000Y-106124500D01*
X136665000Y-107750000D01*
X139015000Y-107750000D01*
X139015000Y-106117337D01*
X139034685Y-106050298D01*
X139087489Y-106004543D01*
X139117465Y-105995222D01*
X139259938Y-105970101D01*
X139424445Y-105910225D01*
X139576055Y-105822692D01*
X139710163Y-105710163D01*
X139822692Y-105576055D01*
X139910225Y-105424445D01*
X139970101Y-105259938D01*
X140000500Y-105087532D01*
X140000500Y-105000000D01*
X140000500Y-104999500D01*
X140000500Y-101005412D01*
X140000972Y-100994605D01*
X140004415Y-100955250D01*
X140004540Y-100953904D01*
X140004542Y-100953882D01*
X140016918Y-100828221D01*
X140020540Y-100808318D01*
X140037908Y-100743498D01*
X140038956Y-100739828D01*
X140066685Y-100648419D01*
X140072948Y-100632049D01*
X140103700Y-100566102D01*
X140106670Y-100560161D01*
X140149012Y-100480944D01*
X140156786Y-100468289D01*
X140199639Y-100407089D01*
X140205330Y-100399587D01*
X140261191Y-100331521D01*
X140269325Y-100322547D01*
X140322547Y-100269325D01*
X140331521Y-100261191D01*
X140399587Y-100205330D01*
X140407089Y-100199639D01*
X140468289Y-100156786D01*
X140480944Y-100149012D01*
X140560161Y-100106670D01*
X140566102Y-100103700D01*
X140632049Y-100072948D01*
X140648419Y-100066685D01*
X140739828Y-100038956D01*
X140743498Y-100037908D01*
X140808318Y-100020540D01*
X140828221Y-100016918D01*
X140953927Y-100004537D01*
X140955204Y-100004419D01*
X140994605Y-100000971D01*
X141005412Y-100000500D01*
X150994587Y-100000500D01*
X151005392Y-100000972D01*
X151017433Y-100002025D01*
X151044880Y-100004426D01*
X151045961Y-100004526D01*
X151171776Y-100016918D01*
X151191685Y-100020541D01*
X151256467Y-100037899D01*
X151260203Y-100038966D01*
X151351570Y-100066682D01*
X151367959Y-100072952D01*
X151433867Y-100103686D01*
X151439867Y-100106685D01*
X151482639Y-100129548D01*
X151519046Y-100149008D01*
X151531715Y-100156791D01*
X151592889Y-100199625D01*
X151600430Y-100205346D01*
X151668455Y-100261172D01*
X151677472Y-100269345D01*
X151730653Y-100322526D01*
X151738826Y-100331543D01*
X151794652Y-100399568D01*
X151800373Y-100407109D01*
X151843207Y-100468283D01*
X151850990Y-100480952D01*
X151893304Y-100560114D01*
X151896328Y-100566163D01*
X151927041Y-100632027D01*
X151933319Y-100648436D01*
X151961008Y-100739713D01*
X151962123Y-100743616D01*
X151979454Y-100808298D01*
X151983082Y-100828238D01*
X151995456Y-100953882D01*
X151995581Y-100955223D01*
X151999028Y-100994604D01*
X151999500Y-101005416D01*
X151999500Y-113994583D01*
X151999028Y-114005396D01*
X151995581Y-114044776D01*
X151995456Y-114046116D01*
X151983082Y-114171760D01*
X151979454Y-114191700D01*
X151962123Y-114256382D01*
X151961008Y-114260285D01*
X151933319Y-114351562D01*
X151927041Y-114367971D01*
X151896328Y-114433835D01*
X151893304Y-114439884D01*
X151850990Y-114519046D01*
X151843207Y-114531715D01*
X151800373Y-114592889D01*
X151794652Y-114600430D01*
X151738826Y-114668455D01*
X151730653Y-114677472D01*
X151677472Y-114730653D01*
X151668455Y-114738826D01*
X151600430Y-114794652D01*
X151592889Y-114800373D01*
X151531715Y-114843207D01*
X151519046Y-114850990D01*
X151439884Y-114893304D01*
X151433835Y-114896328D01*
X151367971Y-114927041D01*
X151351562Y-114933319D01*
X151260285Y-114961008D01*
X151256382Y-114962123D01*
X151191700Y-114979454D01*
X151171760Y-114983082D01*
X151046116Y-114995456D01*
X151044776Y-114995581D01*
X151009760Y-114998646D01*
X151005392Y-114999028D01*
X150994584Y-114999500D01*
X141912465Y-114999500D01*
X141740062Y-115029898D01*
X141575553Y-115089775D01*
X141423942Y-115177309D01*
X141289836Y-115289836D01*
X141177309Y-115423942D01*
X141089775Y-115575553D01*
X141029898Y-115740062D01*
X140999500Y-115912465D01*
X140999500Y-115994583D01*
X140999028Y-116005396D01*
X140995581Y-116044776D01*
X140995456Y-116046116D01*
X140983082Y-116171760D01*
X140979454Y-116191700D01*
X140962123Y-116256382D01*
X140961008Y-116260285D01*
X140933319Y-116351562D01*
X140927041Y-116367971D01*
X140896328Y-116433835D01*
X140893304Y-116439884D01*
X140850990Y-116519046D01*
X140843207Y-116531715D01*
X140800373Y-116592889D01*
X140794652Y-116600430D01*
X140738826Y-116668455D01*
X140730653Y-116677472D01*
X140677472Y-116730653D01*
X140668455Y-116738826D01*
X140600430Y-116794652D01*
X140592889Y-116800373D01*
X140531715Y-116843207D01*
X140519046Y-116850990D01*
X140439884Y-116893304D01*
X140433835Y-116896328D01*
X140367971Y-116927041D01*
X140351562Y-116933319D01*
X140260285Y-116961008D01*
X140256382Y-116962123D01*
X140191700Y-116979454D01*
X140171760Y-116983082D01*
X140046116Y-116995456D01*
X140044776Y-116995581D01*
X140009760Y-116998646D01*
X140005392Y-116999028D01*
X139994584Y-116999500D01*
X130005416Y-116999500D01*
X129994606Y-116999028D01*
X129992001Y-116998800D01*
X129955223Y-116995581D01*
X129953882Y-116995456D01*
X129828238Y-116983082D01*
X129808298Y-116979454D01*
X129743616Y-116962123D01*
X129739713Y-116961008D01*
X129648436Y-116933319D01*
X129632027Y-116927041D01*
X129566163Y-116896328D01*
X129560114Y-116893304D01*
X129480952Y-116850990D01*
X129468283Y-116843207D01*
X129407109Y-116800373D01*
X129399568Y-116794652D01*
X129331543Y-116738826D01*
X129322526Y-116730653D01*
X129269345Y-116677472D01*
X129261172Y-116668455D01*
X129205346Y-116600430D01*
X129199625Y-116592889D01*
X129156791Y-116531715D01*
X129149008Y-116519046D01*
X129129548Y-116482639D01*
X129106685Y-116439867D01*
X129103686Y-116433867D01*
X129072952Y-116367959D01*
X129066682Y-116351570D01*
X129038966Y-116260203D01*
X129037899Y-116256467D01*
X129020541Y-116191685D01*
X129016918Y-116171776D01*
X129004526Y-116045961D01*
X129004417Y-116044776D01*
X129000972Y-116005391D01*
X129000500Y-115994586D01*
X129000500Y-115912472D01*
X129000500Y-115912468D01*
X128970101Y-115740062D01*
X128910225Y-115575555D01*
X128822692Y-115423945D01*
X128822691Y-115423943D01*
X128822690Y-115423942D01*
X128710163Y-115289836D01*
X128576057Y-115177309D01*
X128424446Y-115089775D01*
X128259937Y-115029898D01*
X128087534Y-114999500D01*
X128087532Y-114999500D01*
X128000099Y-114999500D01*
X119005416Y-114999500D01*
X118994606Y-114999028D01*
X118992001Y-114998800D01*
X118955223Y-114995581D01*
X118953882Y-114995456D01*
X118828238Y-114983082D01*
X118808298Y-114979454D01*
X118743616Y-114962123D01*
X118739713Y-114961008D01*
X118648436Y-114933319D01*
X118632027Y-114927041D01*
X118566163Y-114896328D01*
X118560114Y-114893304D01*
X118480952Y-114850990D01*
X118468283Y-114843207D01*
X118407109Y-114800373D01*
X118399568Y-114794652D01*
X118331543Y-114738826D01*
X118322526Y-114730653D01*
X118269345Y-114677472D01*
X118261172Y-114668455D01*
X118205346Y-114600430D01*
X118199625Y-114592889D01*
X118156791Y-114531715D01*
X118149008Y-114519046D01*
X118129548Y-114482639D01*
X118106685Y-114439867D01*
X118103686Y-114433867D01*
X118072952Y-114367959D01*
X118066682Y-114351570D01*
X118038966Y-114260203D01*
X118037899Y-114256467D01*
X118020541Y-114191685D01*
X118016918Y-114171776D01*
X118004526Y-114045961D01*
X118004417Y-114044776D01*
X118000972Y-114005391D01*
X118000500Y-113994586D01*
X118000500Y-113497870D01*
X118419500Y-113497870D01*
X118419501Y-113497876D01*
X118425908Y-113557483D01*
X118476202Y-113692328D01*
X118476206Y-113692335D01*
X118562452Y-113807544D01*
X118562455Y-113807547D01*
X118677664Y-113893793D01*
X118677671Y-113893797D01*
X118812517Y-113944091D01*
X118812516Y-113944091D01*
X118819444Y-113944835D01*
X118872127Y-113950500D01*
X121547872Y-113950499D01*
X121607483Y-113944091D01*
X121742331Y-113893796D01*
X121857546Y-113807546D01*
X121943796Y-113692331D01*
X121994091Y-113557483D01*
X122000500Y-113497873D01*
X122000499Y-111902128D01*
X121994091Y-111842517D01*
X121985879Y-111820500D01*
X121943797Y-111707671D01*
X121943793Y-111707664D01*
X121857547Y-111592455D01*
X121857544Y-111592452D01*
X121742335Y-111506206D01*
X121742328Y-111506202D01*
X121607482Y-111455908D01*
X121607483Y-111455908D01*
X121547883Y-111449501D01*
X121547881Y-111449500D01*
X121547873Y-111449500D01*
X121547864Y-111449500D01*
X118872129Y-111449500D01*
X118872123Y-111449501D01*
X118812516Y-111455908D01*
X118677671Y-111506202D01*
X118677664Y-111506206D01*
X118562455Y-111592452D01*
X118562452Y-111592455D01*
X118476206Y-111707664D01*
X118476202Y-111707671D01*
X118425908Y-111842517D01*
X118419501Y-111902116D01*
X118419501Y-111902123D01*
X118419500Y-111902135D01*
X118419500Y-113497870D01*
X118000500Y-113497870D01*
X118000500Y-101005412D01*
X118000972Y-100994605D01*
X118004415Y-100955250D01*
X118004540Y-100953904D01*
X118004542Y-100953882D01*
X118016918Y-100828221D01*
X118020540Y-100808318D01*
X118037908Y-100743498D01*
X118038956Y-100739828D01*
X118066685Y-100648419D01*
X118072948Y-100632049D01*
X118103700Y-100566102D01*
X118106670Y-100560161D01*
X118149012Y-100480944D01*
X118156786Y-100468289D01*
X118199639Y-100407089D01*
X118205330Y-100399587D01*
X118261191Y-100331521D01*
X118269325Y-100322547D01*
X118322547Y-100269325D01*
X118331521Y-100261191D01*
X118399587Y-100205330D01*
X118407089Y-100199639D01*
X118468289Y-100156786D01*
X118480944Y-100149012D01*
X118560161Y-100106670D01*
X118566102Y-100103700D01*
X118632049Y-100072948D01*
X118648419Y-100066685D01*
X118739828Y-100038956D01*
X118743498Y-100037908D01*
X118808318Y-100020540D01*
X118828221Y-100016918D01*
X118953927Y-100004537D01*
X118955204Y-100004419D01*
X118994605Y-100000971D01*
X119005412Y-100000500D01*
X128994587Y-100000500D01*
X129005392Y-100000972D01*
G37*
%TD.AperFunction*%
%TD*%
M02*
