%TF.GenerationSoftware,KiCad,Pcbnew,7.0.11*%
%TF.CreationDate,2024-02-25T15:21:37+01:00*%
%TF.ProjectId,EuroTap,4575726f-5461-4702-9e6b-696361645f70,rev?*%
%TF.SameCoordinates,Original*%
%TF.FileFunction,Drillmap*%
%TF.FilePolarity,Positive*%
%FSLAX45Y45*%
G04 Gerber Fmt 4.5, Leading zero omitted, Abs format (unit mm)*
G04 Created by KiCad (PCBNEW 7.0.11) date 2024-02-25 15:21:37*
%MOMM*%
%LPD*%
G01*
G04 APERTURE LIST*
%ADD10C,0.100000*%
%ADD11C,0.200000*%
%ADD12C,0.150000*%
G04 APERTURE END LIST*
D10*
X13000000Y-10500000D02*
X13000000Y-10100000D01*
X14000000Y-10500000D02*
X14000000Y-10100000D01*
X13900000Y-10600000D02*
G75*
G03*
X14000000Y-10500000I0J100000D01*
G01*
X14100000Y-10000000D02*
G75*
G03*
X14000000Y-10100000I0J-100000D01*
G01*
X13100000Y-10600000D02*
X13900000Y-10600000D01*
X12900000Y-10000000D02*
X11900000Y-10000000D01*
X15100000Y-11500000D02*
G75*
G03*
X15200000Y-11400000I0J100000D01*
G01*
X14200000Y-11500000D02*
X15100000Y-11500000D01*
X15100000Y-10000000D02*
X14100000Y-10000000D01*
X13000000Y-10100000D02*
G75*
G03*
X12900000Y-10000000I-100000J0D01*
G01*
X12900000Y-11600000D02*
G75*
G03*
X12800000Y-11500000I-100000J0D01*
G01*
X14000000Y-11700000D02*
X13000000Y-11700000D01*
X11900000Y-10000000D02*
G75*
G03*
X11800000Y-10100000I0J-100000D01*
G01*
X11800000Y-11400000D02*
X11800000Y-10100000D01*
X11800000Y-11400000D02*
G75*
G03*
X11900000Y-11500000I100000J0D01*
G01*
X15200000Y-10100000D02*
X15200000Y-11400000D01*
X14000000Y-11700000D02*
G75*
G03*
X14100000Y-11600000I0J100000D01*
G01*
X14200000Y-11500000D02*
G75*
G03*
X14100000Y-11600000I0J-100000D01*
G01*
X13000000Y-10500000D02*
G75*
G03*
X13100000Y-10600000I100000J0D01*
G01*
X12800000Y-11500000D02*
X11900000Y-11500000D01*
X15200000Y-10100000D02*
G75*
G03*
X15100000Y-10000000I-100000J0D01*
G01*
X12900000Y-11600000D02*
G75*
G03*
X13000000Y-11700000I100000J0D01*
G01*
D11*
D12*
X12325000Y-10455000D02*
X12475000Y-10605000D01*
X12475000Y-10455000D02*
X12325000Y-10605000D01*
X12325000Y-11155000D02*
X12475000Y-11305000D01*
X12475000Y-11155000D02*
X12325000Y-11305000D01*
X14525000Y-10455000D02*
X14675000Y-10605000D01*
X14675000Y-10455000D02*
X14525000Y-10605000D01*
X14525000Y-11155000D02*
X14675000Y-11305000D01*
X14675000Y-11155000D02*
X14525000Y-11305000D01*
D11*
X12055777Y-12016484D02*
X12055777Y-11816484D01*
X12055777Y-11816484D02*
X12103396Y-11816484D01*
X12103396Y-11816484D02*
X12131967Y-11826008D01*
X12131967Y-11826008D02*
X12151015Y-11845055D01*
X12151015Y-11845055D02*
X12160539Y-11864103D01*
X12160539Y-11864103D02*
X12170062Y-11902198D01*
X12170062Y-11902198D02*
X12170062Y-11930769D01*
X12170062Y-11930769D02*
X12160539Y-11968865D01*
X12160539Y-11968865D02*
X12151015Y-11987912D01*
X12151015Y-11987912D02*
X12131967Y-12006960D01*
X12131967Y-12006960D02*
X12103396Y-12016484D01*
X12103396Y-12016484D02*
X12055777Y-12016484D01*
X12255777Y-12016484D02*
X12255777Y-11883150D01*
X12255777Y-11921246D02*
X12265301Y-11902198D01*
X12265301Y-11902198D02*
X12274824Y-11892674D01*
X12274824Y-11892674D02*
X12293872Y-11883150D01*
X12293872Y-11883150D02*
X12312920Y-11883150D01*
X12379586Y-12016484D02*
X12379586Y-11883150D01*
X12379586Y-11816484D02*
X12370062Y-11826008D01*
X12370062Y-11826008D02*
X12379586Y-11835531D01*
X12379586Y-11835531D02*
X12389110Y-11826008D01*
X12389110Y-11826008D02*
X12379586Y-11816484D01*
X12379586Y-11816484D02*
X12379586Y-11835531D01*
X12503396Y-12016484D02*
X12484348Y-12006960D01*
X12484348Y-12006960D02*
X12474824Y-11987912D01*
X12474824Y-11987912D02*
X12474824Y-11816484D01*
X12608158Y-12016484D02*
X12589110Y-12006960D01*
X12589110Y-12006960D02*
X12579586Y-11987912D01*
X12579586Y-11987912D02*
X12579586Y-11816484D01*
X12836729Y-12016484D02*
X12836729Y-11816484D01*
X12836729Y-11816484D02*
X12903396Y-11959341D01*
X12903396Y-11959341D02*
X12970062Y-11816484D01*
X12970062Y-11816484D02*
X12970062Y-12016484D01*
X13151015Y-12016484D02*
X13151015Y-11911722D01*
X13151015Y-11911722D02*
X13141491Y-11892674D01*
X13141491Y-11892674D02*
X13122443Y-11883150D01*
X13122443Y-11883150D02*
X13084348Y-11883150D01*
X13084348Y-11883150D02*
X13065301Y-11892674D01*
X13151015Y-12006960D02*
X13131967Y-12016484D01*
X13131967Y-12016484D02*
X13084348Y-12016484D01*
X13084348Y-12016484D02*
X13065301Y-12006960D01*
X13065301Y-12006960D02*
X13055777Y-11987912D01*
X13055777Y-11987912D02*
X13055777Y-11968865D01*
X13055777Y-11968865D02*
X13065301Y-11949817D01*
X13065301Y-11949817D02*
X13084348Y-11940293D01*
X13084348Y-11940293D02*
X13131967Y-11940293D01*
X13131967Y-11940293D02*
X13151015Y-11930769D01*
X13246253Y-11883150D02*
X13246253Y-12083150D01*
X13246253Y-11892674D02*
X13265301Y-11883150D01*
X13265301Y-11883150D02*
X13303396Y-11883150D01*
X13303396Y-11883150D02*
X13322443Y-11892674D01*
X13322443Y-11892674D02*
X13331967Y-11902198D01*
X13331967Y-11902198D02*
X13341491Y-11921246D01*
X13341491Y-11921246D02*
X13341491Y-11978388D01*
X13341491Y-11978388D02*
X13331967Y-11997436D01*
X13331967Y-11997436D02*
X13322443Y-12006960D01*
X13322443Y-12006960D02*
X13303396Y-12016484D01*
X13303396Y-12016484D02*
X13265301Y-12016484D01*
X13265301Y-12016484D02*
X13246253Y-12006960D01*
X13427205Y-11997436D02*
X13436729Y-12006960D01*
X13436729Y-12006960D02*
X13427205Y-12016484D01*
X13427205Y-12016484D02*
X13417682Y-12006960D01*
X13417682Y-12006960D02*
X13427205Y-11997436D01*
X13427205Y-11997436D02*
X13427205Y-12016484D01*
X13427205Y-11892674D02*
X13436729Y-11902198D01*
X13436729Y-11902198D02*
X13427205Y-11911722D01*
X13427205Y-11911722D02*
X13417682Y-11902198D01*
X13417682Y-11902198D02*
X13427205Y-11892674D01*
X13427205Y-11892674D02*
X13427205Y-11911722D01*
D12*
X11645000Y-12270000D02*
X11795000Y-12420000D01*
X11795000Y-12270000D02*
X11645000Y-12420000D01*
D11*
X12160539Y-12436484D02*
X12046253Y-12436484D01*
X12103396Y-12436484D02*
X12103396Y-12236484D01*
X12103396Y-12236484D02*
X12084348Y-12265055D01*
X12084348Y-12265055D02*
X12065301Y-12284103D01*
X12065301Y-12284103D02*
X12046253Y-12293627D01*
X12246253Y-12417436D02*
X12255777Y-12426960D01*
X12255777Y-12426960D02*
X12246253Y-12436484D01*
X12246253Y-12436484D02*
X12236729Y-12426960D01*
X12236729Y-12426960D02*
X12246253Y-12417436D01*
X12246253Y-12417436D02*
X12246253Y-12436484D01*
X12436729Y-12236484D02*
X12341491Y-12236484D01*
X12341491Y-12236484D02*
X12331967Y-12331722D01*
X12331967Y-12331722D02*
X12341491Y-12322198D01*
X12341491Y-12322198D02*
X12360539Y-12312674D01*
X12360539Y-12312674D02*
X12408158Y-12312674D01*
X12408158Y-12312674D02*
X12427205Y-12322198D01*
X12427205Y-12322198D02*
X12436729Y-12331722D01*
X12436729Y-12331722D02*
X12446253Y-12350769D01*
X12446253Y-12350769D02*
X12446253Y-12398388D01*
X12446253Y-12398388D02*
X12436729Y-12417436D01*
X12436729Y-12417436D02*
X12427205Y-12426960D01*
X12427205Y-12426960D02*
X12408158Y-12436484D01*
X12408158Y-12436484D02*
X12360539Y-12436484D01*
X12360539Y-12436484D02*
X12341491Y-12426960D01*
X12341491Y-12426960D02*
X12331967Y-12417436D01*
X12570062Y-12236484D02*
X12589110Y-12236484D01*
X12589110Y-12236484D02*
X12608158Y-12246008D01*
X12608158Y-12246008D02*
X12617682Y-12255531D01*
X12617682Y-12255531D02*
X12627205Y-12274579D01*
X12627205Y-12274579D02*
X12636729Y-12312674D01*
X12636729Y-12312674D02*
X12636729Y-12360293D01*
X12636729Y-12360293D02*
X12627205Y-12398388D01*
X12627205Y-12398388D02*
X12617682Y-12417436D01*
X12617682Y-12417436D02*
X12608158Y-12426960D01*
X12608158Y-12426960D02*
X12589110Y-12436484D01*
X12589110Y-12436484D02*
X12570062Y-12436484D01*
X12570062Y-12436484D02*
X12551015Y-12426960D01*
X12551015Y-12426960D02*
X12541491Y-12417436D01*
X12541491Y-12417436D02*
X12531967Y-12398388D01*
X12531967Y-12398388D02*
X12522443Y-12360293D01*
X12522443Y-12360293D02*
X12522443Y-12312674D01*
X12522443Y-12312674D02*
X12531967Y-12274579D01*
X12531967Y-12274579D02*
X12541491Y-12255531D01*
X12541491Y-12255531D02*
X12551015Y-12246008D01*
X12551015Y-12246008D02*
X12570062Y-12236484D01*
X12760539Y-12236484D02*
X12779586Y-12236484D01*
X12779586Y-12236484D02*
X12798634Y-12246008D01*
X12798634Y-12246008D02*
X12808158Y-12255531D01*
X12808158Y-12255531D02*
X12817682Y-12274579D01*
X12817682Y-12274579D02*
X12827205Y-12312674D01*
X12827205Y-12312674D02*
X12827205Y-12360293D01*
X12827205Y-12360293D02*
X12817682Y-12398388D01*
X12817682Y-12398388D02*
X12808158Y-12417436D01*
X12808158Y-12417436D02*
X12798634Y-12426960D01*
X12798634Y-12426960D02*
X12779586Y-12436484D01*
X12779586Y-12436484D02*
X12760539Y-12436484D01*
X12760539Y-12436484D02*
X12741491Y-12426960D01*
X12741491Y-12426960D02*
X12731967Y-12417436D01*
X12731967Y-12417436D02*
X12722443Y-12398388D01*
X12722443Y-12398388D02*
X12712920Y-12360293D01*
X12712920Y-12360293D02*
X12712920Y-12312674D01*
X12712920Y-12312674D02*
X12722443Y-12274579D01*
X12722443Y-12274579D02*
X12731967Y-12255531D01*
X12731967Y-12255531D02*
X12741491Y-12246008D01*
X12741491Y-12246008D02*
X12760539Y-12236484D01*
X12912920Y-12436484D02*
X12912920Y-12303150D01*
X12912920Y-12322198D02*
X12922443Y-12312674D01*
X12922443Y-12312674D02*
X12941491Y-12303150D01*
X12941491Y-12303150D02*
X12970063Y-12303150D01*
X12970063Y-12303150D02*
X12989110Y-12312674D01*
X12989110Y-12312674D02*
X12998634Y-12331722D01*
X12998634Y-12331722D02*
X12998634Y-12436484D01*
X12998634Y-12331722D02*
X13008158Y-12312674D01*
X13008158Y-12312674D02*
X13027205Y-12303150D01*
X13027205Y-12303150D02*
X13055777Y-12303150D01*
X13055777Y-12303150D02*
X13074824Y-12312674D01*
X13074824Y-12312674D02*
X13084348Y-12331722D01*
X13084348Y-12331722D02*
X13084348Y-12436484D01*
X13179586Y-12436484D02*
X13179586Y-12303150D01*
X13179586Y-12322198D02*
X13189110Y-12312674D01*
X13189110Y-12312674D02*
X13208158Y-12303150D01*
X13208158Y-12303150D02*
X13236729Y-12303150D01*
X13236729Y-12303150D02*
X13255777Y-12312674D01*
X13255777Y-12312674D02*
X13265301Y-12331722D01*
X13265301Y-12331722D02*
X13265301Y-12436484D01*
X13265301Y-12331722D02*
X13274824Y-12312674D01*
X13274824Y-12312674D02*
X13293872Y-12303150D01*
X13293872Y-12303150D02*
X13322443Y-12303150D01*
X13322443Y-12303150D02*
X13341491Y-12312674D01*
X13341491Y-12312674D02*
X13351015Y-12331722D01*
X13351015Y-12331722D02*
X13351015Y-12436484D01*
X13741491Y-12226960D02*
X13570063Y-12484103D01*
X13998634Y-12236484D02*
X14017682Y-12236484D01*
X14017682Y-12236484D02*
X14036729Y-12246008D01*
X14036729Y-12246008D02*
X14046253Y-12255531D01*
X14046253Y-12255531D02*
X14055777Y-12274579D01*
X14055777Y-12274579D02*
X14065301Y-12312674D01*
X14065301Y-12312674D02*
X14065301Y-12360293D01*
X14065301Y-12360293D02*
X14055777Y-12398388D01*
X14055777Y-12398388D02*
X14046253Y-12417436D01*
X14046253Y-12417436D02*
X14036729Y-12426960D01*
X14036729Y-12426960D02*
X14017682Y-12436484D01*
X14017682Y-12436484D02*
X13998634Y-12436484D01*
X13998634Y-12436484D02*
X13979586Y-12426960D01*
X13979586Y-12426960D02*
X13970063Y-12417436D01*
X13970063Y-12417436D02*
X13960539Y-12398388D01*
X13960539Y-12398388D02*
X13951015Y-12360293D01*
X13951015Y-12360293D02*
X13951015Y-12312674D01*
X13951015Y-12312674D02*
X13960539Y-12274579D01*
X13960539Y-12274579D02*
X13970063Y-12255531D01*
X13970063Y-12255531D02*
X13979586Y-12246008D01*
X13979586Y-12246008D02*
X13998634Y-12236484D01*
X14151015Y-12417436D02*
X14160539Y-12426960D01*
X14160539Y-12426960D02*
X14151015Y-12436484D01*
X14151015Y-12436484D02*
X14141491Y-12426960D01*
X14141491Y-12426960D02*
X14151015Y-12417436D01*
X14151015Y-12417436D02*
X14151015Y-12436484D01*
X14284348Y-12236484D02*
X14303396Y-12236484D01*
X14303396Y-12236484D02*
X14322444Y-12246008D01*
X14322444Y-12246008D02*
X14331967Y-12255531D01*
X14331967Y-12255531D02*
X14341491Y-12274579D01*
X14341491Y-12274579D02*
X14351015Y-12312674D01*
X14351015Y-12312674D02*
X14351015Y-12360293D01*
X14351015Y-12360293D02*
X14341491Y-12398388D01*
X14341491Y-12398388D02*
X14331967Y-12417436D01*
X14331967Y-12417436D02*
X14322444Y-12426960D01*
X14322444Y-12426960D02*
X14303396Y-12436484D01*
X14303396Y-12436484D02*
X14284348Y-12436484D01*
X14284348Y-12436484D02*
X14265301Y-12426960D01*
X14265301Y-12426960D02*
X14255777Y-12417436D01*
X14255777Y-12417436D02*
X14246253Y-12398388D01*
X14246253Y-12398388D02*
X14236729Y-12360293D01*
X14236729Y-12360293D02*
X14236729Y-12312674D01*
X14236729Y-12312674D02*
X14246253Y-12274579D01*
X14246253Y-12274579D02*
X14255777Y-12255531D01*
X14255777Y-12255531D02*
X14265301Y-12246008D01*
X14265301Y-12246008D02*
X14284348Y-12236484D01*
X14531967Y-12236484D02*
X14436729Y-12236484D01*
X14436729Y-12236484D02*
X14427206Y-12331722D01*
X14427206Y-12331722D02*
X14436729Y-12322198D01*
X14436729Y-12322198D02*
X14455777Y-12312674D01*
X14455777Y-12312674D02*
X14503396Y-12312674D01*
X14503396Y-12312674D02*
X14522444Y-12322198D01*
X14522444Y-12322198D02*
X14531967Y-12331722D01*
X14531967Y-12331722D02*
X14541491Y-12350769D01*
X14541491Y-12350769D02*
X14541491Y-12398388D01*
X14541491Y-12398388D02*
X14531967Y-12417436D01*
X14531967Y-12417436D02*
X14522444Y-12426960D01*
X14522444Y-12426960D02*
X14503396Y-12436484D01*
X14503396Y-12436484D02*
X14455777Y-12436484D01*
X14455777Y-12436484D02*
X14436729Y-12426960D01*
X14436729Y-12426960D02*
X14427206Y-12417436D01*
X14636729Y-12436484D02*
X14674825Y-12436484D01*
X14674825Y-12436484D02*
X14693872Y-12426960D01*
X14693872Y-12426960D02*
X14703396Y-12417436D01*
X14703396Y-12417436D02*
X14722444Y-12388865D01*
X14722444Y-12388865D02*
X14731967Y-12350769D01*
X14731967Y-12350769D02*
X14731967Y-12274579D01*
X14731967Y-12274579D02*
X14722444Y-12255531D01*
X14722444Y-12255531D02*
X14712920Y-12246008D01*
X14712920Y-12246008D02*
X14693872Y-12236484D01*
X14693872Y-12236484D02*
X14655777Y-12236484D01*
X14655777Y-12236484D02*
X14636729Y-12246008D01*
X14636729Y-12246008D02*
X14627206Y-12255531D01*
X14627206Y-12255531D02*
X14617682Y-12274579D01*
X14617682Y-12274579D02*
X14617682Y-12322198D01*
X14617682Y-12322198D02*
X14627206Y-12341246D01*
X14627206Y-12341246D02*
X14636729Y-12350769D01*
X14636729Y-12350769D02*
X14655777Y-12360293D01*
X14655777Y-12360293D02*
X14693872Y-12360293D01*
X14693872Y-12360293D02*
X14712920Y-12350769D01*
X14712920Y-12350769D02*
X14722444Y-12341246D01*
X14722444Y-12341246D02*
X14731967Y-12322198D01*
X14922444Y-12436484D02*
X14808158Y-12436484D01*
X14865301Y-12436484D02*
X14865301Y-12236484D01*
X14865301Y-12236484D02*
X14846253Y-12265055D01*
X14846253Y-12265055D02*
X14827206Y-12284103D01*
X14827206Y-12284103D02*
X14808158Y-12293627D01*
X14998634Y-12236484D02*
X14998634Y-12274579D01*
X15074825Y-12236484D02*
X15074825Y-12274579D01*
X15370063Y-12512674D02*
X15360539Y-12503150D01*
X15360539Y-12503150D02*
X15341491Y-12474579D01*
X15341491Y-12474579D02*
X15331968Y-12455531D01*
X15331968Y-12455531D02*
X15322444Y-12426960D01*
X15322444Y-12426960D02*
X15312920Y-12379341D01*
X15312920Y-12379341D02*
X15312920Y-12341246D01*
X15312920Y-12341246D02*
X15322444Y-12293627D01*
X15322444Y-12293627D02*
X15331968Y-12265055D01*
X15331968Y-12265055D02*
X15341491Y-12246008D01*
X15341491Y-12246008D02*
X15360539Y-12217436D01*
X15360539Y-12217436D02*
X15370063Y-12207912D01*
X15531968Y-12303150D02*
X15531968Y-12436484D01*
X15484348Y-12226960D02*
X15436729Y-12369817D01*
X15436729Y-12369817D02*
X15560539Y-12369817D01*
X15789110Y-12436484D02*
X15789110Y-12236484D01*
X15874825Y-12436484D02*
X15874825Y-12331722D01*
X15874825Y-12331722D02*
X15865301Y-12312674D01*
X15865301Y-12312674D02*
X15846253Y-12303150D01*
X15846253Y-12303150D02*
X15817682Y-12303150D01*
X15817682Y-12303150D02*
X15798634Y-12312674D01*
X15798634Y-12312674D02*
X15789110Y-12322198D01*
X15998634Y-12436484D02*
X15979587Y-12426960D01*
X15979587Y-12426960D02*
X15970063Y-12417436D01*
X15970063Y-12417436D02*
X15960539Y-12398388D01*
X15960539Y-12398388D02*
X15960539Y-12341246D01*
X15960539Y-12341246D02*
X15970063Y-12322198D01*
X15970063Y-12322198D02*
X15979587Y-12312674D01*
X15979587Y-12312674D02*
X15998634Y-12303150D01*
X15998634Y-12303150D02*
X16027206Y-12303150D01*
X16027206Y-12303150D02*
X16046253Y-12312674D01*
X16046253Y-12312674D02*
X16055777Y-12322198D01*
X16055777Y-12322198D02*
X16065301Y-12341246D01*
X16065301Y-12341246D02*
X16065301Y-12398388D01*
X16065301Y-12398388D02*
X16055777Y-12417436D01*
X16055777Y-12417436D02*
X16046253Y-12426960D01*
X16046253Y-12426960D02*
X16027206Y-12436484D01*
X16027206Y-12436484D02*
X15998634Y-12436484D01*
X16179587Y-12436484D02*
X16160539Y-12426960D01*
X16160539Y-12426960D02*
X16151015Y-12407912D01*
X16151015Y-12407912D02*
X16151015Y-12236484D01*
X16331968Y-12426960D02*
X16312920Y-12436484D01*
X16312920Y-12436484D02*
X16274825Y-12436484D01*
X16274825Y-12436484D02*
X16255777Y-12426960D01*
X16255777Y-12426960D02*
X16246253Y-12407912D01*
X16246253Y-12407912D02*
X16246253Y-12331722D01*
X16246253Y-12331722D02*
X16255777Y-12312674D01*
X16255777Y-12312674D02*
X16274825Y-12303150D01*
X16274825Y-12303150D02*
X16312920Y-12303150D01*
X16312920Y-12303150D02*
X16331968Y-12312674D01*
X16331968Y-12312674D02*
X16341491Y-12331722D01*
X16341491Y-12331722D02*
X16341491Y-12350769D01*
X16341491Y-12350769D02*
X16246253Y-12369817D01*
X16417682Y-12426960D02*
X16436730Y-12436484D01*
X16436730Y-12436484D02*
X16474825Y-12436484D01*
X16474825Y-12436484D02*
X16493872Y-12426960D01*
X16493872Y-12426960D02*
X16503396Y-12407912D01*
X16503396Y-12407912D02*
X16503396Y-12398388D01*
X16503396Y-12398388D02*
X16493872Y-12379341D01*
X16493872Y-12379341D02*
X16474825Y-12369817D01*
X16474825Y-12369817D02*
X16446253Y-12369817D01*
X16446253Y-12369817D02*
X16427206Y-12360293D01*
X16427206Y-12360293D02*
X16417682Y-12341246D01*
X16417682Y-12341246D02*
X16417682Y-12331722D01*
X16417682Y-12331722D02*
X16427206Y-12312674D01*
X16427206Y-12312674D02*
X16446253Y-12303150D01*
X16446253Y-12303150D02*
X16474825Y-12303150D01*
X16474825Y-12303150D02*
X16493872Y-12312674D01*
X16570063Y-12512674D02*
X16579587Y-12503150D01*
X16579587Y-12503150D02*
X16598634Y-12474579D01*
X16598634Y-12474579D02*
X16608158Y-12455531D01*
X16608158Y-12455531D02*
X16617682Y-12426960D01*
X16617682Y-12426960D02*
X16627206Y-12379341D01*
X16627206Y-12379341D02*
X16627206Y-12341246D01*
X16627206Y-12341246D02*
X16617682Y-12293627D01*
X16617682Y-12293627D02*
X16608158Y-12265055D01*
X16608158Y-12265055D02*
X16598634Y-12246008D01*
X16598634Y-12246008D02*
X16579587Y-12217436D01*
X16579587Y-12217436D02*
X16570063Y-12207912D01*
X16931968Y-12512674D02*
X16922444Y-12503150D01*
X16922444Y-12503150D02*
X16903396Y-12474579D01*
X16903396Y-12474579D02*
X16893873Y-12455531D01*
X16893873Y-12455531D02*
X16884349Y-12426960D01*
X16884349Y-12426960D02*
X16874825Y-12379341D01*
X16874825Y-12379341D02*
X16874825Y-12341246D01*
X16874825Y-12341246D02*
X16884349Y-12293627D01*
X16884349Y-12293627D02*
X16893873Y-12265055D01*
X16893873Y-12265055D02*
X16903396Y-12246008D01*
X16903396Y-12246008D02*
X16922444Y-12217436D01*
X16922444Y-12217436D02*
X16931968Y-12207912D01*
X17008158Y-12303150D02*
X17008158Y-12436484D01*
X17008158Y-12322198D02*
X17017682Y-12312674D01*
X17017682Y-12312674D02*
X17036730Y-12303150D01*
X17036730Y-12303150D02*
X17065301Y-12303150D01*
X17065301Y-12303150D02*
X17084349Y-12312674D01*
X17084349Y-12312674D02*
X17093873Y-12331722D01*
X17093873Y-12331722D02*
X17093873Y-12436484D01*
X17217682Y-12436484D02*
X17198634Y-12426960D01*
X17198634Y-12426960D02*
X17189111Y-12417436D01*
X17189111Y-12417436D02*
X17179587Y-12398388D01*
X17179587Y-12398388D02*
X17179587Y-12341246D01*
X17179587Y-12341246D02*
X17189111Y-12322198D01*
X17189111Y-12322198D02*
X17198634Y-12312674D01*
X17198634Y-12312674D02*
X17217682Y-12303150D01*
X17217682Y-12303150D02*
X17246254Y-12303150D01*
X17246254Y-12303150D02*
X17265301Y-12312674D01*
X17265301Y-12312674D02*
X17274825Y-12322198D01*
X17274825Y-12322198D02*
X17284349Y-12341246D01*
X17284349Y-12341246D02*
X17284349Y-12398388D01*
X17284349Y-12398388D02*
X17274825Y-12417436D01*
X17274825Y-12417436D02*
X17265301Y-12426960D01*
X17265301Y-12426960D02*
X17246254Y-12436484D01*
X17246254Y-12436484D02*
X17217682Y-12436484D01*
X17341492Y-12303150D02*
X17417682Y-12303150D01*
X17370063Y-12236484D02*
X17370063Y-12407912D01*
X17370063Y-12407912D02*
X17379587Y-12426960D01*
X17379587Y-12426960D02*
X17398634Y-12436484D01*
X17398634Y-12436484D02*
X17417682Y-12436484D01*
X17636730Y-12303150D02*
X17636730Y-12503150D01*
X17636730Y-12312674D02*
X17655777Y-12303150D01*
X17655777Y-12303150D02*
X17693873Y-12303150D01*
X17693873Y-12303150D02*
X17712920Y-12312674D01*
X17712920Y-12312674D02*
X17722444Y-12322198D01*
X17722444Y-12322198D02*
X17731968Y-12341246D01*
X17731968Y-12341246D02*
X17731968Y-12398388D01*
X17731968Y-12398388D02*
X17722444Y-12417436D01*
X17722444Y-12417436D02*
X17712920Y-12426960D01*
X17712920Y-12426960D02*
X17693873Y-12436484D01*
X17693873Y-12436484D02*
X17655777Y-12436484D01*
X17655777Y-12436484D02*
X17636730Y-12426960D01*
X17846254Y-12436484D02*
X17827206Y-12426960D01*
X17827206Y-12426960D02*
X17817682Y-12407912D01*
X17817682Y-12407912D02*
X17817682Y-12236484D01*
X18008158Y-12436484D02*
X18008158Y-12331722D01*
X18008158Y-12331722D02*
X17998635Y-12312674D01*
X17998635Y-12312674D02*
X17979587Y-12303150D01*
X17979587Y-12303150D02*
X17941492Y-12303150D01*
X17941492Y-12303150D02*
X17922444Y-12312674D01*
X18008158Y-12426960D02*
X17989111Y-12436484D01*
X17989111Y-12436484D02*
X17941492Y-12436484D01*
X17941492Y-12436484D02*
X17922444Y-12426960D01*
X17922444Y-12426960D02*
X17912920Y-12407912D01*
X17912920Y-12407912D02*
X17912920Y-12388865D01*
X17912920Y-12388865D02*
X17922444Y-12369817D01*
X17922444Y-12369817D02*
X17941492Y-12360293D01*
X17941492Y-12360293D02*
X17989111Y-12360293D01*
X17989111Y-12360293D02*
X18008158Y-12350769D01*
X18074825Y-12303150D02*
X18151015Y-12303150D01*
X18103396Y-12236484D02*
X18103396Y-12407912D01*
X18103396Y-12407912D02*
X18112920Y-12426960D01*
X18112920Y-12426960D02*
X18131968Y-12436484D01*
X18131968Y-12436484D02*
X18151015Y-12436484D01*
X18293873Y-12426960D02*
X18274825Y-12436484D01*
X18274825Y-12436484D02*
X18236730Y-12436484D01*
X18236730Y-12436484D02*
X18217682Y-12426960D01*
X18217682Y-12426960D02*
X18208158Y-12407912D01*
X18208158Y-12407912D02*
X18208158Y-12331722D01*
X18208158Y-12331722D02*
X18217682Y-12312674D01*
X18217682Y-12312674D02*
X18236730Y-12303150D01*
X18236730Y-12303150D02*
X18274825Y-12303150D01*
X18274825Y-12303150D02*
X18293873Y-12312674D01*
X18293873Y-12312674D02*
X18303396Y-12331722D01*
X18303396Y-12331722D02*
X18303396Y-12350769D01*
X18303396Y-12350769D02*
X18208158Y-12369817D01*
X18474825Y-12436484D02*
X18474825Y-12236484D01*
X18474825Y-12426960D02*
X18455777Y-12436484D01*
X18455777Y-12436484D02*
X18417682Y-12436484D01*
X18417682Y-12436484D02*
X18398635Y-12426960D01*
X18398635Y-12426960D02*
X18389111Y-12417436D01*
X18389111Y-12417436D02*
X18379587Y-12398388D01*
X18379587Y-12398388D02*
X18379587Y-12341246D01*
X18379587Y-12341246D02*
X18389111Y-12322198D01*
X18389111Y-12322198D02*
X18398635Y-12312674D01*
X18398635Y-12312674D02*
X18417682Y-12303150D01*
X18417682Y-12303150D02*
X18455777Y-12303150D01*
X18455777Y-12303150D02*
X18474825Y-12312674D01*
X18551016Y-12512674D02*
X18560539Y-12503150D01*
X18560539Y-12503150D02*
X18579587Y-12474579D01*
X18579587Y-12474579D02*
X18589111Y-12455531D01*
X18589111Y-12455531D02*
X18598635Y-12426960D01*
X18598635Y-12426960D02*
X18608158Y-12379341D01*
X18608158Y-12379341D02*
X18608158Y-12341246D01*
X18608158Y-12341246D02*
X18598635Y-12293627D01*
X18598635Y-12293627D02*
X18589111Y-12265055D01*
X18589111Y-12265055D02*
X18579587Y-12246008D01*
X18579587Y-12246008D02*
X18560539Y-12217436D01*
X18560539Y-12217436D02*
X18551016Y-12207912D01*
M02*
