%TF.GenerationSoftware,KiCad,Pcbnew,7.0.11*%
%TF.CreationDate,2024-02-25T15:21:29+01:00*%
%TF.ProjectId,EuroTap,4575726f-5461-4702-9e6b-696361645f70,rev?*%
%TF.SameCoordinates,Original*%
%TF.FileFunction,Legend,Top*%
%TF.FilePolarity,Positive*%
%FSLAX46Y46*%
G04 Gerber Fmt 4.6, Leading zero omitted, Abs format (unit mm)*
G04 Created by KiCad (PCBNEW 7.0.11) date 2024-02-25 15:21:29*
%MOMM*%
%LPD*%
G01*
G04 APERTURE LIST*
%ADD10C,0.175000*%
%ADD11C,0.120000*%
%ADD12C,0.010000*%
G04 APERTURE END LIST*
D10*
G36*
X141914885Y-100582316D02*
G01*
X141934270Y-100582580D01*
X141953396Y-100583021D01*
X141972262Y-100583638D01*
X141990869Y-100584432D01*
X142009216Y-100585401D01*
X142027304Y-100586547D01*
X142045132Y-100587870D01*
X142062701Y-100589368D01*
X142080010Y-100591043D01*
X142097060Y-100592895D01*
X142113850Y-100594922D01*
X142130380Y-100597126D01*
X142146652Y-100599506D01*
X142162663Y-100602063D01*
X142178415Y-100604796D01*
X142193845Y-100607657D01*
X142216070Y-100612103D01*
X142237194Y-100616732D01*
X142257215Y-100621544D01*
X142276135Y-100626539D01*
X142293952Y-100631718D01*
X142310667Y-100637080D01*
X142326280Y-100642625D01*
X142340791Y-100648354D01*
X142354200Y-100654266D01*
X142366507Y-100660361D01*
X142377979Y-100666587D01*
X142388729Y-100672953D01*
X142398756Y-100679461D01*
X142408061Y-100686111D01*
X142416643Y-100692901D01*
X142424502Y-100699833D01*
X142431639Y-100706906D01*
X142438053Y-100714120D01*
X142443745Y-100721476D01*
X142448714Y-100728973D01*
X142451625Y-100734049D01*
X142455558Y-100742095D01*
X142459104Y-100750973D01*
X142462263Y-100760684D01*
X142464154Y-100767620D01*
X142465874Y-100774926D01*
X142467421Y-100782603D01*
X142468796Y-100790649D01*
X142470000Y-100799065D01*
X142471031Y-100807851D01*
X142471891Y-100817008D01*
X142472579Y-100826534D01*
X142473094Y-100836430D01*
X142473438Y-100846696D01*
X142473610Y-100857333D01*
X142473632Y-100862789D01*
X142473632Y-101119415D01*
X142473538Y-101130237D01*
X142473255Y-101140690D01*
X142472785Y-101150775D01*
X142472127Y-101160491D01*
X142471280Y-101169838D01*
X142470245Y-101178817D01*
X142469022Y-101187427D01*
X142467611Y-101195668D01*
X142466012Y-101203541D01*
X142464225Y-101211045D01*
X142462249Y-101218180D01*
X142458933Y-101228192D01*
X142455194Y-101237374D01*
X142451031Y-101245727D01*
X142449549Y-101248327D01*
X142444652Y-101255943D01*
X142438835Y-101263470D01*
X142432098Y-101270906D01*
X142424442Y-101278252D01*
X142415866Y-101285508D01*
X142406371Y-101292673D01*
X142395955Y-101299749D01*
X142384620Y-101306734D01*
X142372366Y-101313630D01*
X142359192Y-101320435D01*
X142349898Y-101324921D01*
X142335455Y-101331445D01*
X142320465Y-101337618D01*
X142304928Y-101343439D01*
X142288843Y-101348908D01*
X142272210Y-101354025D01*
X142255030Y-101358791D01*
X142237303Y-101363206D01*
X142219028Y-101367268D01*
X142200206Y-101370980D01*
X142180837Y-101374339D01*
X142167620Y-101376383D01*
X142147471Y-101379164D01*
X142126884Y-101381671D01*
X142105859Y-101383904D01*
X142084396Y-101385864D01*
X142062495Y-101387551D01*
X142040156Y-101388964D01*
X142017379Y-101390103D01*
X141994165Y-101390969D01*
X141970512Y-101391562D01*
X141946422Y-101391881D01*
X141930118Y-101391942D01*
X141908954Y-101391878D01*
X141888227Y-101391688D01*
X141867938Y-101391371D01*
X141848088Y-101390926D01*
X141828675Y-101390355D01*
X141809700Y-101389658D01*
X141791163Y-101388833D01*
X141773064Y-101387881D01*
X141755403Y-101386802D01*
X141738180Y-101385597D01*
X141721394Y-101384265D01*
X141705047Y-101382805D01*
X141681347Y-101380379D01*
X141658632Y-101377666D01*
X141644036Y-101375699D01*
X141622876Y-101372461D01*
X141602527Y-101368901D01*
X141582987Y-101365020D01*
X141564257Y-101360817D01*
X141546338Y-101356292D01*
X141529229Y-101351446D01*
X141512929Y-101346279D01*
X141497440Y-101340789D01*
X141482762Y-101334979D01*
X141468893Y-101328846D01*
X141460097Y-101324579D01*
X141447602Y-101318011D01*
X141435807Y-101311386D01*
X141424713Y-101304704D01*
X141414320Y-101297964D01*
X141404627Y-101291168D01*
X141395635Y-101284314D01*
X141387344Y-101277403D01*
X141379754Y-101270435D01*
X141372864Y-101263410D01*
X141366674Y-101256328D01*
X141362937Y-101251575D01*
X141357817Y-101244040D01*
X141353201Y-101235733D01*
X141349088Y-101226654D01*
X141345479Y-101216802D01*
X141343353Y-101209804D01*
X141341450Y-101202464D01*
X141339771Y-101194780D01*
X141338317Y-101186754D01*
X141337239Y-101179426D01*
X141832543Y-101179426D01*
X141832595Y-101187713D01*
X141832751Y-101195564D01*
X141833010Y-101202978D01*
X141833374Y-101209955D01*
X141834113Y-101219601D01*
X141835086Y-101228265D01*
X141836293Y-101235946D01*
X141838265Y-101244659D01*
X141840653Y-101251625D01*
X141845012Y-101258798D01*
X141845830Y-101259611D01*
X141855935Y-101265396D01*
X141870835Y-101269288D01*
X141888105Y-101271158D01*
X141903545Y-101271579D01*
X141921046Y-101270891D01*
X141937641Y-101268423D01*
X141951969Y-101263500D01*
X141960844Y-101257217D01*
X141965783Y-101250265D01*
X141969118Y-101242176D01*
X141971275Y-101234201D01*
X141972595Y-101227344D01*
X141973659Y-101219736D01*
X141974468Y-101211376D01*
X141975022Y-101202265D01*
X141975320Y-101192402D01*
X141975376Y-101185410D01*
X141975376Y-100792179D01*
X141975328Y-100784589D01*
X141975182Y-100777379D01*
X141974780Y-100767275D01*
X141974160Y-100758025D01*
X141973321Y-100749628D01*
X141972262Y-100742085D01*
X141970511Y-100733354D01*
X141968370Y-100726142D01*
X141965146Y-100719259D01*
X141962920Y-100716268D01*
X141954668Y-100710284D01*
X141940545Y-100705596D01*
X141923690Y-100703245D01*
X141905621Y-100702591D01*
X141887918Y-100703294D01*
X141871043Y-100705821D01*
X141857750Y-100710186D01*
X141848038Y-100716389D01*
X141847076Y-100717294D01*
X141842137Y-100724407D01*
X141838802Y-100732776D01*
X141836645Y-100741071D01*
X141835325Y-100748225D01*
X141834260Y-100756178D01*
X141833451Y-100764931D01*
X141832898Y-100774482D01*
X141832600Y-100784834D01*
X141832543Y-100792179D01*
X141832543Y-101179426D01*
X141337239Y-101179426D01*
X141337086Y-101178383D01*
X141336078Y-101169670D01*
X141335295Y-101160613D01*
X141334735Y-101151213D01*
X141334400Y-101141470D01*
X141334288Y-101131383D01*
X141334288Y-100862789D01*
X141334468Y-100849638D01*
X141335008Y-100836898D01*
X141335908Y-100824570D01*
X141337168Y-100812653D01*
X141338789Y-100801147D01*
X141340769Y-100790052D01*
X141343109Y-100779369D01*
X141345810Y-100769098D01*
X141348870Y-100759238D01*
X141352291Y-100749789D01*
X141356072Y-100740752D01*
X141360213Y-100732126D01*
X141364713Y-100723911D01*
X141369574Y-100716108D01*
X141374795Y-100708716D01*
X141380376Y-100701736D01*
X141386543Y-100695045D01*
X141393417Y-100688523D01*
X141400997Y-100682169D01*
X141409286Y-100675983D01*
X141418281Y-100669966D01*
X141427983Y-100664117D01*
X141438393Y-100658436D01*
X141449509Y-100652924D01*
X141461333Y-100647580D01*
X141473864Y-100642404D01*
X141487102Y-100637396D01*
X141501048Y-100632557D01*
X141515700Y-100627886D01*
X141531060Y-100623383D01*
X141547126Y-100619049D01*
X141563900Y-100614883D01*
X141581300Y-100610929D01*
X141599142Y-100607229D01*
X141617424Y-100603785D01*
X141636147Y-100600596D01*
X141655312Y-100597662D01*
X141674918Y-100594984D01*
X141694965Y-100592560D01*
X141715453Y-100590392D01*
X141736382Y-100588478D01*
X141757753Y-100586820D01*
X141779565Y-100585417D01*
X141801817Y-100584269D01*
X141824511Y-100583376D01*
X141847646Y-100582738D01*
X141871223Y-100582355D01*
X141895240Y-100582228D01*
X141914885Y-100582316D01*
G37*
G36*
X143613391Y-100735417D02*
G01*
X143388761Y-101381000D01*
X142750579Y-101381000D01*
X142509340Y-100735417D01*
X142958600Y-100735417D01*
X143078182Y-101214817D01*
X143078574Y-101206340D01*
X143079233Y-101196809D01*
X143080157Y-101186224D01*
X143081348Y-101174585D01*
X143082804Y-101161893D01*
X143084527Y-101148146D01*
X143085488Y-101140878D01*
X143086515Y-101133346D01*
X143087609Y-101125551D01*
X143088770Y-101117492D01*
X143089997Y-101109170D01*
X143091290Y-101100584D01*
X143092650Y-101091735D01*
X143094077Y-101082622D01*
X143095569Y-101073246D01*
X143097129Y-101063606D01*
X143098755Y-101053703D01*
X143100447Y-101043537D01*
X143102206Y-101033107D01*
X143104032Y-101022413D01*
X143105924Y-101011456D01*
X143107882Y-101000236D01*
X143109907Y-100988752D01*
X143111999Y-100977005D01*
X143114157Y-100964994D01*
X143116381Y-100952720D01*
X143117710Y-100945769D01*
X143119051Y-100938828D01*
X143120403Y-100931897D01*
X143121766Y-100924977D01*
X143123141Y-100918067D01*
X143124527Y-100911168D01*
X143125924Y-100904279D01*
X143127332Y-100897400D01*
X143128752Y-100890532D01*
X143130184Y-100883674D01*
X143131627Y-100876826D01*
X143133081Y-100869989D01*
X143134546Y-100863162D01*
X143136023Y-100856345D01*
X143139010Y-100842743D01*
X143142043Y-100829182D01*
X143145122Y-100815663D01*
X143148246Y-100802185D01*
X143151415Y-100788749D01*
X143154629Y-100775354D01*
X143157890Y-100762000D01*
X143161195Y-100748688D01*
X143164546Y-100735417D01*
X143613391Y-100735417D01*
G37*
G36*
X144230112Y-100582316D02*
G01*
X144249497Y-100582580D01*
X144268623Y-100583021D01*
X144287489Y-100583638D01*
X144306096Y-100584432D01*
X144324443Y-100585401D01*
X144342531Y-100586547D01*
X144360359Y-100587870D01*
X144377928Y-100589368D01*
X144395237Y-100591043D01*
X144412286Y-100592895D01*
X144429077Y-100594922D01*
X144445607Y-100597126D01*
X144461878Y-100599506D01*
X144477890Y-100602063D01*
X144493642Y-100604796D01*
X144509072Y-100607657D01*
X144531297Y-100612103D01*
X144552421Y-100616732D01*
X144572442Y-100621544D01*
X144591362Y-100626539D01*
X144609179Y-100631718D01*
X144625894Y-100637080D01*
X144641507Y-100642625D01*
X144656018Y-100648354D01*
X144669427Y-100654266D01*
X144681734Y-100660361D01*
X144693206Y-100666587D01*
X144703956Y-100672953D01*
X144713983Y-100679461D01*
X144723287Y-100686111D01*
X144731869Y-100692901D01*
X144739729Y-100699833D01*
X144746866Y-100706906D01*
X144753280Y-100714120D01*
X144758972Y-100721476D01*
X144763941Y-100728973D01*
X144766852Y-100734049D01*
X144770785Y-100742095D01*
X144774331Y-100750973D01*
X144777490Y-100760684D01*
X144779381Y-100767620D01*
X144781100Y-100774926D01*
X144782648Y-100782603D01*
X144784023Y-100790649D01*
X144785227Y-100799065D01*
X144786258Y-100807851D01*
X144787118Y-100817008D01*
X144787806Y-100826534D01*
X144788321Y-100836430D01*
X144788665Y-100846696D01*
X144788837Y-100857333D01*
X144788859Y-100862789D01*
X144788859Y-101119415D01*
X144788764Y-101130237D01*
X144788482Y-101140690D01*
X144788012Y-101150775D01*
X144787353Y-101160491D01*
X144786507Y-101169838D01*
X144785472Y-101178817D01*
X144784249Y-101187427D01*
X144782838Y-101195668D01*
X144781239Y-101203541D01*
X144779451Y-101211045D01*
X144777476Y-101218180D01*
X144774160Y-101228192D01*
X144770420Y-101237374D01*
X144766258Y-101245727D01*
X144764776Y-101248327D01*
X144759879Y-101255943D01*
X144754062Y-101263470D01*
X144747325Y-101270906D01*
X144739669Y-101278252D01*
X144731093Y-101285508D01*
X144721597Y-101292673D01*
X144711182Y-101299749D01*
X144699847Y-101306734D01*
X144687593Y-101313630D01*
X144674419Y-101320435D01*
X144665125Y-101324921D01*
X144650682Y-101331445D01*
X144635692Y-101337618D01*
X144620154Y-101343439D01*
X144604069Y-101348908D01*
X144587437Y-101354025D01*
X144570257Y-101358791D01*
X144552530Y-101363206D01*
X144534255Y-101367268D01*
X144515433Y-101370980D01*
X144496064Y-101374339D01*
X144482847Y-101376383D01*
X144462697Y-101379164D01*
X144442110Y-101381671D01*
X144421085Y-101383904D01*
X144399622Y-101385864D01*
X144377722Y-101387551D01*
X144355383Y-101388964D01*
X144332606Y-101390103D01*
X144309392Y-101390969D01*
X144285739Y-101391562D01*
X144261649Y-101391881D01*
X144245345Y-101391942D01*
X144224180Y-101391878D01*
X144203454Y-101391688D01*
X144183165Y-101391371D01*
X144163314Y-101390926D01*
X144143902Y-101390355D01*
X144124927Y-101389658D01*
X144106390Y-101388833D01*
X144088291Y-101387881D01*
X144070630Y-101386802D01*
X144053406Y-101385597D01*
X144036621Y-101384265D01*
X144020274Y-101382805D01*
X143996574Y-101380379D01*
X143973859Y-101377666D01*
X143959263Y-101375699D01*
X143938103Y-101372461D01*
X143917753Y-101368901D01*
X143898214Y-101365020D01*
X143879484Y-101360817D01*
X143861565Y-101356292D01*
X143844455Y-101351446D01*
X143828156Y-101346279D01*
X143812667Y-101340789D01*
X143797988Y-101334979D01*
X143784120Y-101328846D01*
X143775324Y-101324579D01*
X143762829Y-101318011D01*
X143751034Y-101311386D01*
X143739940Y-101304704D01*
X143729547Y-101297964D01*
X143719854Y-101291168D01*
X143710862Y-101284314D01*
X143702571Y-101277403D01*
X143694980Y-101270435D01*
X143688090Y-101263410D01*
X143681901Y-101256328D01*
X143678164Y-101251575D01*
X143673044Y-101244040D01*
X143668428Y-101235733D01*
X143664315Y-101226654D01*
X143660706Y-101216802D01*
X143658579Y-101209804D01*
X143656677Y-101202464D01*
X143654998Y-101194780D01*
X143653543Y-101186754D01*
X143652465Y-101179426D01*
X144147770Y-101179426D01*
X144147822Y-101187713D01*
X144147978Y-101195564D01*
X144148237Y-101202978D01*
X144148600Y-101209955D01*
X144149340Y-101219601D01*
X144150313Y-101228265D01*
X144151520Y-101235946D01*
X144153492Y-101244659D01*
X144155880Y-101251625D01*
X144160239Y-101258798D01*
X144161057Y-101259611D01*
X144171162Y-101265396D01*
X144186062Y-101269288D01*
X144203332Y-101271158D01*
X144218771Y-101271579D01*
X144236273Y-101270891D01*
X144252868Y-101268423D01*
X144267196Y-101263500D01*
X144276071Y-101257217D01*
X144281009Y-101250265D01*
X144284345Y-101242176D01*
X144286502Y-101234201D01*
X144287822Y-101227344D01*
X144288886Y-101219736D01*
X144289695Y-101211376D01*
X144290248Y-101202265D01*
X144290546Y-101192402D01*
X144290603Y-101185410D01*
X144290603Y-100792179D01*
X144290554Y-100784589D01*
X144290408Y-100777379D01*
X144290007Y-100767275D01*
X144289387Y-100758025D01*
X144288547Y-100749628D01*
X144287489Y-100742085D01*
X144285737Y-100733354D01*
X144283596Y-100726142D01*
X144280373Y-100719259D01*
X144278147Y-100716268D01*
X144269894Y-100710284D01*
X144255771Y-100705596D01*
X144238916Y-100703245D01*
X144220847Y-100702591D01*
X144203144Y-100703294D01*
X144186270Y-100705821D01*
X144172977Y-100710186D01*
X144163265Y-100716389D01*
X144162302Y-100717294D01*
X144157364Y-100724407D01*
X144154029Y-100732776D01*
X144151871Y-100741071D01*
X144150552Y-100748225D01*
X144149487Y-100756178D01*
X144148678Y-100764931D01*
X144148125Y-100774482D01*
X144147827Y-100784834D01*
X144147770Y-100792179D01*
X144147770Y-101179426D01*
X143652465Y-101179426D01*
X143652312Y-101178383D01*
X143651305Y-101169670D01*
X143650522Y-101160613D01*
X143649962Y-101151213D01*
X143649626Y-101141470D01*
X143649515Y-101131383D01*
X143649515Y-100862789D01*
X143649695Y-100849638D01*
X143650235Y-100836898D01*
X143651135Y-100824570D01*
X143652395Y-100812653D01*
X143654015Y-100801147D01*
X143655996Y-100790052D01*
X143658336Y-100779369D01*
X143661037Y-100769098D01*
X143664097Y-100759238D01*
X143667518Y-100749789D01*
X143671299Y-100740752D01*
X143675439Y-100732126D01*
X143679940Y-100723911D01*
X143684801Y-100716108D01*
X143690022Y-100708716D01*
X143695603Y-100701736D01*
X143701770Y-100695045D01*
X143708643Y-100688523D01*
X143716224Y-100682169D01*
X143724512Y-100675983D01*
X143733508Y-100669966D01*
X143743210Y-100664117D01*
X143753619Y-100658436D01*
X143764736Y-100652924D01*
X143776560Y-100647580D01*
X143789091Y-100642404D01*
X143802329Y-100637396D01*
X143816274Y-100632557D01*
X143830927Y-100627886D01*
X143846286Y-100623383D01*
X143862353Y-100619049D01*
X143879127Y-100614883D01*
X143896527Y-100610929D01*
X143914368Y-100607229D01*
X143932651Y-100603785D01*
X143951374Y-100600596D01*
X143970539Y-100597662D01*
X143990145Y-100594984D01*
X144010192Y-100592560D01*
X144030680Y-100590392D01*
X144051609Y-100588478D01*
X144072980Y-100586820D01*
X144094791Y-100585417D01*
X144117044Y-100584269D01*
X144139738Y-100583376D01*
X144162873Y-100582738D01*
X144186450Y-100582355D01*
X144210467Y-100582228D01*
X144230112Y-100582316D01*
G37*
G36*
X145679075Y-100593170D02*
G01*
X145679075Y-101381000D01*
X145180404Y-101381000D01*
X145180404Y-100953745D01*
X145180365Y-100942707D01*
X145180249Y-100932243D01*
X145180054Y-100922356D01*
X145179781Y-100913044D01*
X145179431Y-100904308D01*
X145179003Y-100896147D01*
X145178497Y-100888563D01*
X145177913Y-100881553D01*
X145176891Y-100872119D01*
X145175694Y-100863980D01*
X145174322Y-100857137D01*
X145172220Y-100850027D01*
X145170439Y-100846205D01*
X145164672Y-100839201D01*
X145155725Y-100832999D01*
X145143600Y-100827598D01*
X145128295Y-100822999D01*
X145118122Y-100820731D01*
X145101879Y-100818219D01*
X145084738Y-100816516D01*
X145063913Y-100815085D01*
X145045875Y-100814191D01*
X145025765Y-100813450D01*
X145003582Y-100812863D01*
X144979326Y-100812429D01*
X144962004Y-100812224D01*
X144943760Y-100812088D01*
X144924596Y-100812020D01*
X144914668Y-100812011D01*
X144854877Y-100812011D01*
X144854877Y-100717294D01*
X144876458Y-100715330D01*
X144897708Y-100713243D01*
X144918625Y-100711032D01*
X144939211Y-100708697D01*
X144959465Y-100706239D01*
X144979388Y-100703658D01*
X144998979Y-100700953D01*
X145018238Y-100698124D01*
X145037165Y-100695172D01*
X145055761Y-100692096D01*
X145074025Y-100688897D01*
X145091957Y-100685574D01*
X145109558Y-100682127D01*
X145126827Y-100678557D01*
X145143765Y-100674864D01*
X145160370Y-100671047D01*
X145176644Y-100667106D01*
X145192587Y-100663042D01*
X145208197Y-100658854D01*
X145223476Y-100654543D01*
X145238423Y-100650108D01*
X145253039Y-100645549D01*
X145267323Y-100640867D01*
X145281275Y-100636062D01*
X145294896Y-100631133D01*
X145308184Y-100626080D01*
X145321142Y-100620904D01*
X145333767Y-100615604D01*
X145346061Y-100610181D01*
X145358023Y-100604634D01*
X145369653Y-100598964D01*
X145380952Y-100593170D01*
X145679075Y-100593170D01*
G37*
G36*
X147292177Y-101260637D02*
G01*
X147292177Y-101381000D01*
X146227571Y-101381000D01*
X146227571Y-101286453D01*
X146256138Y-101266245D01*
X146283969Y-101246527D01*
X146311063Y-101227298D01*
X146337421Y-101208558D01*
X146363042Y-101190307D01*
X146387928Y-101172545D01*
X146412076Y-101155273D01*
X146435489Y-101138489D01*
X146458165Y-101122195D01*
X146480105Y-101106390D01*
X146501308Y-101091075D01*
X146521775Y-101076248D01*
X146541506Y-101061911D01*
X146560500Y-101048063D01*
X146578758Y-101034704D01*
X146596280Y-101021834D01*
X146613065Y-101009454D01*
X146629114Y-100997563D01*
X146644427Y-100986160D01*
X146659003Y-100975248D01*
X146672843Y-100964824D01*
X146685947Y-100954890D01*
X146698314Y-100945444D01*
X146709945Y-100936488D01*
X146720839Y-100928021D01*
X146730997Y-100920044D01*
X146740419Y-100912555D01*
X146749104Y-100905556D01*
X146757053Y-100899046D01*
X146770742Y-100887493D01*
X146776482Y-100882451D01*
X146786941Y-100872970D01*
X146796724Y-100863759D01*
X146805833Y-100854820D01*
X146814267Y-100846152D01*
X146822026Y-100837755D01*
X146829111Y-100829629D01*
X146835520Y-100821775D01*
X146841256Y-100814191D01*
X146846316Y-100806879D01*
X146850702Y-100799838D01*
X146854413Y-100793068D01*
X146858714Y-100783421D01*
X146861497Y-100774385D01*
X146862762Y-100765958D01*
X146862847Y-100763285D01*
X146862483Y-100755645D01*
X146861393Y-100748539D01*
X146859009Y-100740408D01*
X146855490Y-100733111D01*
X146849767Y-100725458D01*
X146842410Y-100719006D01*
X146839595Y-100717123D01*
X146828309Y-100711460D01*
X146814799Y-100707189D01*
X146799063Y-100704308D01*
X146781102Y-100702818D01*
X146769839Y-100702591D01*
X146750748Y-100703351D01*
X146733803Y-100705634D01*
X146719004Y-100709438D01*
X146706350Y-100714764D01*
X146700083Y-100718491D01*
X146692181Y-100725633D01*
X146686845Y-100733487D01*
X146683394Y-100741013D01*
X146680669Y-100749646D01*
X146679102Y-100756846D01*
X146677944Y-100764669D01*
X146677195Y-100773113D01*
X146676854Y-100782180D01*
X146676831Y-100785340D01*
X146676831Y-100866722D01*
X146227571Y-100866722D01*
X146227571Y-100833554D01*
X146227636Y-100825601D01*
X146227831Y-100817856D01*
X146228155Y-100810320D01*
X146228609Y-100802993D01*
X146229193Y-100795873D01*
X146229907Y-100788962D01*
X146231220Y-100778987D01*
X146232826Y-100769480D01*
X146234724Y-100760442D01*
X146236913Y-100751873D01*
X146239395Y-100743772D01*
X146242168Y-100736141D01*
X146244180Y-100731314D01*
X146247802Y-100724238D01*
X146252286Y-100717180D01*
X146257631Y-100710141D01*
X146263837Y-100703120D01*
X146270905Y-100696116D01*
X146278834Y-100689131D01*
X146287624Y-100682163D01*
X146297275Y-100675214D01*
X146307787Y-100668283D01*
X146319161Y-100661369D01*
X146327222Y-100656771D01*
X146339947Y-100650006D01*
X146353366Y-100643559D01*
X146367478Y-100637431D01*
X146382283Y-100631622D01*
X146397782Y-100626131D01*
X146413974Y-100620959D01*
X146430859Y-100616105D01*
X146448438Y-100611570D01*
X146466711Y-100607354D01*
X146485676Y-100603456D01*
X146498705Y-100601034D01*
X146518915Y-100597673D01*
X146539840Y-100594643D01*
X146561481Y-100591943D01*
X146583837Y-100589574D01*
X146606908Y-100587535D01*
X146630694Y-100585827D01*
X146655196Y-100584450D01*
X146671927Y-100583715D01*
X146688977Y-100583128D01*
X146706345Y-100582687D01*
X146724030Y-100582393D01*
X146742034Y-100582246D01*
X146751154Y-100582228D01*
X146768925Y-100582287D01*
X146786426Y-100582465D01*
X146803657Y-100582761D01*
X146820618Y-100583176D01*
X146837309Y-100583709D01*
X146869881Y-100585132D01*
X146901372Y-100587029D01*
X146931783Y-100589400D01*
X146961114Y-100592245D01*
X146989365Y-100595564D01*
X147016535Y-100599357D01*
X147042625Y-100603625D01*
X147067635Y-100608367D01*
X147091565Y-100613582D01*
X147114415Y-100619273D01*
X147136184Y-100625437D01*
X147156874Y-100632075D01*
X147176483Y-100639188D01*
X147185882Y-100642922D01*
X147203832Y-100650613D01*
X147220624Y-100658555D01*
X147236258Y-100666748D01*
X147250733Y-100675193D01*
X147264051Y-100683888D01*
X147276211Y-100692835D01*
X147287212Y-100702032D01*
X147297056Y-100711481D01*
X147305741Y-100721181D01*
X147313268Y-100731132D01*
X147319638Y-100741334D01*
X147324849Y-100751787D01*
X147328902Y-100762492D01*
X147331797Y-100773447D01*
X147333534Y-100784653D01*
X147334113Y-100796111D01*
X147333792Y-100804860D01*
X147332829Y-100813668D01*
X147331223Y-100822534D01*
X147328975Y-100831459D01*
X147326085Y-100840443D01*
X147322552Y-100849486D01*
X147318377Y-100858587D01*
X147313560Y-100867748D01*
X147308101Y-100876967D01*
X147301999Y-100886244D01*
X147295255Y-100895581D01*
X147287869Y-100904976D01*
X147279840Y-100914430D01*
X147271170Y-100923943D01*
X147261856Y-100933515D01*
X147251901Y-100943145D01*
X147240496Y-100953422D01*
X147226729Y-100964973D01*
X147218960Y-100971228D01*
X147210600Y-100977801D01*
X147201651Y-100984693D01*
X147192110Y-100991904D01*
X147181980Y-100999434D01*
X147171259Y-101007282D01*
X147159948Y-101015450D01*
X147148046Y-101023937D01*
X147135554Y-101032742D01*
X147122471Y-101041866D01*
X147108799Y-101051310D01*
X147094535Y-101061072D01*
X147079682Y-101071153D01*
X147064238Y-101081553D01*
X147048204Y-101092272D01*
X147031579Y-101103310D01*
X147014364Y-101114666D01*
X146996558Y-101126342D01*
X146978162Y-101138336D01*
X146959176Y-101150649D01*
X146939599Y-101163282D01*
X146919432Y-101176233D01*
X146898675Y-101189503D01*
X146877327Y-101203092D01*
X146855389Y-101217000D01*
X146832861Y-101231226D01*
X146809742Y-101245772D01*
X146786032Y-101260637D01*
X147292177Y-101260637D01*
G37*
G36*
X148023496Y-100582316D02*
G01*
X148042882Y-100582580D01*
X148062007Y-100583021D01*
X148080874Y-100583638D01*
X148099480Y-100584432D01*
X148117827Y-100585401D01*
X148135915Y-100586547D01*
X148153743Y-100587870D01*
X148171312Y-100589368D01*
X148188621Y-100591043D01*
X148205671Y-100592895D01*
X148222461Y-100594922D01*
X148238992Y-100597126D01*
X148255263Y-100599506D01*
X148271275Y-100602063D01*
X148287027Y-100604796D01*
X148302456Y-100607657D01*
X148324682Y-100612103D01*
X148345805Y-100616732D01*
X148365827Y-100621544D01*
X148384746Y-100626539D01*
X148402563Y-100631718D01*
X148419278Y-100637080D01*
X148434892Y-100642625D01*
X148449403Y-100648354D01*
X148462811Y-100654266D01*
X148475118Y-100660361D01*
X148486590Y-100666587D01*
X148497340Y-100672953D01*
X148507367Y-100679461D01*
X148516672Y-100686111D01*
X148525254Y-100692901D01*
X148533113Y-100699833D01*
X148540250Y-100706906D01*
X148546664Y-100714120D01*
X148552356Y-100721476D01*
X148557325Y-100728973D01*
X148560237Y-100734049D01*
X148564170Y-100742095D01*
X148567715Y-100750973D01*
X148570875Y-100760684D01*
X148572766Y-100767620D01*
X148574485Y-100774926D01*
X148576032Y-100782603D01*
X148577408Y-100790649D01*
X148578611Y-100799065D01*
X148579643Y-100807851D01*
X148580502Y-100817008D01*
X148581190Y-100826534D01*
X148581706Y-100836430D01*
X148582050Y-100846696D01*
X148582222Y-100857333D01*
X148582243Y-100862789D01*
X148582243Y-101119415D01*
X148582149Y-101130237D01*
X148581867Y-101140690D01*
X148581396Y-101150775D01*
X148580738Y-101160491D01*
X148579891Y-101169838D01*
X148578856Y-101178817D01*
X148577634Y-101187427D01*
X148576222Y-101195668D01*
X148574623Y-101203541D01*
X148572836Y-101211045D01*
X148570860Y-101218180D01*
X148567544Y-101228192D01*
X148563805Y-101237374D01*
X148559642Y-101245727D01*
X148558161Y-101248327D01*
X148553263Y-101255943D01*
X148547446Y-101263470D01*
X148540710Y-101270906D01*
X148533053Y-101278252D01*
X148524477Y-101285508D01*
X148514982Y-101292673D01*
X148504567Y-101299749D01*
X148493232Y-101306734D01*
X148480977Y-101313630D01*
X148467803Y-101320435D01*
X148458510Y-101324921D01*
X148444067Y-101331445D01*
X148429077Y-101337618D01*
X148413539Y-101343439D01*
X148397454Y-101348908D01*
X148380821Y-101354025D01*
X148363642Y-101358791D01*
X148345914Y-101363206D01*
X148327640Y-101367268D01*
X148308818Y-101370980D01*
X148289448Y-101374339D01*
X148276231Y-101376383D01*
X148256082Y-101379164D01*
X148235495Y-101381671D01*
X148214470Y-101383904D01*
X148193007Y-101385864D01*
X148171106Y-101387551D01*
X148148767Y-101388964D01*
X148125991Y-101390103D01*
X148102776Y-101390969D01*
X148079123Y-101391562D01*
X148055033Y-101391881D01*
X148038729Y-101391942D01*
X148017565Y-101391878D01*
X147996838Y-101391688D01*
X147976550Y-101391371D01*
X147956699Y-101390926D01*
X147937286Y-101390355D01*
X147918311Y-101389658D01*
X147899774Y-101388833D01*
X147881675Y-101387881D01*
X147864014Y-101386802D01*
X147846791Y-101385597D01*
X147830006Y-101384265D01*
X147813658Y-101382805D01*
X147789958Y-101380379D01*
X147767243Y-101377666D01*
X147752648Y-101375699D01*
X147731488Y-101372461D01*
X147711138Y-101368901D01*
X147691598Y-101365020D01*
X147672869Y-101360817D01*
X147654949Y-101356292D01*
X147637840Y-101351446D01*
X147621541Y-101346279D01*
X147606052Y-101340789D01*
X147591373Y-101334979D01*
X147577504Y-101328846D01*
X147568709Y-101324579D01*
X147556213Y-101318011D01*
X147544419Y-101311386D01*
X147533325Y-101304704D01*
X147522931Y-101297964D01*
X147513239Y-101291168D01*
X147504247Y-101284314D01*
X147495955Y-101277403D01*
X147488365Y-101270435D01*
X147481475Y-101263410D01*
X147475286Y-101256328D01*
X147471549Y-101251575D01*
X147466429Y-101244040D01*
X147461812Y-101235733D01*
X147457699Y-101226654D01*
X147454090Y-101216802D01*
X147451964Y-101209804D01*
X147450061Y-101202464D01*
X147448383Y-101194780D01*
X147446928Y-101186754D01*
X147445850Y-101179426D01*
X147941154Y-101179426D01*
X147941206Y-101187713D01*
X147941362Y-101195564D01*
X147941622Y-101202978D01*
X147941985Y-101209955D01*
X147942724Y-101219601D01*
X147943698Y-101228265D01*
X147944904Y-101235946D01*
X147946877Y-101244659D01*
X147949264Y-101251625D01*
X147953624Y-101258798D01*
X147954441Y-101259611D01*
X147964546Y-101265396D01*
X147979446Y-101269288D01*
X147996717Y-101271158D01*
X148012156Y-101271579D01*
X148029657Y-101270891D01*
X148046253Y-101268423D01*
X148060580Y-101263500D01*
X148069455Y-101257217D01*
X148074394Y-101250265D01*
X148077729Y-101242176D01*
X148079886Y-101234201D01*
X148081206Y-101227344D01*
X148082270Y-101219736D01*
X148083079Y-101211376D01*
X148083633Y-101202265D01*
X148083931Y-101192402D01*
X148083988Y-101185410D01*
X148083988Y-100792179D01*
X148083939Y-100784589D01*
X148083793Y-100777379D01*
X148083392Y-100767275D01*
X148082771Y-100758025D01*
X148081932Y-100749628D01*
X148080874Y-100742085D01*
X148079122Y-100733354D01*
X148076981Y-100726142D01*
X148073757Y-100719259D01*
X148071531Y-100716268D01*
X148063279Y-100710284D01*
X148049156Y-100705596D01*
X148032301Y-100703245D01*
X148014232Y-100702591D01*
X147996529Y-100703294D01*
X147979654Y-100705821D01*
X147966361Y-100710186D01*
X147956649Y-100716389D01*
X147955687Y-100717294D01*
X147950748Y-100724407D01*
X147947413Y-100732776D01*
X147945256Y-100741071D01*
X147943936Y-100748225D01*
X147942872Y-100756178D01*
X147942063Y-100764931D01*
X147941509Y-100774482D01*
X147941211Y-100784834D01*
X147941154Y-100792179D01*
X147941154Y-101179426D01*
X147445850Y-101179426D01*
X147445697Y-101178383D01*
X147444690Y-101169670D01*
X147443906Y-101160613D01*
X147443347Y-101151213D01*
X147443011Y-101141470D01*
X147442899Y-101131383D01*
X147442899Y-100862789D01*
X147443079Y-100849638D01*
X147443619Y-100836898D01*
X147444519Y-100824570D01*
X147445780Y-100812653D01*
X147447400Y-100801147D01*
X147449380Y-100790052D01*
X147451721Y-100779369D01*
X147454421Y-100769098D01*
X147457482Y-100759238D01*
X147460902Y-100749789D01*
X147464683Y-100740752D01*
X147468824Y-100732126D01*
X147473325Y-100723911D01*
X147478186Y-100716108D01*
X147483407Y-100708716D01*
X147488988Y-100701736D01*
X147495154Y-100695045D01*
X147502028Y-100688523D01*
X147509609Y-100682169D01*
X147517897Y-100675983D01*
X147526892Y-100669966D01*
X147536594Y-100664117D01*
X147547004Y-100658436D01*
X147558121Y-100652924D01*
X147569944Y-100647580D01*
X147582475Y-100642404D01*
X147595714Y-100637396D01*
X147609659Y-100632557D01*
X147624311Y-100627886D01*
X147639671Y-100623383D01*
X147655738Y-100619049D01*
X147672512Y-100614883D01*
X147689912Y-100610929D01*
X147707753Y-100607229D01*
X147726035Y-100603785D01*
X147744759Y-100600596D01*
X147763923Y-100597662D01*
X147783529Y-100594984D01*
X147803576Y-100592560D01*
X147824064Y-100590392D01*
X147844994Y-100588478D01*
X147866364Y-100586820D01*
X147888176Y-100585417D01*
X147910429Y-100584269D01*
X147933123Y-100583376D01*
X147956258Y-100582738D01*
X147979834Y-100582355D01*
X148003852Y-100582228D01*
X148023496Y-100582316D01*
G37*
G36*
X149761863Y-101260637D02*
G01*
X149761863Y-101381000D01*
X148697257Y-101381000D01*
X148697257Y-101286453D01*
X148725824Y-101266245D01*
X148753655Y-101246527D01*
X148780749Y-101227298D01*
X148807107Y-101208558D01*
X148832728Y-101190307D01*
X148857613Y-101172545D01*
X148881762Y-101155273D01*
X148905175Y-101138489D01*
X148927851Y-101122195D01*
X148949791Y-101106390D01*
X148970994Y-101091075D01*
X148991461Y-101076248D01*
X149011192Y-101061911D01*
X149030186Y-101048063D01*
X149048444Y-101034704D01*
X149065966Y-101021834D01*
X149082751Y-101009454D01*
X149098800Y-100997563D01*
X149114113Y-100986160D01*
X149128689Y-100975248D01*
X149142529Y-100964824D01*
X149155633Y-100954890D01*
X149168000Y-100945444D01*
X149179631Y-100936488D01*
X149190525Y-100928021D01*
X149200683Y-100920044D01*
X149210105Y-100912555D01*
X149218790Y-100905556D01*
X149226739Y-100899046D01*
X149240428Y-100887493D01*
X149246168Y-100882451D01*
X149256627Y-100872970D01*
X149266410Y-100863759D01*
X149275519Y-100854820D01*
X149283953Y-100846152D01*
X149291712Y-100837755D01*
X149298797Y-100829629D01*
X149305206Y-100821775D01*
X149310942Y-100814191D01*
X149316002Y-100806879D01*
X149320388Y-100799838D01*
X149324099Y-100793068D01*
X149328400Y-100783421D01*
X149331183Y-100774385D01*
X149332448Y-100765958D01*
X149332533Y-100763285D01*
X149332169Y-100755645D01*
X149331079Y-100748539D01*
X149328695Y-100740408D01*
X149325176Y-100733111D01*
X149319453Y-100725458D01*
X149312096Y-100719006D01*
X149309281Y-100717123D01*
X149297995Y-100711460D01*
X149284485Y-100707189D01*
X149268749Y-100704308D01*
X149250788Y-100702818D01*
X149239525Y-100702591D01*
X149220434Y-100703351D01*
X149203489Y-100705634D01*
X149188690Y-100709438D01*
X149176036Y-100714764D01*
X149169769Y-100718491D01*
X149161867Y-100725633D01*
X149156531Y-100733487D01*
X149153080Y-100741013D01*
X149150355Y-100749646D01*
X149148788Y-100756846D01*
X149147630Y-100764669D01*
X149146881Y-100773113D01*
X149146540Y-100782180D01*
X149146517Y-100785340D01*
X149146517Y-100866722D01*
X148697257Y-100866722D01*
X148697257Y-100833554D01*
X148697322Y-100825601D01*
X148697517Y-100817856D01*
X148697841Y-100810320D01*
X148698295Y-100802993D01*
X148698879Y-100795873D01*
X148699593Y-100788962D01*
X148700906Y-100778987D01*
X148702512Y-100769480D01*
X148704410Y-100760442D01*
X148706599Y-100751873D01*
X148709081Y-100743772D01*
X148711854Y-100736141D01*
X148713866Y-100731314D01*
X148717488Y-100724238D01*
X148721972Y-100717180D01*
X148727317Y-100710141D01*
X148733523Y-100703120D01*
X148740591Y-100696116D01*
X148748520Y-100689131D01*
X148757310Y-100682163D01*
X148766961Y-100675214D01*
X148777473Y-100668283D01*
X148788847Y-100661369D01*
X148796908Y-100656771D01*
X148809633Y-100650006D01*
X148823052Y-100643559D01*
X148837164Y-100637431D01*
X148851969Y-100631622D01*
X148867468Y-100626131D01*
X148883660Y-100620959D01*
X148900545Y-100616105D01*
X148918124Y-100611570D01*
X148936396Y-100607354D01*
X148955362Y-100603456D01*
X148968391Y-100601034D01*
X148988601Y-100597673D01*
X149009526Y-100594643D01*
X149031167Y-100591943D01*
X149053523Y-100589574D01*
X149076594Y-100587535D01*
X149100380Y-100585827D01*
X149124882Y-100584450D01*
X149141613Y-100583715D01*
X149158663Y-100583128D01*
X149176031Y-100582687D01*
X149193716Y-100582393D01*
X149211719Y-100582246D01*
X149220840Y-100582228D01*
X149238611Y-100582287D01*
X149256112Y-100582465D01*
X149273343Y-100582761D01*
X149290304Y-100583176D01*
X149306995Y-100583709D01*
X149339567Y-100585132D01*
X149371058Y-100587029D01*
X149401469Y-100589400D01*
X149430800Y-100592245D01*
X149459051Y-100595564D01*
X149486221Y-100599357D01*
X149512311Y-100603625D01*
X149537321Y-100608367D01*
X149561251Y-100613582D01*
X149584101Y-100619273D01*
X149605870Y-100625437D01*
X149626560Y-100632075D01*
X149646169Y-100639188D01*
X149655568Y-100642922D01*
X149673518Y-100650613D01*
X149690310Y-100658555D01*
X149705944Y-100666748D01*
X149720419Y-100675193D01*
X149733737Y-100683888D01*
X149745896Y-100692835D01*
X149756898Y-100702032D01*
X149766741Y-100711481D01*
X149775427Y-100721181D01*
X149782954Y-100731132D01*
X149789324Y-100741334D01*
X149794535Y-100751787D01*
X149798588Y-100762492D01*
X149801483Y-100773447D01*
X149803220Y-100784653D01*
X149803799Y-100796111D01*
X149803478Y-100804860D01*
X149802515Y-100813668D01*
X149800909Y-100822534D01*
X149798661Y-100831459D01*
X149795771Y-100840443D01*
X149792238Y-100849486D01*
X149788063Y-100858587D01*
X149783246Y-100867748D01*
X149777787Y-100876967D01*
X149771685Y-100886244D01*
X149764941Y-100895581D01*
X149757555Y-100904976D01*
X149749526Y-100914430D01*
X149740856Y-100923943D01*
X149731542Y-100933515D01*
X149721587Y-100943145D01*
X149710182Y-100953422D01*
X149696415Y-100964973D01*
X149688646Y-100971228D01*
X149680286Y-100977801D01*
X149671337Y-100984693D01*
X149661796Y-100991904D01*
X149651666Y-100999434D01*
X149640945Y-101007282D01*
X149629634Y-101015450D01*
X149617732Y-101023937D01*
X149605240Y-101032742D01*
X149592157Y-101041866D01*
X149578485Y-101051310D01*
X149564221Y-101061072D01*
X149549368Y-101071153D01*
X149533924Y-101081553D01*
X149517889Y-101092272D01*
X149501265Y-101103310D01*
X149484050Y-101114666D01*
X149466244Y-101126342D01*
X149447848Y-101138336D01*
X149428862Y-101150649D01*
X149409285Y-101163282D01*
X149389118Y-101176233D01*
X149368361Y-101189503D01*
X149347013Y-101203092D01*
X149325075Y-101217000D01*
X149302546Y-101231226D01*
X149279428Y-101245772D01*
X149255718Y-101260637D01*
X149761863Y-101260637D01*
G37*
G36*
X150853042Y-101096505D02*
G01*
X150987156Y-101096505D01*
X150987156Y-101238752D01*
X150853042Y-101238752D01*
X150853042Y-101381000D01*
X150354787Y-101381000D01*
X150354787Y-101238752D01*
X149794249Y-101238752D01*
X149794249Y-101101122D01*
X149797985Y-101096505D01*
X150177076Y-101096505D01*
X150354787Y-101096505D01*
X150368073Y-100770637D01*
X150177076Y-101096505D01*
X149797985Y-101096505D01*
X150205310Y-100593170D01*
X150853042Y-100593170D01*
X150853042Y-101096505D01*
G37*
G36*
X120347990Y-100593170D02*
G01*
X121194609Y-100593170D01*
X121194609Y-100757301D01*
X120866175Y-100757301D01*
X120866175Y-100888606D01*
X121173433Y-100888606D01*
X121173433Y-101052737D01*
X120866175Y-101052737D01*
X120866175Y-101216868D01*
X121226995Y-101216868D01*
X121226995Y-101381000D01*
X120347990Y-101381000D01*
X120347990Y-100593170D01*
G37*
G36*
X122429036Y-100735417D02*
G01*
X122429036Y-101381000D01*
X121921646Y-101381000D01*
X121927459Y-101342873D01*
X121917056Y-101348639D01*
X121902975Y-101354526D01*
X121888430Y-101359523D01*
X121874955Y-101363581D01*
X121859845Y-101367692D01*
X121843101Y-101371857D01*
X121829469Y-101375016D01*
X121810441Y-101378983D01*
X121790725Y-101382421D01*
X121770321Y-101385330D01*
X121749229Y-101387710D01*
X121732959Y-101389148D01*
X121716303Y-101390289D01*
X121699259Y-101391132D01*
X121681829Y-101391677D01*
X121664011Y-101391925D01*
X121657986Y-101391942D01*
X121637751Y-101391802D01*
X121618150Y-101391383D01*
X121599185Y-101390684D01*
X121580854Y-101389706D01*
X121563158Y-101388448D01*
X121546098Y-101386911D01*
X121529672Y-101385094D01*
X121508759Y-101382237D01*
X121488975Y-101378883D01*
X121474877Y-101376041D01*
X121457205Y-101371861D01*
X121440726Y-101367354D01*
X121425441Y-101362521D01*
X121411350Y-101357363D01*
X121398452Y-101351879D01*
X121386748Y-101346068D01*
X121376238Y-101339932D01*
X121366922Y-101333470D01*
X121358618Y-101326818D01*
X121351144Y-101320113D01*
X121344501Y-101313354D01*
X121338688Y-101306542D01*
X121333705Y-101299677D01*
X121329553Y-101292758D01*
X121326231Y-101285785D01*
X121323740Y-101278759D01*
X121321794Y-101270865D01*
X121320504Y-101263840D01*
X121319361Y-101255869D01*
X121318363Y-101246951D01*
X121317512Y-101237086D01*
X121317025Y-101229983D01*
X121316603Y-101222460D01*
X121316247Y-101214515D01*
X121315955Y-101206151D01*
X121315728Y-101197365D01*
X121315565Y-101188159D01*
X121315468Y-101178532D01*
X121315436Y-101168484D01*
X121315436Y-100735417D01*
X121813691Y-100735417D01*
X121813691Y-101174639D01*
X121813727Y-101183607D01*
X121813834Y-101192091D01*
X121814012Y-101200090D01*
X121814262Y-101207604D01*
X121814583Y-101214633D01*
X121815199Y-101224268D01*
X121815975Y-101232811D01*
X121816911Y-101240264D01*
X121818410Y-101248504D01*
X121820685Y-101256077D01*
X121822826Y-101259953D01*
X121831535Y-101266084D01*
X121846246Y-101269944D01*
X121864617Y-101271477D01*
X121871821Y-101271579D01*
X121888721Y-101271006D01*
X121905661Y-101268587D01*
X121918166Y-101263678D01*
X121922477Y-101259611D01*
X121925299Y-101252757D01*
X121926856Y-101245629D01*
X121928154Y-101236456D01*
X121928956Y-101228233D01*
X121929613Y-101218859D01*
X121929970Y-101211970D01*
X121930262Y-101204569D01*
X121930489Y-101196657D01*
X121930651Y-101188234D01*
X121930749Y-101179298D01*
X121930781Y-101169852D01*
X121930781Y-100735417D01*
X122429036Y-100735417D01*
G37*
G36*
X123064312Y-100735417D02*
G01*
X123031095Y-100832357D01*
X123043258Y-100819973D01*
X123056391Y-100808338D01*
X123070493Y-100797453D01*
X123085566Y-100787317D01*
X123101608Y-100777930D01*
X123118621Y-100769293D01*
X123136603Y-100761405D01*
X123155555Y-100754266D01*
X123175477Y-100747877D01*
X123196369Y-100742237D01*
X123218231Y-100737346D01*
X123241063Y-100733205D01*
X123264865Y-100729813D01*
X123289636Y-100727170D01*
X123315378Y-100725277D01*
X123342090Y-100724133D01*
X123342090Y-100965200D01*
X123324973Y-100965252D01*
X123300509Y-100965522D01*
X123277498Y-100966023D01*
X123255939Y-100966756D01*
X123235832Y-100967720D01*
X123217178Y-100968916D01*
X123199976Y-100970343D01*
X123179300Y-100972606D01*
X123161206Y-100975280D01*
X123145694Y-100978365D01*
X123129102Y-100982738D01*
X123114618Y-100987628D01*
X123102242Y-100993036D01*
X123091976Y-100998962D01*
X123083817Y-101005405D01*
X123077768Y-101012365D01*
X123075938Y-101015295D01*
X123072921Y-101022232D01*
X123070307Y-101031248D01*
X123068610Y-101039374D01*
X123067139Y-101048669D01*
X123066284Y-101055515D01*
X123065530Y-101062881D01*
X123064877Y-101070766D01*
X123064323Y-101079171D01*
X123063871Y-101088096D01*
X123063519Y-101097540D01*
X123063268Y-101107504D01*
X123063117Y-101117987D01*
X123063066Y-101128990D01*
X123063066Y-101381000D01*
X122564811Y-101381000D01*
X122564811Y-100735417D01*
X123064312Y-100735417D01*
G37*
G36*
X123961256Y-100724552D02*
G01*
X123980920Y-100724785D01*
X124000234Y-100725172D01*
X124019198Y-100725714D01*
X124037811Y-100726411D01*
X124056074Y-100727264D01*
X124073986Y-100728271D01*
X124091549Y-100729433D01*
X124108761Y-100730750D01*
X124125622Y-100732222D01*
X124142133Y-100733849D01*
X124158294Y-100735631D01*
X124181879Y-100738594D01*
X124204675Y-100741906D01*
X124219434Y-100744307D01*
X124240844Y-100748103D01*
X124261319Y-100752119D01*
X124280860Y-100756354D01*
X124299467Y-100760809D01*
X124317139Y-100765482D01*
X124333877Y-100770375D01*
X124349681Y-100775488D01*
X124364551Y-100780820D01*
X124378487Y-100786371D01*
X124391488Y-100792142D01*
X124399637Y-100796111D01*
X124411268Y-100802124D01*
X124422185Y-100808173D01*
X124432386Y-100814257D01*
X124441872Y-100820378D01*
X124450642Y-100826535D01*
X124458697Y-100832728D01*
X124466037Y-100838957D01*
X124474711Y-100847319D01*
X124482114Y-100855744D01*
X124486831Y-100862106D01*
X124491061Y-100868752D01*
X124494874Y-100875996D01*
X124498272Y-100883839D01*
X124501253Y-100892279D01*
X124503819Y-100901318D01*
X124505968Y-100910954D01*
X124507702Y-100921189D01*
X124508626Y-100928344D01*
X124509366Y-100935765D01*
X124509921Y-100943452D01*
X124510290Y-100951405D01*
X124510475Y-100959624D01*
X124510498Y-100963833D01*
X124510498Y-101119073D01*
X124510414Y-101129647D01*
X124510161Y-101139868D01*
X124509739Y-101149736D01*
X124509149Y-101159251D01*
X124508390Y-101168414D01*
X124507462Y-101177225D01*
X124506366Y-101185682D01*
X124505101Y-101193787D01*
X124503667Y-101201540D01*
X124502064Y-101208940D01*
X124500293Y-101215987D01*
X124497320Y-101225896D01*
X124493968Y-101235012D01*
X124490236Y-101243335D01*
X124488907Y-101245933D01*
X124484495Y-101253519D01*
X124479200Y-101261018D01*
X124473022Y-101268430D01*
X124465960Y-101275754D01*
X124458016Y-101282991D01*
X124449188Y-101290142D01*
X124439477Y-101297205D01*
X124428883Y-101304181D01*
X124417406Y-101311069D01*
X124405046Y-101317871D01*
X124396315Y-101322357D01*
X124382652Y-101328891D01*
X124368288Y-101335095D01*
X124353224Y-101340969D01*
X124337459Y-101346512D01*
X124320993Y-101351724D01*
X124303826Y-101356606D01*
X124285959Y-101361157D01*
X124267391Y-101365377D01*
X124248123Y-101369267D01*
X124228154Y-101372826D01*
X124214452Y-101375016D01*
X124193458Y-101378040D01*
X124171896Y-101380768D01*
X124149764Y-101383198D01*
X124127062Y-101385330D01*
X124103792Y-101387165D01*
X124079952Y-101388702D01*
X124055543Y-101389942D01*
X124038954Y-101390603D01*
X124022112Y-101391132D01*
X124005017Y-101391528D01*
X123987668Y-101391793D01*
X123970067Y-101391925D01*
X123961172Y-101391942D01*
X123941530Y-101391885D01*
X123922259Y-101391717D01*
X123903357Y-101391437D01*
X123884825Y-101391044D01*
X123866662Y-101390539D01*
X123848870Y-101389922D01*
X123831447Y-101389193D01*
X123814394Y-101388351D01*
X123797711Y-101387398D01*
X123773380Y-101385757D01*
X123749880Y-101383863D01*
X123727213Y-101381717D01*
X123705378Y-101379319D01*
X123691284Y-101377580D01*
X123670850Y-101374725D01*
X123651277Y-101371608D01*
X123632566Y-101368229D01*
X123614716Y-101364589D01*
X123597727Y-101360688D01*
X123581599Y-101356525D01*
X123566333Y-101352100D01*
X123551928Y-101347415D01*
X123538384Y-101342467D01*
X123525701Y-101337259D01*
X123517725Y-101333641D01*
X123506361Y-101327993D01*
X123495624Y-101322140D01*
X123485516Y-101316084D01*
X123476035Y-101309823D01*
X123467181Y-101303357D01*
X123458956Y-101296687D01*
X123451358Y-101289813D01*
X123444388Y-101282734D01*
X123438045Y-101275452D01*
X123432330Y-101267964D01*
X123428869Y-101262859D01*
X123424194Y-101254750D01*
X123419979Y-101245937D01*
X123416224Y-101236421D01*
X123412929Y-101226202D01*
X123410987Y-101218999D01*
X123409250Y-101211483D01*
X123407794Y-101204046D01*
X123900966Y-101204046D01*
X123901068Y-101212092D01*
X123901375Y-101219561D01*
X123901886Y-101226453D01*
X123902885Y-101234745D01*
X123904247Y-101242012D01*
X123906461Y-101249652D01*
X123909867Y-101256704D01*
X123912592Y-101260124D01*
X123922064Y-101266164D01*
X123936979Y-101270225D01*
X123954626Y-101271568D01*
X123956605Y-101271579D01*
X123973548Y-101270754D01*
X123989530Y-101267505D01*
X124000310Y-101261791D01*
X124001032Y-101261150D01*
X124005937Y-101254065D01*
X124008696Y-101246297D01*
X124010393Y-101238217D01*
X124011356Y-101230701D01*
X124011969Y-101222250D01*
X124012199Y-101215298D01*
X124012243Y-101210371D01*
X124012243Y-100914251D01*
X124012148Y-100905542D01*
X124011864Y-100897494D01*
X124011389Y-100890107D01*
X124010461Y-100881286D01*
X124009196Y-100873640D01*
X124007140Y-100865736D01*
X124003978Y-100858675D01*
X124001448Y-100855438D01*
X123991613Y-100849403D01*
X123976381Y-100845873D01*
X123959904Y-100844848D01*
X123957850Y-100844838D01*
X123940841Y-100845690D01*
X123924601Y-100849045D01*
X123913365Y-100854946D01*
X123912592Y-100855609D01*
X123907506Y-100863249D01*
X123905065Y-100870401D01*
X123903521Y-100877439D01*
X123902340Y-100885647D01*
X123901693Y-100892570D01*
X123901250Y-100900152D01*
X123901011Y-100908392D01*
X123900966Y-100914251D01*
X123900966Y-101204046D01*
X123407794Y-101204046D01*
X123407717Y-101203654D01*
X123406389Y-101195513D01*
X123405265Y-101187059D01*
X123404345Y-101178293D01*
X123403630Y-101169214D01*
X123403119Y-101159823D01*
X123402813Y-101150119D01*
X123402711Y-101140103D01*
X123402711Y-100977681D01*
X123402897Y-100966675D01*
X123403457Y-100955968D01*
X123404389Y-100945560D01*
X123405695Y-100935452D01*
X123407374Y-100925642D01*
X123409425Y-100916132D01*
X123411850Y-100906921D01*
X123414648Y-100898009D01*
X123417819Y-100889397D01*
X123421363Y-100881083D01*
X123425280Y-100873069D01*
X123429570Y-100865354D01*
X123434233Y-100857938D01*
X123439269Y-100850822D01*
X123444678Y-100844004D01*
X123450460Y-100837486D01*
X123460166Y-100828078D01*
X123471222Y-100819025D01*
X123483629Y-100810327D01*
X123497386Y-100801983D01*
X123512493Y-100793994D01*
X123528950Y-100786359D01*
X123540672Y-100781467D01*
X123552993Y-100776731D01*
X123565915Y-100772154D01*
X123579437Y-100767734D01*
X123593559Y-100763472D01*
X123608281Y-100759367D01*
X123623604Y-100755420D01*
X123639491Y-100751673D01*
X123655906Y-100748167D01*
X123672850Y-100744904D01*
X123690323Y-100741882D01*
X123708325Y-100739101D01*
X123726856Y-100736563D01*
X123745915Y-100734266D01*
X123765503Y-100732211D01*
X123785620Y-100730398D01*
X123806265Y-100728826D01*
X123827439Y-100727497D01*
X123849142Y-100726409D01*
X123871374Y-100725563D01*
X123894134Y-100724958D01*
X123917424Y-100724596D01*
X123941242Y-100724475D01*
X123961256Y-100724552D01*
G37*
G36*
X125663129Y-100593170D02*
G01*
X125663129Y-100757301D01*
X125371235Y-100757301D01*
X125371235Y-101381000D01*
X124853049Y-101381000D01*
X124853049Y-100757301D01*
X124562400Y-100757301D01*
X124562400Y-100593170D01*
X125663129Y-100593170D01*
G37*
G36*
X126183500Y-100724614D02*
G01*
X126212579Y-100725033D01*
X126240734Y-100725731D01*
X126267965Y-100726708D01*
X126294271Y-100727964D01*
X126319652Y-100729500D01*
X126344109Y-100731314D01*
X126367642Y-100733408D01*
X126390250Y-100735781D01*
X126411933Y-100738433D01*
X126432692Y-100741364D01*
X126452527Y-100744574D01*
X126471437Y-100748064D01*
X126489422Y-100751833D01*
X126506483Y-100755880D01*
X126522620Y-100760207D01*
X126537902Y-100764737D01*
X126552398Y-100769392D01*
X126566110Y-100774172D01*
X126579037Y-100779078D01*
X126591179Y-100784110D01*
X126602535Y-100789267D01*
X126613107Y-100794550D01*
X126627493Y-100802709D01*
X126640112Y-100811151D01*
X126650965Y-100819876D01*
X126660052Y-100828883D01*
X126667373Y-100838172D01*
X126672927Y-100847744D01*
X126675994Y-100854634D01*
X126678863Y-100862351D01*
X126681534Y-100870897D01*
X126684008Y-100880271D01*
X126686283Y-100890473D01*
X126688361Y-100901503D01*
X126690241Y-100913362D01*
X126691923Y-100926048D01*
X126693407Y-100939563D01*
X126694075Y-100946631D01*
X126694693Y-100953906D01*
X126695262Y-100961388D01*
X126695781Y-100969077D01*
X126696251Y-100976973D01*
X126696672Y-100985076D01*
X126697043Y-100993386D01*
X126697364Y-101001903D01*
X126697637Y-101010627D01*
X126697859Y-101019558D01*
X126698032Y-101028696D01*
X126698156Y-101038042D01*
X126698230Y-101047594D01*
X126698255Y-101057353D01*
X126698255Y-101381000D01*
X126212871Y-101381000D01*
X126212871Y-101340138D01*
X126203587Y-101346172D01*
X126190683Y-101352351D01*
X126177164Y-101357611D01*
X126161132Y-101362970D01*
X126146495Y-101367330D01*
X126130250Y-101371754D01*
X126121524Y-101373990D01*
X126103248Y-101378197D01*
X126084129Y-101381844D01*
X126064167Y-101384929D01*
X126043360Y-101387454D01*
X126021711Y-101389417D01*
X126004920Y-101390522D01*
X125987655Y-101391310D01*
X125969916Y-101391784D01*
X125951702Y-101391942D01*
X125927899Y-101391677D01*
X125904446Y-101390884D01*
X125881343Y-101389561D01*
X125858591Y-101387710D01*
X125836189Y-101385330D01*
X125814137Y-101382421D01*
X125792436Y-101378983D01*
X125771085Y-101375016D01*
X125750084Y-101370520D01*
X125729434Y-101365495D01*
X125715861Y-101361851D01*
X125696569Y-101355594D01*
X125684761Y-101350740D01*
X125673797Y-101345340D01*
X125663676Y-101339394D01*
X125654398Y-101332901D01*
X125645964Y-101325862D01*
X125638374Y-101318276D01*
X125631627Y-101310144D01*
X125625723Y-101301466D01*
X125620662Y-101292242D01*
X125616445Y-101282471D01*
X125613072Y-101272154D01*
X125610542Y-101261291D01*
X125608855Y-101249881D01*
X125608011Y-101237925D01*
X125607906Y-101231743D01*
X125607906Y-101196352D01*
X126077096Y-101196352D01*
X126077213Y-101205356D01*
X126077564Y-101213711D01*
X126078148Y-101221416D01*
X126078965Y-101228473D01*
X126080418Y-101236872D01*
X126082287Y-101244117D01*
X126085206Y-101251550D01*
X126090383Y-101258927D01*
X126099996Y-101265043D01*
X126113418Y-101269157D01*
X126130650Y-101271270D01*
X126141870Y-101271579D01*
X126160186Y-101270835D01*
X126175837Y-101268264D01*
X126187340Y-101263314D01*
X126188789Y-101262175D01*
X126193693Y-101254963D01*
X126196047Y-101247991D01*
X126197536Y-101241049D01*
X126198675Y-101232895D01*
X126199299Y-101225983D01*
X126199726Y-101218389D01*
X126199956Y-101210113D01*
X126200000Y-101204217D01*
X126200000Y-101080092D01*
X126183970Y-101085210D01*
X126169204Y-101090240D01*
X126155700Y-101095184D01*
X126143459Y-101100040D01*
X126129102Y-101106379D01*
X126116989Y-101112563D01*
X126107122Y-101118593D01*
X126097944Y-101125911D01*
X126094120Y-101130187D01*
X126089216Y-101137752D01*
X126085891Y-101144544D01*
X126083098Y-101151994D01*
X126080837Y-101160100D01*
X126079108Y-101168864D01*
X126078160Y-101175868D01*
X126077512Y-101183241D01*
X126077163Y-101190984D01*
X126077096Y-101196352D01*
X125607906Y-101196352D01*
X125607906Y-101178913D01*
X125608130Y-101169842D01*
X125608801Y-101161135D01*
X125609920Y-101152793D01*
X125611487Y-101144815D01*
X125613502Y-101137202D01*
X125615964Y-101129954D01*
X125618873Y-101123071D01*
X125624077Y-101113429D01*
X125630289Y-101104608D01*
X125637507Y-101096607D01*
X125645733Y-101089427D01*
X125654965Y-101083067D01*
X125665205Y-101077528D01*
X125677457Y-101072299D01*
X125692570Y-101066935D01*
X125710545Y-101061436D01*
X125731380Y-101055801D01*
X125746860Y-101051970D01*
X125763611Y-101048078D01*
X125781634Y-101044127D01*
X125800928Y-101040115D01*
X125821494Y-101036043D01*
X125843332Y-101031911D01*
X125866441Y-101027719D01*
X125890822Y-101023467D01*
X125916474Y-101019154D01*
X125943398Y-101014782D01*
X125971008Y-101010265D01*
X125996954Y-101005947D01*
X126021236Y-101001829D01*
X126043854Y-100997909D01*
X126064807Y-100994189D01*
X126084097Y-100990667D01*
X126101722Y-100987344D01*
X126117684Y-100984221D01*
X126138505Y-100979909D01*
X126155583Y-100976044D01*
X126172529Y-100971588D01*
X126185467Y-100966397D01*
X126191825Y-100958971D01*
X126195401Y-100951283D01*
X126197601Y-100943490D01*
X126198850Y-100936348D01*
X126199645Y-100928399D01*
X126199985Y-100919644D01*
X126200000Y-100917329D01*
X126199861Y-100908785D01*
X126199445Y-100900848D01*
X126198751Y-100893518D01*
X126197395Y-100884689D01*
X126195547Y-100876939D01*
X126192542Y-100868769D01*
X126187919Y-100861192D01*
X126184221Y-100857489D01*
X126174135Y-100851374D01*
X126159537Y-100846926D01*
X126143349Y-100845035D01*
X126135226Y-100844838D01*
X126117554Y-100845479D01*
X126100645Y-100848083D01*
X126088696Y-100853263D01*
X126086646Y-100855096D01*
X126082468Y-100862768D01*
X126080463Y-100870146D01*
X126079195Y-100877479D01*
X126078225Y-100886084D01*
X126077693Y-100893372D01*
X126077330Y-100901375D01*
X126077134Y-100910093D01*
X126077096Y-100916303D01*
X126077096Y-100987085D01*
X125607906Y-100987085D01*
X125607906Y-100939897D01*
X125608073Y-100930878D01*
X125608574Y-100922116D01*
X125609410Y-100913610D01*
X125610579Y-100905361D01*
X125612082Y-100897368D01*
X125613920Y-100889632D01*
X125616092Y-100882152D01*
X125618598Y-100874928D01*
X125621438Y-100867961D01*
X125626324Y-100857992D01*
X125631962Y-100848599D01*
X125638352Y-100839783D01*
X125645494Y-100831545D01*
X125650673Y-100826373D01*
X125659518Y-100818892D01*
X125669859Y-100811579D01*
X125681696Y-100804434D01*
X125695029Y-100797458D01*
X125709859Y-100790649D01*
X125726185Y-100784010D01*
X125744007Y-100777538D01*
X125763325Y-100771235D01*
X125777035Y-100767126D01*
X125791411Y-100763093D01*
X125806451Y-100759134D01*
X125822156Y-100755249D01*
X125838485Y-100751523D01*
X125855399Y-100748037D01*
X125872896Y-100744791D01*
X125890977Y-100741785D01*
X125909642Y-100739021D01*
X125928891Y-100736496D01*
X125948724Y-100734212D01*
X125969141Y-100732168D01*
X125990142Y-100730365D01*
X126011726Y-100728802D01*
X126033895Y-100727480D01*
X126056647Y-100726398D01*
X126079984Y-100725557D01*
X126103904Y-100724956D01*
X126128408Y-100724595D01*
X126153496Y-100724475D01*
X126183500Y-100724614D01*
G37*
G36*
X127639017Y-100724697D02*
G01*
X127659549Y-100725364D01*
X127679548Y-100726476D01*
X127699015Y-100728033D01*
X127717949Y-100730035D01*
X127736350Y-100732481D01*
X127754219Y-100735372D01*
X127771554Y-100738708D01*
X127788357Y-100742489D01*
X127804627Y-100746714D01*
X127815177Y-100749778D01*
X127830349Y-100754558D01*
X127844411Y-100759473D01*
X127857364Y-100764524D01*
X127869207Y-100769710D01*
X127879941Y-100775031D01*
X127892527Y-100782336D01*
X127903141Y-100789881D01*
X127911783Y-100797667D01*
X127918452Y-100805693D01*
X127919811Y-100807737D01*
X127924677Y-100816620D01*
X127927900Y-100824168D01*
X127930759Y-100832478D01*
X127933253Y-100841547D01*
X127935382Y-100851377D01*
X127936598Y-100858353D01*
X127937652Y-100865667D01*
X127938544Y-100873318D01*
X127939274Y-100881308D01*
X127939842Y-100889635D01*
X127940247Y-100898300D01*
X127940491Y-100907304D01*
X127940572Y-100916645D01*
X127940572Y-101183529D01*
X127940470Y-101194236D01*
X127940163Y-101204558D01*
X127939652Y-101214496D01*
X127938937Y-101224049D01*
X127938017Y-101233217D01*
X127936893Y-101242001D01*
X127935565Y-101250400D01*
X127934032Y-101258414D01*
X127932295Y-101266044D01*
X127930354Y-101273288D01*
X127928208Y-101280149D01*
X127924606Y-101289718D01*
X127920544Y-101298421D01*
X127916023Y-101306259D01*
X127914413Y-101308679D01*
X127909097Y-101315632D01*
X127902804Y-101322319D01*
X127895532Y-101328743D01*
X127887282Y-101334902D01*
X127878054Y-101340796D01*
X127867848Y-101346426D01*
X127856664Y-101351792D01*
X127844502Y-101356893D01*
X127831362Y-101361729D01*
X127817244Y-101366301D01*
X127807288Y-101369203D01*
X127791745Y-101373266D01*
X127775632Y-101376930D01*
X127758949Y-101380195D01*
X127741698Y-101383059D01*
X127723877Y-101385524D01*
X127705487Y-101387589D01*
X127686527Y-101389255D01*
X127666998Y-101390520D01*
X127646900Y-101391386D01*
X127626233Y-101391853D01*
X127612138Y-101391942D01*
X127595205Y-101391787D01*
X127578506Y-101391322D01*
X127556604Y-101390222D01*
X127535116Y-101388571D01*
X127514044Y-101386370D01*
X127493387Y-101383618D01*
X127473146Y-101380316D01*
X127453319Y-101376464D01*
X127443562Y-101374332D01*
X127424838Y-101369868D01*
X127407283Y-101365281D01*
X127390895Y-101360571D01*
X127375675Y-101355739D01*
X127361622Y-101350783D01*
X127348738Y-101345705D01*
X127337021Y-101340504D01*
X127326472Y-101335180D01*
X127326472Y-101468536D01*
X126828217Y-101468536D01*
X126828217Y-101190026D01*
X127326472Y-101190026D01*
X127326517Y-101196968D01*
X127326756Y-101206728D01*
X127327199Y-101215704D01*
X127327846Y-101223895D01*
X127328697Y-101231301D01*
X127330150Y-101239957D01*
X127331967Y-101247217D01*
X127334749Y-101254333D01*
X127338098Y-101259269D01*
X127346907Y-101265219D01*
X127361472Y-101269547D01*
X127378880Y-101271386D01*
X127387923Y-101271579D01*
X127406108Y-101270713D01*
X127421305Y-101267721D01*
X127431934Y-101261962D01*
X127433182Y-101260637D01*
X127436741Y-101253901D01*
X127438748Y-101246796D01*
X127440033Y-101239736D01*
X127441032Y-101231452D01*
X127441594Y-101224436D01*
X127441995Y-101216731D01*
X127442236Y-101208339D01*
X127442316Y-101199258D01*
X127442316Y-100923997D01*
X127442282Y-100916855D01*
X127442103Y-100906852D01*
X127441771Y-100897699D01*
X127441286Y-100889397D01*
X127440647Y-100881945D01*
X127439557Y-100873333D01*
X127438195Y-100866232D01*
X127435640Y-100858416D01*
X127433597Y-100855096D01*
X127424119Y-100849255D01*
X127407674Y-100845839D01*
X127389036Y-100844848D01*
X127386678Y-100844838D01*
X127369602Y-100845607D01*
X127354238Y-100848312D01*
X127341944Y-100853601D01*
X127337683Y-100857147D01*
X127333314Y-100864554D01*
X127330851Y-100872318D01*
X127329275Y-100880015D01*
X127328048Y-100889031D01*
X127327359Y-100896659D01*
X127326866Y-100905029D01*
X127326570Y-100914142D01*
X127326472Y-100923997D01*
X127326472Y-101190026D01*
X126828217Y-101190026D01*
X126828217Y-100735417D01*
X127335191Y-100735417D01*
X127328963Y-100780553D01*
X127342003Y-100774069D01*
X127353837Y-100769008D01*
X127366916Y-100764059D01*
X127381241Y-100759223D01*
X127396812Y-100754498D01*
X127413628Y-100749886D01*
X127431689Y-100745386D01*
X127446053Y-100742085D01*
X127460899Y-100738938D01*
X127481101Y-100735223D01*
X127501771Y-100732059D01*
X127522908Y-100729445D01*
X127539067Y-100727845D01*
X127555489Y-100726556D01*
X127572174Y-100725575D01*
X127589122Y-100724905D01*
X127606332Y-100724544D01*
X127617951Y-100724475D01*
X127639017Y-100724697D01*
G37*
D11*
%TO.C,J3*%
X136965000Y-109710000D02*
X135855000Y-109710000D01*
X136965000Y-106000000D02*
X135855000Y-106000000D01*
X134175000Y-109710000D02*
X133065000Y-109710000D01*
X134175000Y-106000000D02*
X133065000Y-106000000D01*
%TO.C,Ref\u002A\u002A*%
D12*
X134944667Y-114893334D02*
X134942172Y-114973801D01*
X134935554Y-115036931D01*
X134926111Y-115071605D01*
X134923500Y-115074500D01*
X134916976Y-115099635D01*
X134911554Y-115164794D01*
X134907309Y-115267683D01*
X134904320Y-115406004D01*
X134902662Y-115577463D01*
X134902334Y-115710749D01*
X134903044Y-115908071D01*
X134905143Y-116069711D01*
X134908582Y-116194229D01*
X134913311Y-116280186D01*
X134919282Y-116326142D01*
X134923500Y-116333917D01*
X134933808Y-116353814D01*
X134941108Y-116408541D01*
X134944523Y-116490645D01*
X134944667Y-116513833D01*
X134944667Y-116693750D01*
X134886459Y-116692357D01*
X134832719Y-116686031D01*
X134759017Y-116671379D01*
X134713556Y-116660127D01*
X134564819Y-116604789D01*
X134450876Y-116527312D01*
X134369377Y-116425866D01*
X134342427Y-116371349D01*
X134332383Y-116340512D01*
X134324553Y-116298424D01*
X134318695Y-116240069D01*
X134314565Y-116160433D01*
X134311920Y-116054500D01*
X134310517Y-115917254D01*
X134310114Y-115743682D01*
X134310132Y-115704888D01*
X134310666Y-115515055D01*
X134312572Y-115362319D01*
X134316798Y-115241445D01*
X134324296Y-115147200D01*
X134336015Y-115074349D01*
X134352906Y-115017658D01*
X134375920Y-114971893D01*
X134406006Y-114931819D01*
X134444114Y-114892201D01*
X134460520Y-114876533D01*
X134531475Y-114827082D01*
X134628624Y-114781768D01*
X134735866Y-114746500D01*
X134837098Y-114727185D01*
X134872813Y-114725250D01*
X134944667Y-114725250D01*
X134944667Y-114893334D01*
G36*
X134944667Y-114893334D02*
G01*
X134942172Y-114973801D01*
X134935554Y-115036931D01*
X134926111Y-115071605D01*
X134923500Y-115074500D01*
X134916976Y-115099635D01*
X134911554Y-115164794D01*
X134907309Y-115267683D01*
X134904320Y-115406004D01*
X134902662Y-115577463D01*
X134902334Y-115710749D01*
X134903044Y-115908071D01*
X134905143Y-116069711D01*
X134908582Y-116194229D01*
X134913311Y-116280186D01*
X134919282Y-116326142D01*
X134923500Y-116333917D01*
X134933808Y-116353814D01*
X134941108Y-116408541D01*
X134944523Y-116490645D01*
X134944667Y-116513833D01*
X134944667Y-116693750D01*
X134886459Y-116692357D01*
X134832719Y-116686031D01*
X134759017Y-116671379D01*
X134713556Y-116660127D01*
X134564819Y-116604789D01*
X134450876Y-116527312D01*
X134369377Y-116425866D01*
X134342427Y-116371349D01*
X134332383Y-116340512D01*
X134324553Y-116298424D01*
X134318695Y-116240069D01*
X134314565Y-116160433D01*
X134311920Y-116054500D01*
X134310517Y-115917254D01*
X134310114Y-115743682D01*
X134310132Y-115704888D01*
X134310666Y-115515055D01*
X134312572Y-115362319D01*
X134316798Y-115241445D01*
X134324296Y-115147200D01*
X134336015Y-115074349D01*
X134352906Y-115017658D01*
X134375920Y-114971893D01*
X134406006Y-114931819D01*
X134444114Y-114892201D01*
X134460520Y-114876533D01*
X134531475Y-114827082D01*
X134628624Y-114781768D01*
X134735866Y-114746500D01*
X134837098Y-114727185D01*
X134872813Y-114725250D01*
X134944667Y-114725250D01*
X134944667Y-114893334D01*
G37*
X135116434Y-114731617D02*
X135196664Y-114748180D01*
X135268148Y-114767701D01*
X135394098Y-114823462D01*
X135499889Y-114903538D01*
X135577006Y-115000535D01*
X135604634Y-115059892D01*
X135613986Y-115109045D01*
X135621532Y-115193180D01*
X135627278Y-115304984D01*
X135631230Y-115437145D01*
X135633393Y-115582349D01*
X135633773Y-115733285D01*
X135632377Y-115882640D01*
X135629209Y-116023100D01*
X135624277Y-116147354D01*
X135617584Y-116248088D01*
X135609138Y-116317990D01*
X135603616Y-116341024D01*
X135539569Y-116462099D01*
X135441523Y-116559272D01*
X135311396Y-116631047D01*
X135181750Y-116669975D01*
X135089314Y-116688960D01*
X135031266Y-116694516D01*
X135000346Y-116680798D01*
X134989291Y-116641960D01*
X134990843Y-116572156D01*
X134994393Y-116519125D01*
X135002902Y-116415847D01*
X135014188Y-116309258D01*
X135025891Y-116221515D01*
X135026529Y-116217500D01*
X135034592Y-116141361D01*
X135040552Y-116032845D01*
X135044416Y-115901520D01*
X135046190Y-115756953D01*
X135045881Y-115608711D01*
X135043495Y-115466359D01*
X135039041Y-115339466D01*
X135032523Y-115237599D01*
X135025793Y-115180333D01*
X135013488Y-115092010D01*
X135001992Y-114985331D01*
X134994217Y-114889292D01*
X134983777Y-114725250D01*
X135057242Y-114725250D01*
X135116434Y-114731617D01*
G36*
X135116434Y-114731617D02*
G01*
X135196664Y-114748180D01*
X135268148Y-114767701D01*
X135394098Y-114823462D01*
X135499889Y-114903538D01*
X135577006Y-115000535D01*
X135604634Y-115059892D01*
X135613986Y-115109045D01*
X135621532Y-115193180D01*
X135627278Y-115304984D01*
X135631230Y-115437145D01*
X135633393Y-115582349D01*
X135633773Y-115733285D01*
X135632377Y-115882640D01*
X135629209Y-116023100D01*
X135624277Y-116147354D01*
X135617584Y-116248088D01*
X135609138Y-116317990D01*
X135603616Y-116341024D01*
X135539569Y-116462099D01*
X135441523Y-116559272D01*
X135311396Y-116631047D01*
X135181750Y-116669975D01*
X135089314Y-116688960D01*
X135031266Y-116694516D01*
X135000346Y-116680798D01*
X134989291Y-116641960D01*
X134990843Y-116572156D01*
X134994393Y-116519125D01*
X135002902Y-116415847D01*
X135014188Y-116309258D01*
X135025891Y-116221515D01*
X135026529Y-116217500D01*
X135034592Y-116141361D01*
X135040552Y-116032845D01*
X135044416Y-115901520D01*
X135046190Y-115756953D01*
X135045881Y-115608711D01*
X135043495Y-115466359D01*
X135039041Y-115339466D01*
X135032523Y-115237599D01*
X135025793Y-115180333D01*
X135013488Y-115092010D01*
X135001992Y-114985331D01*
X134994217Y-114889292D01*
X134983777Y-114725250D01*
X135057242Y-114725250D01*
X135116434Y-114731617D01*
G37*
X134127222Y-114608273D02*
X134147536Y-114618996D01*
X134155914Y-114637272D01*
X134150580Y-114665664D01*
X134129756Y-114706730D01*
X134091666Y-114763033D01*
X134034533Y-114837133D01*
X133956579Y-114931590D01*
X133856028Y-115048966D01*
X133731103Y-115191821D01*
X133580027Y-115362717D01*
X133530630Y-115418382D01*
X133436035Y-115523931D01*
X133348826Y-115619378D01*
X133273532Y-115699918D01*
X133214678Y-115760742D01*
X133176793Y-115797044D01*
X133166809Y-115804674D01*
X133107240Y-115824458D01*
X133061142Y-115817509D01*
X133053778Y-115811805D01*
X133044034Y-115797437D01*
X133042062Y-115778445D01*
X133049926Y-115752179D01*
X133069692Y-115715989D01*
X133103427Y-115667225D01*
X133153196Y-115603236D01*
X133221066Y-115521373D01*
X133309102Y-115418984D01*
X133419371Y-115293419D01*
X133553937Y-115142029D01*
X133714868Y-114962162D01*
X133724164Y-114951793D01*
X133829865Y-114834648D01*
X133911792Y-114745964D01*
X133973801Y-114682127D01*
X134019747Y-114639523D01*
X134053485Y-114614539D01*
X134078870Y-114603562D01*
X134096750Y-114602543D01*
X134127222Y-114608273D01*
G36*
X134127222Y-114608273D02*
G01*
X134147536Y-114618996D01*
X134155914Y-114637272D01*
X134150580Y-114665664D01*
X134129756Y-114706730D01*
X134091666Y-114763033D01*
X134034533Y-114837133D01*
X133956579Y-114931590D01*
X133856028Y-115048966D01*
X133731103Y-115191821D01*
X133580027Y-115362717D01*
X133530630Y-115418382D01*
X133436035Y-115523931D01*
X133348826Y-115619378D01*
X133273532Y-115699918D01*
X133214678Y-115760742D01*
X133176793Y-115797044D01*
X133166809Y-115804674D01*
X133107240Y-115824458D01*
X133061142Y-115817509D01*
X133053778Y-115811805D01*
X133044034Y-115797437D01*
X133042062Y-115778445D01*
X133049926Y-115752179D01*
X133069692Y-115715989D01*
X133103427Y-115667225D01*
X133153196Y-115603236D01*
X133221066Y-115521373D01*
X133309102Y-115418984D01*
X133419371Y-115293419D01*
X133553937Y-115142029D01*
X133714868Y-114962162D01*
X133724164Y-114951793D01*
X133829865Y-114834648D01*
X133911792Y-114745964D01*
X133973801Y-114682127D01*
X134019747Y-114639523D01*
X134053485Y-114614539D01*
X134078870Y-114603562D01*
X134096750Y-114602543D01*
X134127222Y-114608273D01*
G37*
X135852100Y-114619517D02*
X135912459Y-114665058D01*
X135944981Y-114698614D01*
X136001189Y-114759453D01*
X136076932Y-114842963D01*
X136168060Y-114944534D01*
X136270423Y-115059553D01*
X136379870Y-115183408D01*
X136419610Y-115228592D01*
X136549419Y-115377274D01*
X136652617Y-115497647D01*
X136731368Y-115592453D01*
X136787836Y-115664432D01*
X136824186Y-115716326D01*
X136842581Y-115750875D01*
X136845764Y-115768342D01*
X136830306Y-115811557D01*
X136799262Y-115823384D01*
X136750626Y-115802934D01*
X136682391Y-115749319D01*
X136592553Y-115661652D01*
X136583529Y-115652260D01*
X136512551Y-115576426D01*
X136422708Y-115477966D01*
X136322614Y-115366454D01*
X136220881Y-115251467D01*
X136151058Y-115171444D01*
X136062763Y-115069558D01*
X135979077Y-114973011D01*
X135905889Y-114888597D01*
X135849091Y-114823112D01*
X135816296Y-114785332D01*
X135768325Y-114714512D01*
X135752500Y-114656793D01*
X135764241Y-114617902D01*
X135798967Y-114603567D01*
X135852100Y-114619517D01*
G36*
X135852100Y-114619517D02*
G01*
X135912459Y-114665058D01*
X135944981Y-114698614D01*
X136001189Y-114759453D01*
X136076932Y-114842963D01*
X136168060Y-114944534D01*
X136270423Y-115059553D01*
X136379870Y-115183408D01*
X136419610Y-115228592D01*
X136549419Y-115377274D01*
X136652617Y-115497647D01*
X136731368Y-115592453D01*
X136787836Y-115664432D01*
X136824186Y-115716326D01*
X136842581Y-115750875D01*
X136845764Y-115768342D01*
X136830306Y-115811557D01*
X136799262Y-115823384D01*
X136750626Y-115802934D01*
X136682391Y-115749319D01*
X136592553Y-115661652D01*
X136583529Y-115652260D01*
X136512551Y-115576426D01*
X136422708Y-115477966D01*
X136322614Y-115366454D01*
X136220881Y-115251467D01*
X136151058Y-115171444D01*
X136062763Y-115069558D01*
X135979077Y-114973011D01*
X135905889Y-114888597D01*
X135849091Y-114823112D01*
X135816296Y-114785332D01*
X135768325Y-114714512D01*
X135752500Y-114656793D01*
X135764241Y-114617902D01*
X135798967Y-114603567D01*
X135852100Y-114619517D01*
G37*
X133451205Y-113672060D02*
X133682827Y-113677500D01*
X133731368Y-113772750D01*
X133770609Y-113882681D01*
X133792743Y-114016540D01*
X133796311Y-114158919D01*
X133780477Y-114291445D01*
X133744502Y-114400795D01*
X133684225Y-114484633D01*
X133593893Y-114548643D01*
X133470454Y-114597677D01*
X133341815Y-114625193D01*
X133192210Y-114638226D01*
X133039729Y-114636402D01*
X132902460Y-114619344D01*
X132863398Y-114610259D01*
X132749021Y-114565652D01*
X132647858Y-114500371D01*
X132571542Y-114422797D01*
X132546225Y-114381789D01*
X132522219Y-114308891D01*
X132504023Y-114203904D01*
X132495467Y-114112309D01*
X132483068Y-113920917D01*
X133039667Y-113920917D01*
X133039667Y-114057122D01*
X133044653Y-114169875D01*
X133060670Y-114245498D01*
X133089307Y-114288129D01*
X133132151Y-114301906D01*
X133133648Y-114301917D01*
X133187440Y-114284003D01*
X133218738Y-114230767D01*
X133227192Y-114142962D01*
X133224698Y-114104284D01*
X133216153Y-114047958D01*
X133198842Y-114001673D01*
X133167003Y-113959517D01*
X133114871Y-113915578D01*
X133036683Y-113863943D01*
X132926966Y-113798868D01*
X132753917Y-113698667D01*
X132986750Y-113682644D01*
X133116250Y-113676027D01*
X133262922Y-113672063D01*
X133402143Y-113671312D01*
X133451205Y-113672060D01*
G36*
X133451205Y-113672060D02*
G01*
X133682827Y-113677500D01*
X133731368Y-113772750D01*
X133770609Y-113882681D01*
X133792743Y-114016540D01*
X133796311Y-114158919D01*
X133780477Y-114291445D01*
X133744502Y-114400795D01*
X133684225Y-114484633D01*
X133593893Y-114548643D01*
X133470454Y-114597677D01*
X133341815Y-114625193D01*
X133192210Y-114638226D01*
X133039729Y-114636402D01*
X132902460Y-114619344D01*
X132863398Y-114610259D01*
X132749021Y-114565652D01*
X132647858Y-114500371D01*
X132571542Y-114422797D01*
X132546225Y-114381789D01*
X132522219Y-114308891D01*
X132504023Y-114203904D01*
X132495467Y-114112309D01*
X132483068Y-113920917D01*
X133039667Y-113920917D01*
X133039667Y-114057122D01*
X133044653Y-114169875D01*
X133060670Y-114245498D01*
X133089307Y-114288129D01*
X133132151Y-114301906D01*
X133133648Y-114301917D01*
X133187440Y-114284003D01*
X133218738Y-114230767D01*
X133227192Y-114142962D01*
X133224698Y-114104284D01*
X133216153Y-114047958D01*
X133198842Y-114001673D01*
X133167003Y-113959517D01*
X133114871Y-113915578D01*
X133036683Y-113863943D01*
X132926966Y-113798868D01*
X132753917Y-113698667D01*
X132986750Y-113682644D01*
X133116250Y-113676027D01*
X133262922Y-113672063D01*
X133402143Y-113671312D01*
X133451205Y-113672060D01*
G37*
X136685059Y-113979125D02*
X136690917Y-114291333D01*
X136743626Y-114291333D01*
X136772136Y-114286542D01*
X136793086Y-114268479D01*
X136807691Y-114231606D01*
X136817164Y-114170388D01*
X136822719Y-114079286D01*
X136825570Y-113952766D01*
X136825996Y-113915625D01*
X136828500Y-113666917D01*
X137427672Y-113666917D01*
X137415098Y-113960909D01*
X137407280Y-114093753D01*
X137396477Y-114205055D01*
X137383559Y-114287344D01*
X137372536Y-114326674D01*
X137315360Y-114419340D01*
X137229002Y-114505687D01*
X137126200Y-114573504D01*
X137103904Y-114584165D01*
X137024766Y-114607937D01*
X136917449Y-114624922D01*
X136795656Y-114634506D01*
X136673092Y-114636070D01*
X136563460Y-114628998D01*
X136480462Y-114612673D01*
X136479250Y-114612275D01*
X136331244Y-114547418D01*
X136217452Y-114463122D01*
X136139964Y-114361233D01*
X136110106Y-114286620D01*
X136101496Y-114234459D01*
X136094422Y-114151364D01*
X136089609Y-114048724D01*
X136087786Y-113937932D01*
X136087785Y-113936792D01*
X136087667Y-113666917D01*
X136679202Y-113666917D01*
X136685059Y-113979125D01*
G36*
X136685059Y-113979125D02*
G01*
X136690917Y-114291333D01*
X136743626Y-114291333D01*
X136772136Y-114286542D01*
X136793086Y-114268479D01*
X136807691Y-114231606D01*
X136817164Y-114170388D01*
X136822719Y-114079286D01*
X136825570Y-113952766D01*
X136825996Y-113915625D01*
X136828500Y-113666917D01*
X137427672Y-113666917D01*
X137415098Y-113960909D01*
X137407280Y-114093753D01*
X137396477Y-114205055D01*
X137383559Y-114287344D01*
X137372536Y-114326674D01*
X137315360Y-114419340D01*
X137229002Y-114505687D01*
X137126200Y-114573504D01*
X137103904Y-114584165D01*
X137024766Y-114607937D01*
X136917449Y-114624922D01*
X136795656Y-114634506D01*
X136673092Y-114636070D01*
X136563460Y-114628998D01*
X136480462Y-114612673D01*
X136479250Y-114612275D01*
X136331244Y-114547418D01*
X136217452Y-114463122D01*
X136139964Y-114361233D01*
X136110106Y-114286620D01*
X136101496Y-114234459D01*
X136094422Y-114151364D01*
X136089609Y-114048724D01*
X136087786Y-113937932D01*
X136087785Y-113936792D01*
X136087667Y-113666917D01*
X136679202Y-113666917D01*
X136685059Y-113979125D01*
G37*
X135114000Y-114217250D02*
X135452667Y-114217250D01*
X135452667Y-114598250D01*
X134521334Y-114598250D01*
X134521334Y-112714417D01*
X135114000Y-112714417D01*
X135114000Y-114217250D01*
G36*
X135114000Y-114217250D02*
G01*
X135452667Y-114217250D01*
X135452667Y-114598250D01*
X134521334Y-114598250D01*
X134521334Y-112714417D01*
X135114000Y-112714417D01*
X135114000Y-114217250D01*
G37*
X133225427Y-112683650D02*
X133303437Y-112686398D01*
X133361519Y-112693544D01*
X133410872Y-112707142D01*
X133462700Y-112729244D01*
X133518452Y-112756954D01*
X133607973Y-112808545D01*
X133669528Y-112862888D01*
X133708809Y-112929751D01*
X133731512Y-113018902D01*
X133743329Y-113140110D01*
X133743500Y-113143042D01*
X133752976Y-113307083D01*
X133214539Y-113307083D01*
X133201419Y-113227708D01*
X133192388Y-113158248D01*
X133188112Y-113096332D01*
X133188066Y-113092389D01*
X133172646Y-113040447D01*
X133132722Y-113019600D01*
X133080467Y-113032737D01*
X133053914Y-113058043D01*
X133041755Y-113104462D01*
X133039667Y-113155972D01*
X133042133Y-113207975D01*
X133053159Y-113250108D01*
X133078189Y-113287949D01*
X133122666Y-113327073D01*
X133192031Y-113373059D01*
X133291729Y-113431483D01*
X133329411Y-113452859D01*
X133435832Y-113512888D01*
X133514401Y-113558878D01*
X133563297Y-113592702D01*
X133580695Y-113616234D01*
X133564775Y-113631347D01*
X133513712Y-113639914D01*
X133425686Y-113643806D01*
X133298873Y-113644898D01*
X133142401Y-113645046D01*
X132663052Y-113645750D01*
X132595942Y-113569315D01*
X132549550Y-113511611D01*
X132518788Y-113456952D01*
X132500563Y-113394278D01*
X132491781Y-113312529D01*
X132489347Y-113200647D01*
X132489334Y-113188237D01*
X132495233Y-113051875D01*
X132516192Y-112948175D01*
X132557103Y-112868704D01*
X132622858Y-112805030D01*
X132718347Y-112748721D01*
X132754181Y-112731703D01*
X132806076Y-112710479D01*
X132858240Y-112696444D01*
X132921307Y-112688176D01*
X133005912Y-112684251D01*
X133116285Y-112683249D01*
X133225427Y-112683650D01*
G36*
X133225427Y-112683650D02*
G01*
X133303437Y-112686398D01*
X133361519Y-112693544D01*
X133410872Y-112707142D01*
X133462700Y-112729244D01*
X133518452Y-112756954D01*
X133607973Y-112808545D01*
X133669528Y-112862888D01*
X133708809Y-112929751D01*
X133731512Y-113018902D01*
X133743329Y-113140110D01*
X133743500Y-113143042D01*
X133752976Y-113307083D01*
X133214539Y-113307083D01*
X133201419Y-113227708D01*
X133192388Y-113158248D01*
X133188112Y-113096332D01*
X133188066Y-113092389D01*
X133172646Y-113040447D01*
X133132722Y-113019600D01*
X133080467Y-113032737D01*
X133053914Y-113058043D01*
X133041755Y-113104462D01*
X133039667Y-113155972D01*
X133042133Y-113207975D01*
X133053159Y-113250108D01*
X133078189Y-113287949D01*
X133122666Y-113327073D01*
X133192031Y-113373059D01*
X133291729Y-113431483D01*
X133329411Y-113452859D01*
X133435832Y-113512888D01*
X133514401Y-113558878D01*
X133563297Y-113592702D01*
X133580695Y-113616234D01*
X133564775Y-113631347D01*
X133513712Y-113639914D01*
X133425686Y-113643806D01*
X133298873Y-113644898D01*
X133142401Y-113645046D01*
X132663052Y-113645750D01*
X132595942Y-113569315D01*
X132549550Y-113511611D01*
X132518788Y-113456952D01*
X132500563Y-113394278D01*
X132491781Y-113312529D01*
X132489347Y-113200647D01*
X132489334Y-113188237D01*
X132495233Y-113051875D01*
X132516192Y-112948175D01*
X132557103Y-112868704D01*
X132622858Y-112805030D01*
X132718347Y-112748721D01*
X132754181Y-112731703D01*
X132806076Y-112710479D01*
X132858240Y-112696444D01*
X132921307Y-112688176D01*
X133005912Y-112684251D01*
X133116285Y-112683249D01*
X133225427Y-112683650D01*
G37*
X136999895Y-112705123D02*
X137141991Y-112758480D01*
X137255959Y-112835690D01*
X137259064Y-112838541D01*
X137311691Y-112893550D01*
X137350477Y-112951961D01*
X137377875Y-113021836D01*
X137396340Y-113111234D01*
X137408325Y-113228218D01*
X137415065Y-113350982D01*
X137427672Y-113645750D01*
X136828500Y-113645750D01*
X136828500Y-113404979D01*
X136826911Y-113265017D01*
X136821626Y-113162151D01*
X136811866Y-113091244D01*
X136796854Y-113047159D01*
X136775810Y-113024761D01*
X136770525Y-113022321D01*
X136737479Y-113015620D01*
X136713363Y-113027787D01*
X136696883Y-113063546D01*
X136686746Y-113127621D01*
X136681662Y-113224738D01*
X136680334Y-113352008D01*
X136680334Y-113645750D01*
X136087667Y-113645750D01*
X136087785Y-113375875D01*
X136089810Y-113230687D01*
X136097137Y-113119624D01*
X136111856Y-113034596D01*
X136136059Y-112967517D01*
X136171839Y-112910299D01*
X136221287Y-112854853D01*
X136222974Y-112853162D01*
X136324311Y-112773520D01*
X136447113Y-112718653D01*
X136598464Y-112685752D01*
X136663332Y-112678565D01*
X136837674Y-112677768D01*
X136999895Y-112705123D01*
G36*
X136999895Y-112705123D02*
G01*
X137141991Y-112758480D01*
X137255959Y-112835690D01*
X137259064Y-112838541D01*
X137311691Y-112893550D01*
X137350477Y-112951961D01*
X137377875Y-113021836D01*
X137396340Y-113111234D01*
X137408325Y-113228218D01*
X137415065Y-113350982D01*
X137427672Y-113645750D01*
X136828500Y-113645750D01*
X136828500Y-113404979D01*
X136826911Y-113265017D01*
X136821626Y-113162151D01*
X136811866Y-113091244D01*
X136796854Y-113047159D01*
X136775810Y-113024761D01*
X136770525Y-113022321D01*
X136737479Y-113015620D01*
X136713363Y-113027787D01*
X136696883Y-113063546D01*
X136686746Y-113127621D01*
X136681662Y-113224738D01*
X136680334Y-113352008D01*
X136680334Y-113645750D01*
X136087667Y-113645750D01*
X136087785Y-113375875D01*
X136089810Y-113230687D01*
X136097137Y-113119624D01*
X136111856Y-113034596D01*
X136136059Y-112967517D01*
X136171839Y-112910299D01*
X136221287Y-112854853D01*
X136222974Y-112853162D01*
X136324311Y-112773520D01*
X136447113Y-112718653D01*
X136598464Y-112685752D01*
X136663332Y-112678565D01*
X136837674Y-112677768D01*
X136999895Y-112705123D01*
G37*
X133135477Y-111557383D02*
X133171525Y-111576295D01*
X133219450Y-111616100D01*
X133285717Y-111681662D01*
X133316324Y-111713574D01*
X133416948Y-111821186D01*
X133523600Y-111938372D01*
X133632626Y-112060807D01*
X133740375Y-112184167D01*
X133843195Y-112304129D01*
X133937433Y-112416368D01*
X134019438Y-112516561D01*
X134085557Y-112600383D01*
X134132138Y-112663510D01*
X134155529Y-112701619D01*
X134157509Y-112709491D01*
X134132800Y-112740429D01*
X134096946Y-112752438D01*
X134064067Y-112748933D01*
X134025317Y-112727482D01*
X133973664Y-112683007D01*
X133906277Y-112614854D01*
X133825939Y-112528938D01*
X133734894Y-112429149D01*
X133649864Y-112333861D01*
X133630943Y-112312250D01*
X133566347Y-112238134D01*
X133483106Y-112142694D01*
X133390429Y-112036483D01*
X133297524Y-111930058D01*
X133264906Y-111892704D01*
X133170715Y-111782586D01*
X133104590Y-111698967D01*
X133064825Y-111638247D01*
X133049717Y-111596826D01*
X133057563Y-111571106D01*
X133086658Y-111557485D01*
X133104838Y-111554502D01*
X133135477Y-111557383D01*
G36*
X133135477Y-111557383D02*
G01*
X133171525Y-111576295D01*
X133219450Y-111616100D01*
X133285717Y-111681662D01*
X133316324Y-111713574D01*
X133416948Y-111821186D01*
X133523600Y-111938372D01*
X133632626Y-112060807D01*
X133740375Y-112184167D01*
X133843195Y-112304129D01*
X133937433Y-112416368D01*
X134019438Y-112516561D01*
X134085557Y-112600383D01*
X134132138Y-112663510D01*
X134155529Y-112701619D01*
X134157509Y-112709491D01*
X134132800Y-112740429D01*
X134096946Y-112752438D01*
X134064067Y-112748933D01*
X134025317Y-112727482D01*
X133973664Y-112683007D01*
X133906277Y-112614854D01*
X133825939Y-112528938D01*
X133734894Y-112429149D01*
X133649864Y-112333861D01*
X133630943Y-112312250D01*
X133566347Y-112238134D01*
X133483106Y-112142694D01*
X133390429Y-112036483D01*
X133297524Y-111930058D01*
X133264906Y-111892704D01*
X133170715Y-111782586D01*
X133104590Y-111698967D01*
X133064825Y-111638247D01*
X133049717Y-111596826D01*
X133057563Y-111571106D01*
X133086658Y-111557485D01*
X133104838Y-111554502D01*
X133135477Y-111557383D01*
G37*
X136834004Y-111556422D02*
X136863127Y-111581864D01*
X136864932Y-111593192D01*
X136860956Y-111608719D01*
X136848836Y-111631325D01*
X136826212Y-111663888D01*
X136790721Y-111709286D01*
X136740001Y-111770397D01*
X136671693Y-111850100D01*
X136583433Y-111951273D01*
X136472860Y-112076795D01*
X136337613Y-112229544D01*
X136259543Y-112317542D01*
X136141296Y-112450139D01*
X136047231Y-112553899D01*
X135973979Y-112632126D01*
X135918171Y-112688123D01*
X135876437Y-112725193D01*
X135845408Y-112746642D01*
X135821715Y-112755772D01*
X135811627Y-112756750D01*
X135764822Y-112746498D01*
X135741495Y-112725388D01*
X135748311Y-112692957D01*
X135779948Y-112637373D01*
X135832074Y-112566180D01*
X135834928Y-112562612D01*
X135891259Y-112494253D01*
X135964947Y-112407564D01*
X136051762Y-112307262D01*
X136147474Y-112198069D01*
X136247854Y-112084701D01*
X136348670Y-111971880D01*
X136445693Y-111864325D01*
X136534693Y-111766754D01*
X136611440Y-111683888D01*
X136671705Y-111620445D01*
X136711256Y-111581145D01*
X136723966Y-111570721D01*
X136782498Y-111552094D01*
X136834004Y-111556422D01*
G36*
X136834004Y-111556422D02*
G01*
X136863127Y-111581864D01*
X136864932Y-111593192D01*
X136860956Y-111608719D01*
X136848836Y-111631325D01*
X136826212Y-111663888D01*
X136790721Y-111709286D01*
X136740001Y-111770397D01*
X136671693Y-111850100D01*
X136583433Y-111951273D01*
X136472860Y-112076795D01*
X136337613Y-112229544D01*
X136259543Y-112317542D01*
X136141296Y-112450139D01*
X136047231Y-112553899D01*
X135973979Y-112632126D01*
X135918171Y-112688123D01*
X135876437Y-112725193D01*
X135845408Y-112746642D01*
X135821715Y-112755772D01*
X135811627Y-112756750D01*
X135764822Y-112746498D01*
X135741495Y-112725388D01*
X135748311Y-112692957D01*
X135779948Y-112637373D01*
X135832074Y-112566180D01*
X135834928Y-112562612D01*
X135891259Y-112494253D01*
X135964947Y-112407564D01*
X136051762Y-112307262D01*
X136147474Y-112198069D01*
X136247854Y-112084701D01*
X136348670Y-111971880D01*
X136445693Y-111864325D01*
X136534693Y-111766754D01*
X136611440Y-111683888D01*
X136671705Y-111620445D01*
X136711256Y-111581145D01*
X136723966Y-111570721D01*
X136782498Y-111552094D01*
X136834004Y-111556422D01*
G37*
X134944667Y-110851750D02*
X134942191Y-110935608D01*
X134935433Y-110994537D01*
X134925394Y-111020519D01*
X134923500Y-111021083D01*
X134913358Y-111041065D01*
X134906123Y-111096377D01*
X134902568Y-111180071D01*
X134902334Y-111211583D01*
X134904554Y-111302863D01*
X134910699Y-111367976D01*
X134919999Y-111399973D01*
X134923500Y-111402083D01*
X134934166Y-111421781D01*
X134941599Y-111475103D01*
X134944647Y-111553389D01*
X134944667Y-111560833D01*
X134942040Y-111640823D01*
X134934931Y-111696577D01*
X134924493Y-111719435D01*
X134923500Y-111719583D01*
X134914209Y-111739919D01*
X134907334Y-111797700D01*
X134903281Y-111888085D01*
X134902334Y-111973583D01*
X134904028Y-112085079D01*
X134908843Y-112167571D01*
X134916375Y-112216219D01*
X134923500Y-112227583D01*
X134933982Y-112247387D01*
X134941349Y-112301455D01*
X134944596Y-112381768D01*
X134944667Y-112396917D01*
X134944667Y-112566250D01*
X134309667Y-112566250D01*
X134309667Y-110682417D01*
X134944667Y-110682417D01*
X134944667Y-110851750D01*
G36*
X134944667Y-110851750D02*
G01*
X134942191Y-110935608D01*
X134935433Y-110994537D01*
X134925394Y-111020519D01*
X134923500Y-111021083D01*
X134913358Y-111041065D01*
X134906123Y-111096377D01*
X134902568Y-111180071D01*
X134902334Y-111211583D01*
X134904554Y-111302863D01*
X134910699Y-111367976D01*
X134919999Y-111399973D01*
X134923500Y-111402083D01*
X134934166Y-111421781D01*
X134941599Y-111475103D01*
X134944647Y-111553389D01*
X134944667Y-111560833D01*
X134942040Y-111640823D01*
X134934931Y-111696577D01*
X134924493Y-111719435D01*
X134923500Y-111719583D01*
X134914209Y-111739919D01*
X134907334Y-111797700D01*
X134903281Y-111888085D01*
X134902334Y-111973583D01*
X134904028Y-112085079D01*
X134908843Y-112167571D01*
X134916375Y-112216219D01*
X134923500Y-112227583D01*
X134933982Y-112247387D01*
X134941349Y-112301455D01*
X134944596Y-112381768D01*
X134944667Y-112396917D01*
X134944667Y-112566250D01*
X134309667Y-112566250D01*
X134309667Y-110682417D01*
X134944667Y-110682417D01*
X134944667Y-110851750D01*
G37*
X135076959Y-110682934D02*
X135228980Y-110697807D01*
X135360607Y-110738762D01*
X135466346Y-110803069D01*
X135540704Y-110887998D01*
X135558294Y-110922080D01*
X135592051Y-111033024D01*
X135608956Y-111160818D01*
X135607364Y-111285606D01*
X135594574Y-111359750D01*
X135571882Y-111423698D01*
X135537551Y-111465114D01*
X135477157Y-111501383D01*
X135477004Y-111501460D01*
X135384925Y-111547920D01*
X135465680Y-111586126D01*
X135531552Y-111629731D01*
X135588214Y-111687085D01*
X135594801Y-111696255D01*
X135614756Y-111729304D01*
X135628344Y-111764244D01*
X135636770Y-111809790D01*
X135641238Y-111874654D01*
X135642955Y-111967548D01*
X135643167Y-112045835D01*
X135639052Y-112204562D01*
X135623806Y-112326515D01*
X135593078Y-112416706D01*
X135542517Y-112480149D01*
X135467772Y-112521857D01*
X135364490Y-112546842D01*
X135228322Y-112560118D01*
X135195227Y-112561883D01*
X134987000Y-112571910D01*
X134987000Y-112391428D01*
X134988697Y-112298380D01*
X134994617Y-112240025D01*
X135006001Y-112208827D01*
X135018750Y-112198762D01*
X135033903Y-112184369D01*
X135043555Y-112150396D01*
X135048735Y-112089649D01*
X135050473Y-111994933D01*
X135050500Y-111976839D01*
X135048846Y-111872179D01*
X135043232Y-111802471D01*
X135032678Y-111760440D01*
X135018750Y-111740750D01*
X134999863Y-111703225D01*
X134989226Y-111638218D01*
X134986811Y-111559763D01*
X134992592Y-111481896D01*
X135006542Y-111418649D01*
X135019423Y-111392746D01*
X135039281Y-111342143D01*
X135049353Y-111266638D01*
X135049638Y-111182517D01*
X135040136Y-111106063D01*
X135020849Y-111053563D01*
X135019423Y-111051587D01*
X134999452Y-110999845D01*
X134989227Y-110909409D01*
X134987673Y-110846458D01*
X134987000Y-110682417D01*
X135076959Y-110682934D01*
G36*
X135076959Y-110682934D02*
G01*
X135228980Y-110697807D01*
X135360607Y-110738762D01*
X135466346Y-110803069D01*
X135540704Y-110887998D01*
X135558294Y-110922080D01*
X135592051Y-111033024D01*
X135608956Y-111160818D01*
X135607364Y-111285606D01*
X135594574Y-111359750D01*
X135571882Y-111423698D01*
X135537551Y-111465114D01*
X135477157Y-111501383D01*
X135477004Y-111501460D01*
X135384925Y-111547920D01*
X135465680Y-111586126D01*
X135531552Y-111629731D01*
X135588214Y-111687085D01*
X135594801Y-111696255D01*
X135614756Y-111729304D01*
X135628344Y-111764244D01*
X135636770Y-111809790D01*
X135641238Y-111874654D01*
X135642955Y-111967548D01*
X135643167Y-112045835D01*
X135639052Y-112204562D01*
X135623806Y-112326515D01*
X135593078Y-112416706D01*
X135542517Y-112480149D01*
X135467772Y-112521857D01*
X135364490Y-112546842D01*
X135228322Y-112560118D01*
X135195227Y-112561883D01*
X134987000Y-112571910D01*
X134987000Y-112391428D01*
X134988697Y-112298380D01*
X134994617Y-112240025D01*
X135006001Y-112208827D01*
X135018750Y-112198762D01*
X135033903Y-112184369D01*
X135043555Y-112150396D01*
X135048735Y-112089649D01*
X135050473Y-111994933D01*
X135050500Y-111976839D01*
X135048846Y-111872179D01*
X135043232Y-111802471D01*
X135032678Y-111760440D01*
X135018750Y-111740750D01*
X134999863Y-111703225D01*
X134989226Y-111638218D01*
X134986811Y-111559763D01*
X134992592Y-111481896D01*
X135006542Y-111418649D01*
X135019423Y-111392746D01*
X135039281Y-111342143D01*
X135049353Y-111266638D01*
X135049638Y-111182517D01*
X135040136Y-111106063D01*
X135020849Y-111053563D01*
X135019423Y-111051587D01*
X134999452Y-110999845D01*
X134989227Y-110909409D01*
X134987673Y-110846458D01*
X134987000Y-110682417D01*
X135076959Y-110682934D01*
G37*
D11*
%TO.C,J2*%
X127100000Y-114900000D02*
X126600000Y-114900000D01*
X127100000Y-113600000D02*
X128450000Y-113600000D01*
X127100000Y-113600000D02*
X127100000Y-114900000D01*
X127100000Y-111750000D02*
X128450000Y-111750000D01*
X127100000Y-110250000D02*
X127100000Y-111750000D01*
X127100000Y-104750000D02*
X127100000Y-108350000D01*
X126600000Y-116900000D02*
X121400000Y-116900000D01*
X126600000Y-114900000D02*
X126600000Y-116900000D01*
X121650000Y-102700000D02*
X127100000Y-102700000D01*
X121400000Y-116900000D02*
X121400000Y-114900000D01*
X121400000Y-114900000D02*
X120900000Y-114900000D01*
X120900000Y-114900000D02*
X120900000Y-113700000D01*
X120900000Y-111750000D02*
X120900000Y-106500000D01*
X120900000Y-104550000D02*
X120900000Y-104250000D01*
%TO.C,J1*%
X149100000Y-114900000D02*
X148600000Y-114900000D01*
X149100000Y-113600000D02*
X150450000Y-113600000D01*
X149100000Y-113600000D02*
X149100000Y-114900000D01*
X149100000Y-111750000D02*
X150450000Y-111750000D01*
X149100000Y-110250000D02*
X149100000Y-111750000D01*
X149100000Y-104750000D02*
X149100000Y-108350000D01*
X148600000Y-116900000D02*
X143400000Y-116900000D01*
X148600000Y-114900000D02*
X148600000Y-116900000D01*
X143650000Y-102700000D02*
X149100000Y-102700000D01*
X143400000Y-116900000D02*
X143400000Y-114900000D01*
X143400000Y-114900000D02*
X142900000Y-114900000D01*
X142900000Y-114900000D02*
X142900000Y-113700000D01*
X142900000Y-111750000D02*
X142900000Y-106500000D01*
X142900000Y-104550000D02*
X142900000Y-104250000D01*
%TD*%
M02*
