%TF.GenerationSoftware,KiCad,Pcbnew,8.0.0*%
%TF.CreationDate,2024-03-03T15:21:22+01:00*%
%TF.ProjectId,EuroTap,4575726f-5461-4702-9e6b-696361645f70,0v02*%
%TF.SameCoordinates,Original*%
%TF.FileFunction,Copper,L2,Bot*%
%TF.FilePolarity,Positive*%
%FSLAX46Y46*%
G04 Gerber Fmt 4.6, Leading zero omitted, Abs format (unit mm)*
G04 Created by KiCad (PCBNEW 8.0.0) date 2024-03-03 15:21:22*
%MOMM*%
%LPD*%
G01*
G04 APERTURE LIST*
%TA.AperFunction,SMDPad,CuDef*%
%ADD10R,1.350000X4.200000*%
%TD*%
%TA.AperFunction,ViaPad*%
%ADD11C,0.500000*%
%TD*%
G04 APERTURE END LIST*
D10*
%TO.P,J3,2,Ext*%
%TO.N,GND*%
X137840000Y-109000000D03*
X132190000Y-109000000D03*
%TD*%
D11*
%TO.N,GND*%
X146000000Y-108110000D03*
X124000000Y-114000000D03*
X124000000Y-102000000D03*
X140000000Y-107500000D03*
X124000000Y-108110000D03*
X138000000Y-115000000D03*
X130000000Y-107500000D03*
X146000000Y-102000000D03*
X132000000Y-115000000D03*
X146000000Y-114000000D03*
%TD*%
%TA.AperFunction,Conductor*%
%TO.N,GND*%
G36*
X129001509Y-100000037D02*
G01*
X129007232Y-100000177D01*
X129087583Y-100002145D01*
X129108728Y-100004490D01*
X129279013Y-100038362D01*
X129302261Y-100045413D01*
X129461257Y-100111272D01*
X129482692Y-100122730D01*
X129625775Y-100218335D01*
X129644565Y-100233756D01*
X129766243Y-100355434D01*
X129781664Y-100374224D01*
X129877269Y-100517307D01*
X129888728Y-100538745D01*
X129954583Y-100697731D01*
X129961639Y-100720993D01*
X129995508Y-100891266D01*
X129997854Y-100912419D01*
X129999963Y-100998488D01*
X130000000Y-101001526D01*
X130000000Y-105999992D01*
X130002407Y-106098252D01*
X130002408Y-106098261D01*
X130040742Y-106290979D01*
X130040744Y-106290987D01*
X130115943Y-106472533D01*
X130115948Y-106472543D01*
X130225118Y-106635927D01*
X130225121Y-106635931D01*
X130364068Y-106774878D01*
X130364072Y-106774881D01*
X130527456Y-106884051D01*
X130527460Y-106884053D01*
X130527463Y-106884055D01*
X130709013Y-106959256D01*
X130901746Y-106997593D01*
X130901760Y-106997593D01*
X130904664Y-106997916D01*
X130905838Y-106998407D01*
X130906974Y-106998633D01*
X130906928Y-106998862D01*
X130969126Y-107024868D01*
X131008784Y-107082392D01*
X131015000Y-107121161D01*
X131015000Y-108750000D01*
X133365000Y-108750000D01*
X133365000Y-107124000D01*
X133384685Y-107056961D01*
X133437489Y-107011206D01*
X133489000Y-107000000D01*
X136541000Y-107000000D01*
X136608039Y-107019685D01*
X136653794Y-107072489D01*
X136665000Y-107124000D01*
X136665000Y-108750000D01*
X139015000Y-108750000D01*
X139015000Y-107115917D01*
X139034685Y-107048878D01*
X139087489Y-107003123D01*
X139114809Y-106994300D01*
X139290987Y-106959256D01*
X139472537Y-106884055D01*
X139635928Y-106774881D01*
X139774881Y-106635928D01*
X139884055Y-106472537D01*
X139959256Y-106290987D01*
X139997593Y-106098254D01*
X140000000Y-106000000D01*
X140000000Y-105398543D01*
X143999499Y-105398543D01*
X144037947Y-105591829D01*
X144037950Y-105591839D01*
X144113364Y-105773907D01*
X144113371Y-105773920D01*
X144222860Y-105937781D01*
X144222863Y-105937785D01*
X144362214Y-106077136D01*
X144362218Y-106077139D01*
X144526079Y-106186628D01*
X144526092Y-106186635D01*
X144708160Y-106262049D01*
X144708165Y-106262051D01*
X144708169Y-106262051D01*
X144708170Y-106262052D01*
X144901456Y-106300500D01*
X144901459Y-106300500D01*
X145098543Y-106300500D01*
X145228582Y-106274632D01*
X145291835Y-106262051D01*
X145473914Y-106186632D01*
X145637782Y-106077139D01*
X145777139Y-105937782D01*
X145886632Y-105773914D01*
X145962051Y-105591835D01*
X146000500Y-105398541D01*
X146000500Y-105201459D01*
X146000500Y-105201456D01*
X145962052Y-105008170D01*
X145962051Y-105008169D01*
X145962051Y-105008165D01*
X145962049Y-105008160D01*
X145886635Y-104826092D01*
X145886628Y-104826079D01*
X145777139Y-104662218D01*
X145777136Y-104662214D01*
X145637785Y-104522863D01*
X145637781Y-104522860D01*
X145473920Y-104413371D01*
X145473907Y-104413364D01*
X145291839Y-104337950D01*
X145291829Y-104337947D01*
X145098543Y-104299500D01*
X145098541Y-104299500D01*
X144901459Y-104299500D01*
X144901457Y-104299500D01*
X144708170Y-104337947D01*
X144708160Y-104337950D01*
X144526092Y-104413364D01*
X144526079Y-104413371D01*
X144362218Y-104522860D01*
X144362214Y-104522863D01*
X144222863Y-104662214D01*
X144222860Y-104662218D01*
X144113371Y-104826079D01*
X144113364Y-104826092D01*
X144037950Y-105008160D01*
X144037947Y-105008170D01*
X143999500Y-105201456D01*
X143999500Y-105201459D01*
X143999500Y-105398541D01*
X143999500Y-105398543D01*
X143999499Y-105398543D01*
X140000000Y-105398543D01*
X140000000Y-101001526D01*
X140000037Y-100998490D01*
X140002145Y-100912421D01*
X140002146Y-100912419D01*
X140002145Y-100912415D01*
X140004490Y-100891272D01*
X140038362Y-100720983D01*
X140045412Y-100697741D01*
X140111274Y-100538738D01*
X140122726Y-100517314D01*
X140218338Y-100374219D01*
X140233751Y-100355439D01*
X140355439Y-100233751D01*
X140374219Y-100218338D01*
X140517314Y-100122726D01*
X140538738Y-100111274D01*
X140697741Y-100045412D01*
X140720983Y-100038362D01*
X140891272Y-100004490D01*
X140912415Y-100002145D01*
X140993037Y-100000170D01*
X140998491Y-100000037D01*
X141001527Y-100000000D01*
X148998473Y-100000000D01*
X149001509Y-100000037D01*
X149007232Y-100000177D01*
X149087583Y-100002145D01*
X149108728Y-100004490D01*
X149279013Y-100038362D01*
X149302261Y-100045413D01*
X149461257Y-100111272D01*
X149482692Y-100122730D01*
X149625775Y-100218335D01*
X149644565Y-100233756D01*
X149766243Y-100355434D01*
X149781664Y-100374224D01*
X149877269Y-100517307D01*
X149888728Y-100538745D01*
X149954583Y-100697731D01*
X149961639Y-100720993D01*
X149995508Y-100891266D01*
X149997854Y-100912419D01*
X149999963Y-100998488D01*
X150000000Y-101001526D01*
X150000000Y-113998473D01*
X149999963Y-114001511D01*
X149997854Y-114087580D01*
X149995508Y-114108733D01*
X149961639Y-114279006D01*
X149954583Y-114302268D01*
X149888728Y-114461254D01*
X149877269Y-114482692D01*
X149781664Y-114625775D01*
X149766243Y-114644565D01*
X149644565Y-114766243D01*
X149625775Y-114781664D01*
X149482692Y-114877269D01*
X149461254Y-114888728D01*
X149302268Y-114954583D01*
X149279006Y-114961639D01*
X149108733Y-114995508D01*
X149087580Y-114997854D01*
X149004250Y-114999895D01*
X149001509Y-114999963D01*
X148998473Y-115000000D01*
X141000000Y-115000000D01*
X140901746Y-115002407D01*
X140901744Y-115002407D01*
X140901738Y-115002408D01*
X140709020Y-115040742D01*
X140709012Y-115040744D01*
X140527466Y-115115943D01*
X140527456Y-115115948D01*
X140364072Y-115225118D01*
X140364068Y-115225121D01*
X140225121Y-115364068D01*
X140225118Y-115364072D01*
X140115948Y-115527456D01*
X140115943Y-115527466D01*
X140040744Y-115709012D01*
X140040742Y-115709020D01*
X140002408Y-115901738D01*
X140002407Y-115901747D01*
X140000000Y-116000000D01*
X140000000Y-116000001D01*
X139997854Y-116087580D01*
X139995508Y-116108733D01*
X139961639Y-116279006D01*
X139954583Y-116302268D01*
X139888728Y-116461254D01*
X139877269Y-116482692D01*
X139781664Y-116625775D01*
X139766243Y-116644565D01*
X139644565Y-116766243D01*
X139625775Y-116781664D01*
X139482692Y-116877269D01*
X139461254Y-116888728D01*
X139302268Y-116954583D01*
X139279006Y-116961639D01*
X139108733Y-116995508D01*
X139087580Y-116997854D01*
X139004250Y-116999895D01*
X139001509Y-116999963D01*
X138998473Y-117000000D01*
X131001527Y-117000000D01*
X130998490Y-116999963D01*
X130912420Y-116997854D01*
X130891266Y-116995508D01*
X130720993Y-116961639D01*
X130697731Y-116954583D01*
X130538745Y-116888728D01*
X130517307Y-116877269D01*
X130374224Y-116781664D01*
X130355434Y-116766243D01*
X130233756Y-116644565D01*
X130218335Y-116625775D01*
X130122730Y-116482692D01*
X130111271Y-116461254D01*
X130045413Y-116302261D01*
X130038362Y-116279013D01*
X130004490Y-116108728D01*
X130002145Y-116087583D01*
X130000000Y-116000000D01*
X129997593Y-115901746D01*
X129959256Y-115709013D01*
X129884055Y-115527463D01*
X129884053Y-115527460D01*
X129884051Y-115527456D01*
X129774881Y-115364072D01*
X129774878Y-115364068D01*
X129635931Y-115225121D01*
X129635927Y-115225118D01*
X129472543Y-115115948D01*
X129472533Y-115115943D01*
X129290987Y-115040744D01*
X129290979Y-115040742D01*
X129098261Y-115002408D01*
X129098256Y-115002407D01*
X129098254Y-115002407D01*
X129000000Y-115000000D01*
X128999992Y-115000000D01*
X121001527Y-115000000D01*
X120998490Y-114999963D01*
X120912420Y-114997854D01*
X120891266Y-114995508D01*
X120720993Y-114961639D01*
X120697731Y-114954583D01*
X120538745Y-114888728D01*
X120517307Y-114877269D01*
X120374224Y-114781664D01*
X120355434Y-114766243D01*
X120233756Y-114644565D01*
X120218335Y-114625775D01*
X120122730Y-114482692D01*
X120111271Y-114461254D01*
X120045413Y-114302261D01*
X120038362Y-114279013D01*
X120004490Y-114108728D01*
X120002145Y-114087583D01*
X120000037Y-114001509D01*
X120000000Y-113998473D01*
X120000000Y-112398543D01*
X123999499Y-112398543D01*
X124037947Y-112591829D01*
X124037950Y-112591839D01*
X124113364Y-112773907D01*
X124113371Y-112773920D01*
X124222860Y-112937781D01*
X124222863Y-112937785D01*
X124362214Y-113077136D01*
X124362218Y-113077139D01*
X124526079Y-113186628D01*
X124526092Y-113186635D01*
X124708160Y-113262049D01*
X124708165Y-113262051D01*
X124708169Y-113262051D01*
X124708170Y-113262052D01*
X124901456Y-113300500D01*
X124901459Y-113300500D01*
X125098543Y-113300500D01*
X125228582Y-113274632D01*
X125291835Y-113262051D01*
X125473914Y-113186632D01*
X125637782Y-113077139D01*
X125777139Y-112937782D01*
X125886632Y-112773914D01*
X125962051Y-112591835D01*
X126000500Y-112398543D01*
X143999499Y-112398543D01*
X144037947Y-112591829D01*
X144037950Y-112591839D01*
X144113364Y-112773907D01*
X144113371Y-112773920D01*
X144222860Y-112937781D01*
X144222863Y-112937785D01*
X144362214Y-113077136D01*
X144362218Y-113077139D01*
X144526079Y-113186628D01*
X144526092Y-113186635D01*
X144708160Y-113262049D01*
X144708165Y-113262051D01*
X144708169Y-113262051D01*
X144708170Y-113262052D01*
X144901456Y-113300500D01*
X144901459Y-113300500D01*
X145098543Y-113300500D01*
X145228582Y-113274632D01*
X145291835Y-113262051D01*
X145473914Y-113186632D01*
X145637782Y-113077139D01*
X145777139Y-112937782D01*
X145886632Y-112773914D01*
X145962051Y-112591835D01*
X146000500Y-112398541D01*
X146000500Y-112201459D01*
X146000500Y-112201456D01*
X145962052Y-112008170D01*
X145962051Y-112008169D01*
X145962051Y-112008165D01*
X145962049Y-112008160D01*
X145886635Y-111826092D01*
X145886628Y-111826079D01*
X145777139Y-111662218D01*
X145777136Y-111662214D01*
X145637785Y-111522863D01*
X145637781Y-111522860D01*
X145473920Y-111413371D01*
X145473907Y-111413364D01*
X145291839Y-111337950D01*
X145291829Y-111337947D01*
X145098543Y-111299500D01*
X145098541Y-111299500D01*
X144901459Y-111299500D01*
X144901457Y-111299500D01*
X144708170Y-111337947D01*
X144708160Y-111337950D01*
X144526092Y-111413364D01*
X144526079Y-111413371D01*
X144362218Y-111522860D01*
X144362214Y-111522863D01*
X144222863Y-111662214D01*
X144222860Y-111662218D01*
X144113371Y-111826079D01*
X144113364Y-111826092D01*
X144037950Y-112008160D01*
X144037947Y-112008170D01*
X143999500Y-112201456D01*
X143999500Y-112201459D01*
X143999500Y-112398541D01*
X143999500Y-112398543D01*
X143999499Y-112398543D01*
X126000500Y-112398543D01*
X126000500Y-112398541D01*
X126000500Y-112201459D01*
X126000500Y-112201456D01*
X125962052Y-112008170D01*
X125962051Y-112008169D01*
X125962051Y-112008165D01*
X125962049Y-112008160D01*
X125886635Y-111826092D01*
X125886628Y-111826079D01*
X125777139Y-111662218D01*
X125777136Y-111662214D01*
X125637785Y-111522863D01*
X125637781Y-111522860D01*
X125473920Y-111413371D01*
X125473907Y-111413364D01*
X125291839Y-111337950D01*
X125291829Y-111337947D01*
X125098543Y-111299500D01*
X125098541Y-111299500D01*
X124901459Y-111299500D01*
X124901457Y-111299500D01*
X124708170Y-111337947D01*
X124708160Y-111337950D01*
X124526092Y-111413364D01*
X124526079Y-111413371D01*
X124362218Y-111522860D01*
X124362214Y-111522863D01*
X124222863Y-111662214D01*
X124222860Y-111662218D01*
X124113371Y-111826079D01*
X124113364Y-111826092D01*
X124037950Y-112008160D01*
X124037947Y-112008170D01*
X123999500Y-112201456D01*
X123999500Y-112201459D01*
X123999500Y-112398541D01*
X123999500Y-112398543D01*
X123999499Y-112398543D01*
X120000000Y-112398543D01*
X120000000Y-109250000D01*
X131015000Y-109250000D01*
X131015000Y-111147844D01*
X131021401Y-111207372D01*
X131021403Y-111207379D01*
X131071645Y-111342086D01*
X131071649Y-111342093D01*
X131157809Y-111457187D01*
X131157812Y-111457190D01*
X131272906Y-111543350D01*
X131272913Y-111543354D01*
X131407620Y-111593596D01*
X131407627Y-111593598D01*
X131467155Y-111599999D01*
X131467172Y-111600000D01*
X131940000Y-111600000D01*
X131940000Y-109250000D01*
X132440000Y-109250000D01*
X132440000Y-111600000D01*
X132912828Y-111600000D01*
X132912844Y-111599999D01*
X132972372Y-111593598D01*
X132972379Y-111593596D01*
X133107086Y-111543354D01*
X133107093Y-111543350D01*
X133222187Y-111457190D01*
X133222190Y-111457187D01*
X133308350Y-111342093D01*
X133308354Y-111342086D01*
X133358596Y-111207379D01*
X133358598Y-111207372D01*
X133364999Y-111147844D01*
X133365000Y-111147827D01*
X133365000Y-109250000D01*
X136665000Y-109250000D01*
X136665000Y-111147844D01*
X136671401Y-111207372D01*
X136671403Y-111207379D01*
X136721645Y-111342086D01*
X136721649Y-111342093D01*
X136807809Y-111457187D01*
X136807812Y-111457190D01*
X136922906Y-111543350D01*
X136922913Y-111543354D01*
X137057620Y-111593596D01*
X137057627Y-111593598D01*
X137117155Y-111599999D01*
X137117172Y-111600000D01*
X137590000Y-111600000D01*
X137590000Y-109250000D01*
X138090000Y-109250000D01*
X138090000Y-111600000D01*
X138562828Y-111600000D01*
X138562844Y-111599999D01*
X138622372Y-111593598D01*
X138622379Y-111593596D01*
X138757086Y-111543354D01*
X138757093Y-111543350D01*
X138872187Y-111457190D01*
X138872190Y-111457187D01*
X138958350Y-111342093D01*
X138958354Y-111342086D01*
X139008596Y-111207379D01*
X139008598Y-111207372D01*
X139014999Y-111147844D01*
X139015000Y-111147827D01*
X139015000Y-109250000D01*
X138090000Y-109250000D01*
X137590000Y-109250000D01*
X136665000Y-109250000D01*
X133365000Y-109250000D01*
X132440000Y-109250000D01*
X131940000Y-109250000D01*
X131015000Y-109250000D01*
X120000000Y-109250000D01*
X120000000Y-105398543D01*
X123999499Y-105398543D01*
X124037947Y-105591829D01*
X124037950Y-105591839D01*
X124113364Y-105773907D01*
X124113371Y-105773920D01*
X124222860Y-105937781D01*
X124222863Y-105937785D01*
X124362214Y-106077136D01*
X124362218Y-106077139D01*
X124526079Y-106186628D01*
X124526092Y-106186635D01*
X124708160Y-106262049D01*
X124708165Y-106262051D01*
X124708169Y-106262051D01*
X124708170Y-106262052D01*
X124901456Y-106300500D01*
X124901459Y-106300500D01*
X125098543Y-106300500D01*
X125228582Y-106274632D01*
X125291835Y-106262051D01*
X125473914Y-106186632D01*
X125637782Y-106077139D01*
X125777139Y-105937782D01*
X125886632Y-105773914D01*
X125962051Y-105591835D01*
X126000500Y-105398541D01*
X126000500Y-105201459D01*
X126000500Y-105201456D01*
X125962052Y-105008170D01*
X125962051Y-105008169D01*
X125962051Y-105008165D01*
X125962049Y-105008160D01*
X125886635Y-104826092D01*
X125886628Y-104826079D01*
X125777139Y-104662218D01*
X125777136Y-104662214D01*
X125637785Y-104522863D01*
X125637781Y-104522860D01*
X125473920Y-104413371D01*
X125473907Y-104413364D01*
X125291839Y-104337950D01*
X125291829Y-104337947D01*
X125098543Y-104299500D01*
X125098541Y-104299500D01*
X124901459Y-104299500D01*
X124901457Y-104299500D01*
X124708170Y-104337947D01*
X124708160Y-104337950D01*
X124526092Y-104413364D01*
X124526079Y-104413371D01*
X124362218Y-104522860D01*
X124362214Y-104522863D01*
X124222863Y-104662214D01*
X124222860Y-104662218D01*
X124113371Y-104826079D01*
X124113364Y-104826092D01*
X124037950Y-105008160D01*
X124037947Y-105008170D01*
X123999500Y-105201456D01*
X123999500Y-105201459D01*
X123999500Y-105398541D01*
X123999500Y-105398543D01*
X123999499Y-105398543D01*
X120000000Y-105398543D01*
X120000000Y-101001526D01*
X120000037Y-100998490D01*
X120002145Y-100912421D01*
X120002146Y-100912419D01*
X120002145Y-100912415D01*
X120004490Y-100891272D01*
X120038362Y-100720983D01*
X120045412Y-100697741D01*
X120111274Y-100538738D01*
X120122726Y-100517314D01*
X120218338Y-100374219D01*
X120233751Y-100355439D01*
X120355439Y-100233751D01*
X120374219Y-100218338D01*
X120517314Y-100122726D01*
X120538738Y-100111274D01*
X120697741Y-100045412D01*
X120720983Y-100038362D01*
X120891272Y-100004490D01*
X120912415Y-100002145D01*
X120993037Y-100000170D01*
X120998491Y-100000037D01*
X121001527Y-100000000D01*
X128998473Y-100000000D01*
X129001509Y-100000037D01*
G37*
%TD.AperFunction*%
%TD*%
M02*
