%TF.GenerationSoftware,KiCad,Pcbnew,8.0.0*%
%TF.CreationDate,2024-03-03T15:21:29+01:00*%
%TF.ProjectId,EuroTap,4575726f-5461-4702-9e6b-696361645f70,0v02*%
%TF.SameCoordinates,Original*%
%TF.FileFunction,Drillmap*%
%TF.FilePolarity,Positive*%
%FSLAX45Y45*%
G04 Gerber Fmt 4.5, Leading zero omitted, Abs format (unit mm)*
G04 Created by KiCad (PCBNEW 8.0.0) date 2024-03-03 15:21:29*
%MOMM*%
%LPD*%
G01*
G04 APERTURE LIST*
%ADD10C,0.100000*%
%ADD11C,0.200000*%
G04 APERTURE END LIST*
D10*
X13000000Y-10600000D02*
X13000000Y-10100000D01*
X14000000Y-10600000D02*
X14000000Y-10100000D01*
X14000000Y-10600000D02*
G75*
G02*
X13900000Y-10700000I-100000J0D01*
G01*
X14000000Y-10100000D02*
G75*
G02*
X14100000Y-10000000I100000J0D01*
G01*
X13100000Y-10700000D02*
X13900000Y-10700000D01*
X12900000Y-10000000D02*
X12100000Y-10000000D01*
X15000000Y-11400000D02*
G75*
G02*
X14900000Y-11500000I-100000J0D01*
G01*
X14100000Y-11500000D02*
X14900000Y-11500000D01*
X14900000Y-10000000D02*
X14100000Y-10000000D01*
X12900000Y-10000000D02*
G75*
G02*
X13000000Y-10100000I0J-100000D01*
G01*
X12900000Y-11500000D02*
G75*
G02*
X13000000Y-11600000I0J-100000D01*
G01*
X13900000Y-11700000D02*
X13100000Y-11700000D01*
X12000000Y-10100000D02*
G75*
G02*
X12100000Y-10000000I100000J0D01*
G01*
X12000000Y-11400000D02*
X12000000Y-10100000D01*
X12100000Y-11500000D02*
G75*
G02*
X12000000Y-11400000I0J100000D01*
G01*
X15000000Y-10100000D02*
X15000000Y-11400000D01*
X14000000Y-11600000D02*
G75*
G02*
X13900000Y-11700000I-100000J0D01*
G01*
X14000000Y-11600000D02*
G75*
G02*
X14100000Y-11500000I100000J0D01*
G01*
X13100000Y-10700000D02*
G75*
G02*
X13000000Y-10600000I0J100000D01*
G01*
X12900000Y-11500000D02*
X12100000Y-11500000D01*
X14900000Y-10000000D02*
G75*
G02*
X15000000Y-10100000I0J-100000D01*
G01*
X13100000Y-11700000D02*
G75*
G02*
X13000000Y-11600000I0J100000D01*
G01*
D11*
D10*
X12385000Y-10185000D02*
X12415000Y-10215000D01*
X12415000Y-10185000D02*
X12385000Y-10215000D01*
X12385000Y-10796000D02*
X12415000Y-10826000D01*
X12415000Y-10796000D02*
X12385000Y-10826000D01*
X12385000Y-11385000D02*
X12415000Y-11415000D01*
X12415000Y-11385000D02*
X12385000Y-11415000D01*
X12985000Y-10735000D02*
X13015000Y-10765000D01*
X13015000Y-10735000D02*
X12985000Y-10765000D01*
X13185000Y-11485000D02*
X13215000Y-11515000D01*
X13215000Y-11485000D02*
X13185000Y-11515000D01*
X13785000Y-11485000D02*
X13815000Y-11515000D01*
X13815000Y-11485000D02*
X13785000Y-11515000D01*
X13985000Y-10735000D02*
X14015000Y-10765000D01*
X14015000Y-10735000D02*
X13985000Y-10765000D01*
X14585000Y-10185000D02*
X14615000Y-10215000D01*
X14615000Y-10185000D02*
X14585000Y-10215000D01*
X14585000Y-10796000D02*
X14615000Y-10826000D01*
X14615000Y-10796000D02*
X14585000Y-10826000D01*
X14585000Y-11385000D02*
X14615000Y-11415000D01*
X14615000Y-11385000D02*
X14585000Y-11415000D01*
D11*
X12255777Y-12016484D02*
X12255777Y-11816484D01*
X12255777Y-11816484D02*
X12303396Y-11816484D01*
X12303396Y-11816484D02*
X12331967Y-11826008D01*
X12331967Y-11826008D02*
X12351015Y-11845055D01*
X12351015Y-11845055D02*
X12360539Y-11864103D01*
X12360539Y-11864103D02*
X12370062Y-11902198D01*
X12370062Y-11902198D02*
X12370062Y-11930769D01*
X12370062Y-11930769D02*
X12360539Y-11968865D01*
X12360539Y-11968865D02*
X12351015Y-11987912D01*
X12351015Y-11987912D02*
X12331967Y-12006960D01*
X12331967Y-12006960D02*
X12303396Y-12016484D01*
X12303396Y-12016484D02*
X12255777Y-12016484D01*
X12455777Y-12016484D02*
X12455777Y-11883150D01*
X12455777Y-11921246D02*
X12465301Y-11902198D01*
X12465301Y-11902198D02*
X12474824Y-11892674D01*
X12474824Y-11892674D02*
X12493872Y-11883150D01*
X12493872Y-11883150D02*
X12512920Y-11883150D01*
X12579586Y-12016484D02*
X12579586Y-11883150D01*
X12579586Y-11816484D02*
X12570062Y-11826008D01*
X12570062Y-11826008D02*
X12579586Y-11835531D01*
X12579586Y-11835531D02*
X12589110Y-11826008D01*
X12589110Y-11826008D02*
X12579586Y-11816484D01*
X12579586Y-11816484D02*
X12579586Y-11835531D01*
X12703396Y-12016484D02*
X12684348Y-12006960D01*
X12684348Y-12006960D02*
X12674824Y-11987912D01*
X12674824Y-11987912D02*
X12674824Y-11816484D01*
X12808158Y-12016484D02*
X12789110Y-12006960D01*
X12789110Y-12006960D02*
X12779586Y-11987912D01*
X12779586Y-11987912D02*
X12779586Y-11816484D01*
X13036729Y-12016484D02*
X13036729Y-11816484D01*
X13036729Y-11816484D02*
X13103396Y-11959341D01*
X13103396Y-11959341D02*
X13170062Y-11816484D01*
X13170062Y-11816484D02*
X13170062Y-12016484D01*
X13351015Y-12016484D02*
X13351015Y-11911722D01*
X13351015Y-11911722D02*
X13341491Y-11892674D01*
X13341491Y-11892674D02*
X13322443Y-11883150D01*
X13322443Y-11883150D02*
X13284348Y-11883150D01*
X13284348Y-11883150D02*
X13265301Y-11892674D01*
X13351015Y-12006960D02*
X13331967Y-12016484D01*
X13331967Y-12016484D02*
X13284348Y-12016484D01*
X13284348Y-12016484D02*
X13265301Y-12006960D01*
X13265301Y-12006960D02*
X13255777Y-11987912D01*
X13255777Y-11987912D02*
X13255777Y-11968865D01*
X13255777Y-11968865D02*
X13265301Y-11949817D01*
X13265301Y-11949817D02*
X13284348Y-11940293D01*
X13284348Y-11940293D02*
X13331967Y-11940293D01*
X13331967Y-11940293D02*
X13351015Y-11930769D01*
X13446253Y-11883150D02*
X13446253Y-12083150D01*
X13446253Y-11892674D02*
X13465301Y-11883150D01*
X13465301Y-11883150D02*
X13503396Y-11883150D01*
X13503396Y-11883150D02*
X13522443Y-11892674D01*
X13522443Y-11892674D02*
X13531967Y-11902198D01*
X13531967Y-11902198D02*
X13541491Y-11921246D01*
X13541491Y-11921246D02*
X13541491Y-11978388D01*
X13541491Y-11978388D02*
X13531967Y-11997436D01*
X13531967Y-11997436D02*
X13522443Y-12006960D01*
X13522443Y-12006960D02*
X13503396Y-12016484D01*
X13503396Y-12016484D02*
X13465301Y-12016484D01*
X13465301Y-12016484D02*
X13446253Y-12006960D01*
X13627205Y-11997436D02*
X13636729Y-12006960D01*
X13636729Y-12006960D02*
X13627205Y-12016484D01*
X13627205Y-12016484D02*
X13617682Y-12006960D01*
X13617682Y-12006960D02*
X13627205Y-11997436D01*
X13627205Y-11997436D02*
X13627205Y-12016484D01*
X13627205Y-11892674D02*
X13636729Y-11902198D01*
X13636729Y-11902198D02*
X13627205Y-11911722D01*
X13627205Y-11911722D02*
X13617682Y-11902198D01*
X13617682Y-11902198D02*
X13627205Y-11892674D01*
X13627205Y-11892674D02*
X13627205Y-11911722D01*
D10*
X11965000Y-12330000D02*
X11995000Y-12360000D01*
X11995000Y-12330000D02*
X11965000Y-12360000D01*
D11*
X12293872Y-12236484D02*
X12312920Y-12236484D01*
X12312920Y-12236484D02*
X12331967Y-12246008D01*
X12331967Y-12246008D02*
X12341491Y-12255531D01*
X12341491Y-12255531D02*
X12351015Y-12274579D01*
X12351015Y-12274579D02*
X12360539Y-12312674D01*
X12360539Y-12312674D02*
X12360539Y-12360293D01*
X12360539Y-12360293D02*
X12351015Y-12398388D01*
X12351015Y-12398388D02*
X12341491Y-12417436D01*
X12341491Y-12417436D02*
X12331967Y-12426960D01*
X12331967Y-12426960D02*
X12312920Y-12436484D01*
X12312920Y-12436484D02*
X12293872Y-12436484D01*
X12293872Y-12436484D02*
X12274824Y-12426960D01*
X12274824Y-12426960D02*
X12265301Y-12417436D01*
X12265301Y-12417436D02*
X12255777Y-12398388D01*
X12255777Y-12398388D02*
X12246253Y-12360293D01*
X12246253Y-12360293D02*
X12246253Y-12312674D01*
X12246253Y-12312674D02*
X12255777Y-12274579D01*
X12255777Y-12274579D02*
X12265301Y-12255531D01*
X12265301Y-12255531D02*
X12274824Y-12246008D01*
X12274824Y-12246008D02*
X12293872Y-12236484D01*
X12446253Y-12417436D02*
X12455777Y-12426960D01*
X12455777Y-12426960D02*
X12446253Y-12436484D01*
X12446253Y-12436484D02*
X12436729Y-12426960D01*
X12436729Y-12426960D02*
X12446253Y-12417436D01*
X12446253Y-12417436D02*
X12446253Y-12436484D01*
X12522443Y-12236484D02*
X12646253Y-12236484D01*
X12646253Y-12236484D02*
X12579586Y-12312674D01*
X12579586Y-12312674D02*
X12608158Y-12312674D01*
X12608158Y-12312674D02*
X12627205Y-12322198D01*
X12627205Y-12322198D02*
X12636729Y-12331722D01*
X12636729Y-12331722D02*
X12646253Y-12350769D01*
X12646253Y-12350769D02*
X12646253Y-12398388D01*
X12646253Y-12398388D02*
X12636729Y-12417436D01*
X12636729Y-12417436D02*
X12627205Y-12426960D01*
X12627205Y-12426960D02*
X12608158Y-12436484D01*
X12608158Y-12436484D02*
X12551015Y-12436484D01*
X12551015Y-12436484D02*
X12531967Y-12426960D01*
X12531967Y-12426960D02*
X12522443Y-12417436D01*
X12770062Y-12236484D02*
X12789110Y-12236484D01*
X12789110Y-12236484D02*
X12808158Y-12246008D01*
X12808158Y-12246008D02*
X12817682Y-12255531D01*
X12817682Y-12255531D02*
X12827205Y-12274579D01*
X12827205Y-12274579D02*
X12836729Y-12312674D01*
X12836729Y-12312674D02*
X12836729Y-12360293D01*
X12836729Y-12360293D02*
X12827205Y-12398388D01*
X12827205Y-12398388D02*
X12817682Y-12417436D01*
X12817682Y-12417436D02*
X12808158Y-12426960D01*
X12808158Y-12426960D02*
X12789110Y-12436484D01*
X12789110Y-12436484D02*
X12770062Y-12436484D01*
X12770062Y-12436484D02*
X12751015Y-12426960D01*
X12751015Y-12426960D02*
X12741491Y-12417436D01*
X12741491Y-12417436D02*
X12731967Y-12398388D01*
X12731967Y-12398388D02*
X12722443Y-12360293D01*
X12722443Y-12360293D02*
X12722443Y-12312674D01*
X12722443Y-12312674D02*
X12731967Y-12274579D01*
X12731967Y-12274579D02*
X12741491Y-12255531D01*
X12741491Y-12255531D02*
X12751015Y-12246008D01*
X12751015Y-12246008D02*
X12770062Y-12236484D01*
X12960539Y-12236484D02*
X12979586Y-12236484D01*
X12979586Y-12236484D02*
X12998634Y-12246008D01*
X12998634Y-12246008D02*
X13008158Y-12255531D01*
X13008158Y-12255531D02*
X13017682Y-12274579D01*
X13017682Y-12274579D02*
X13027205Y-12312674D01*
X13027205Y-12312674D02*
X13027205Y-12360293D01*
X13027205Y-12360293D02*
X13017682Y-12398388D01*
X13017682Y-12398388D02*
X13008158Y-12417436D01*
X13008158Y-12417436D02*
X12998634Y-12426960D01*
X12998634Y-12426960D02*
X12979586Y-12436484D01*
X12979586Y-12436484D02*
X12960539Y-12436484D01*
X12960539Y-12436484D02*
X12941491Y-12426960D01*
X12941491Y-12426960D02*
X12931967Y-12417436D01*
X12931967Y-12417436D02*
X12922443Y-12398388D01*
X12922443Y-12398388D02*
X12912920Y-12360293D01*
X12912920Y-12360293D02*
X12912920Y-12312674D01*
X12912920Y-12312674D02*
X12922443Y-12274579D01*
X12922443Y-12274579D02*
X12931967Y-12255531D01*
X12931967Y-12255531D02*
X12941491Y-12246008D01*
X12941491Y-12246008D02*
X12960539Y-12236484D01*
X13112920Y-12436484D02*
X13112920Y-12303150D01*
X13112920Y-12322198D02*
X13122443Y-12312674D01*
X13122443Y-12312674D02*
X13141491Y-12303150D01*
X13141491Y-12303150D02*
X13170063Y-12303150D01*
X13170063Y-12303150D02*
X13189110Y-12312674D01*
X13189110Y-12312674D02*
X13198634Y-12331722D01*
X13198634Y-12331722D02*
X13198634Y-12436484D01*
X13198634Y-12331722D02*
X13208158Y-12312674D01*
X13208158Y-12312674D02*
X13227205Y-12303150D01*
X13227205Y-12303150D02*
X13255777Y-12303150D01*
X13255777Y-12303150D02*
X13274824Y-12312674D01*
X13274824Y-12312674D02*
X13284348Y-12331722D01*
X13284348Y-12331722D02*
X13284348Y-12436484D01*
X13379586Y-12436484D02*
X13379586Y-12303150D01*
X13379586Y-12322198D02*
X13389110Y-12312674D01*
X13389110Y-12312674D02*
X13408158Y-12303150D01*
X13408158Y-12303150D02*
X13436729Y-12303150D01*
X13436729Y-12303150D02*
X13455777Y-12312674D01*
X13455777Y-12312674D02*
X13465301Y-12331722D01*
X13465301Y-12331722D02*
X13465301Y-12436484D01*
X13465301Y-12331722D02*
X13474824Y-12312674D01*
X13474824Y-12312674D02*
X13493872Y-12303150D01*
X13493872Y-12303150D02*
X13522443Y-12303150D01*
X13522443Y-12303150D02*
X13541491Y-12312674D01*
X13541491Y-12312674D02*
X13551015Y-12331722D01*
X13551015Y-12331722D02*
X13551015Y-12436484D01*
X13941491Y-12226960D02*
X13770063Y-12484103D01*
X14198634Y-12236484D02*
X14217682Y-12236484D01*
X14217682Y-12236484D02*
X14236729Y-12246008D01*
X14236729Y-12246008D02*
X14246253Y-12255531D01*
X14246253Y-12255531D02*
X14255777Y-12274579D01*
X14255777Y-12274579D02*
X14265301Y-12312674D01*
X14265301Y-12312674D02*
X14265301Y-12360293D01*
X14265301Y-12360293D02*
X14255777Y-12398388D01*
X14255777Y-12398388D02*
X14246253Y-12417436D01*
X14246253Y-12417436D02*
X14236729Y-12426960D01*
X14236729Y-12426960D02*
X14217682Y-12436484D01*
X14217682Y-12436484D02*
X14198634Y-12436484D01*
X14198634Y-12436484D02*
X14179586Y-12426960D01*
X14179586Y-12426960D02*
X14170063Y-12417436D01*
X14170063Y-12417436D02*
X14160539Y-12398388D01*
X14160539Y-12398388D02*
X14151015Y-12360293D01*
X14151015Y-12360293D02*
X14151015Y-12312674D01*
X14151015Y-12312674D02*
X14160539Y-12274579D01*
X14160539Y-12274579D02*
X14170063Y-12255531D01*
X14170063Y-12255531D02*
X14179586Y-12246008D01*
X14179586Y-12246008D02*
X14198634Y-12236484D01*
X14351015Y-12417436D02*
X14360539Y-12426960D01*
X14360539Y-12426960D02*
X14351015Y-12436484D01*
X14351015Y-12436484D02*
X14341491Y-12426960D01*
X14341491Y-12426960D02*
X14351015Y-12417436D01*
X14351015Y-12417436D02*
X14351015Y-12436484D01*
X14484348Y-12236484D02*
X14503396Y-12236484D01*
X14503396Y-12236484D02*
X14522444Y-12246008D01*
X14522444Y-12246008D02*
X14531967Y-12255531D01*
X14531967Y-12255531D02*
X14541491Y-12274579D01*
X14541491Y-12274579D02*
X14551015Y-12312674D01*
X14551015Y-12312674D02*
X14551015Y-12360293D01*
X14551015Y-12360293D02*
X14541491Y-12398388D01*
X14541491Y-12398388D02*
X14531967Y-12417436D01*
X14531967Y-12417436D02*
X14522444Y-12426960D01*
X14522444Y-12426960D02*
X14503396Y-12436484D01*
X14503396Y-12436484D02*
X14484348Y-12436484D01*
X14484348Y-12436484D02*
X14465301Y-12426960D01*
X14465301Y-12426960D02*
X14455777Y-12417436D01*
X14455777Y-12417436D02*
X14446253Y-12398388D01*
X14446253Y-12398388D02*
X14436729Y-12360293D01*
X14436729Y-12360293D02*
X14436729Y-12312674D01*
X14436729Y-12312674D02*
X14446253Y-12274579D01*
X14446253Y-12274579D02*
X14455777Y-12255531D01*
X14455777Y-12255531D02*
X14465301Y-12246008D01*
X14465301Y-12246008D02*
X14484348Y-12236484D01*
X14741491Y-12436484D02*
X14627206Y-12436484D01*
X14684348Y-12436484D02*
X14684348Y-12236484D01*
X14684348Y-12236484D02*
X14665301Y-12265055D01*
X14665301Y-12265055D02*
X14646253Y-12284103D01*
X14646253Y-12284103D02*
X14627206Y-12293627D01*
X14931967Y-12436484D02*
X14817682Y-12436484D01*
X14874825Y-12436484D02*
X14874825Y-12236484D01*
X14874825Y-12236484D02*
X14855777Y-12265055D01*
X14855777Y-12265055D02*
X14836729Y-12284103D01*
X14836729Y-12284103D02*
X14817682Y-12293627D01*
X15046253Y-12322198D02*
X15027206Y-12312674D01*
X15027206Y-12312674D02*
X15017682Y-12303150D01*
X15017682Y-12303150D02*
X15008158Y-12284103D01*
X15008158Y-12284103D02*
X15008158Y-12274579D01*
X15008158Y-12274579D02*
X15017682Y-12255531D01*
X15017682Y-12255531D02*
X15027206Y-12246008D01*
X15027206Y-12246008D02*
X15046253Y-12236484D01*
X15046253Y-12236484D02*
X15084348Y-12236484D01*
X15084348Y-12236484D02*
X15103396Y-12246008D01*
X15103396Y-12246008D02*
X15112920Y-12255531D01*
X15112920Y-12255531D02*
X15122444Y-12274579D01*
X15122444Y-12274579D02*
X15122444Y-12284103D01*
X15122444Y-12284103D02*
X15112920Y-12303150D01*
X15112920Y-12303150D02*
X15103396Y-12312674D01*
X15103396Y-12312674D02*
X15084348Y-12322198D01*
X15084348Y-12322198D02*
X15046253Y-12322198D01*
X15046253Y-12322198D02*
X15027206Y-12331722D01*
X15027206Y-12331722D02*
X15017682Y-12341246D01*
X15017682Y-12341246D02*
X15008158Y-12360293D01*
X15008158Y-12360293D02*
X15008158Y-12398388D01*
X15008158Y-12398388D02*
X15017682Y-12417436D01*
X15017682Y-12417436D02*
X15027206Y-12426960D01*
X15027206Y-12426960D02*
X15046253Y-12436484D01*
X15046253Y-12436484D02*
X15084348Y-12436484D01*
X15084348Y-12436484D02*
X15103396Y-12426960D01*
X15103396Y-12426960D02*
X15112920Y-12417436D01*
X15112920Y-12417436D02*
X15122444Y-12398388D01*
X15122444Y-12398388D02*
X15122444Y-12360293D01*
X15122444Y-12360293D02*
X15112920Y-12341246D01*
X15112920Y-12341246D02*
X15103396Y-12331722D01*
X15103396Y-12331722D02*
X15084348Y-12322198D01*
X15198634Y-12236484D02*
X15198634Y-12274579D01*
X15274825Y-12236484D02*
X15274825Y-12274579D01*
X15570063Y-12512674D02*
X15560539Y-12503150D01*
X15560539Y-12503150D02*
X15541491Y-12474579D01*
X15541491Y-12474579D02*
X15531968Y-12455531D01*
X15531968Y-12455531D02*
X15522444Y-12426960D01*
X15522444Y-12426960D02*
X15512920Y-12379341D01*
X15512920Y-12379341D02*
X15512920Y-12341246D01*
X15512920Y-12341246D02*
X15522444Y-12293627D01*
X15522444Y-12293627D02*
X15531968Y-12265055D01*
X15531968Y-12265055D02*
X15541491Y-12246008D01*
X15541491Y-12246008D02*
X15560539Y-12217436D01*
X15560539Y-12217436D02*
X15570063Y-12207912D01*
X15751015Y-12436484D02*
X15636729Y-12436484D01*
X15693872Y-12436484D02*
X15693872Y-12236484D01*
X15693872Y-12236484D02*
X15674825Y-12265055D01*
X15674825Y-12265055D02*
X15655777Y-12284103D01*
X15655777Y-12284103D02*
X15636729Y-12293627D01*
X15874825Y-12236484D02*
X15893872Y-12236484D01*
X15893872Y-12236484D02*
X15912920Y-12246008D01*
X15912920Y-12246008D02*
X15922444Y-12255531D01*
X15922444Y-12255531D02*
X15931968Y-12274579D01*
X15931968Y-12274579D02*
X15941491Y-12312674D01*
X15941491Y-12312674D02*
X15941491Y-12360293D01*
X15941491Y-12360293D02*
X15931968Y-12398388D01*
X15931968Y-12398388D02*
X15922444Y-12417436D01*
X15922444Y-12417436D02*
X15912920Y-12426960D01*
X15912920Y-12426960D02*
X15893872Y-12436484D01*
X15893872Y-12436484D02*
X15874825Y-12436484D01*
X15874825Y-12436484D02*
X15855777Y-12426960D01*
X15855777Y-12426960D02*
X15846253Y-12417436D01*
X15846253Y-12417436D02*
X15836729Y-12398388D01*
X15836729Y-12398388D02*
X15827206Y-12360293D01*
X15827206Y-12360293D02*
X15827206Y-12312674D01*
X15827206Y-12312674D02*
X15836729Y-12274579D01*
X15836729Y-12274579D02*
X15846253Y-12255531D01*
X15846253Y-12255531D02*
X15855777Y-12246008D01*
X15855777Y-12246008D02*
X15874825Y-12236484D01*
X16179587Y-12436484D02*
X16179587Y-12236484D01*
X16265301Y-12436484D02*
X16265301Y-12331722D01*
X16265301Y-12331722D02*
X16255777Y-12312674D01*
X16255777Y-12312674D02*
X16236730Y-12303150D01*
X16236730Y-12303150D02*
X16208158Y-12303150D01*
X16208158Y-12303150D02*
X16189110Y-12312674D01*
X16189110Y-12312674D02*
X16179587Y-12322198D01*
X16389110Y-12436484D02*
X16370063Y-12426960D01*
X16370063Y-12426960D02*
X16360539Y-12417436D01*
X16360539Y-12417436D02*
X16351015Y-12398388D01*
X16351015Y-12398388D02*
X16351015Y-12341246D01*
X16351015Y-12341246D02*
X16360539Y-12322198D01*
X16360539Y-12322198D02*
X16370063Y-12312674D01*
X16370063Y-12312674D02*
X16389110Y-12303150D01*
X16389110Y-12303150D02*
X16417682Y-12303150D01*
X16417682Y-12303150D02*
X16436730Y-12312674D01*
X16436730Y-12312674D02*
X16446253Y-12322198D01*
X16446253Y-12322198D02*
X16455777Y-12341246D01*
X16455777Y-12341246D02*
X16455777Y-12398388D01*
X16455777Y-12398388D02*
X16446253Y-12417436D01*
X16446253Y-12417436D02*
X16436730Y-12426960D01*
X16436730Y-12426960D02*
X16417682Y-12436484D01*
X16417682Y-12436484D02*
X16389110Y-12436484D01*
X16570063Y-12436484D02*
X16551015Y-12426960D01*
X16551015Y-12426960D02*
X16541491Y-12407912D01*
X16541491Y-12407912D02*
X16541491Y-12236484D01*
X16722444Y-12426960D02*
X16703396Y-12436484D01*
X16703396Y-12436484D02*
X16665301Y-12436484D01*
X16665301Y-12436484D02*
X16646253Y-12426960D01*
X16646253Y-12426960D02*
X16636730Y-12407912D01*
X16636730Y-12407912D02*
X16636730Y-12331722D01*
X16636730Y-12331722D02*
X16646253Y-12312674D01*
X16646253Y-12312674D02*
X16665301Y-12303150D01*
X16665301Y-12303150D02*
X16703396Y-12303150D01*
X16703396Y-12303150D02*
X16722444Y-12312674D01*
X16722444Y-12312674D02*
X16731968Y-12331722D01*
X16731968Y-12331722D02*
X16731968Y-12350769D01*
X16731968Y-12350769D02*
X16636730Y-12369817D01*
X16808158Y-12426960D02*
X16827206Y-12436484D01*
X16827206Y-12436484D02*
X16865301Y-12436484D01*
X16865301Y-12436484D02*
X16884349Y-12426960D01*
X16884349Y-12426960D02*
X16893873Y-12407912D01*
X16893873Y-12407912D02*
X16893873Y-12398388D01*
X16893873Y-12398388D02*
X16884349Y-12379341D01*
X16884349Y-12379341D02*
X16865301Y-12369817D01*
X16865301Y-12369817D02*
X16836730Y-12369817D01*
X16836730Y-12369817D02*
X16817682Y-12360293D01*
X16817682Y-12360293D02*
X16808158Y-12341246D01*
X16808158Y-12341246D02*
X16808158Y-12331722D01*
X16808158Y-12331722D02*
X16817682Y-12312674D01*
X16817682Y-12312674D02*
X16836730Y-12303150D01*
X16836730Y-12303150D02*
X16865301Y-12303150D01*
X16865301Y-12303150D02*
X16884349Y-12312674D01*
X16960539Y-12512674D02*
X16970063Y-12503150D01*
X16970063Y-12503150D02*
X16989111Y-12474579D01*
X16989111Y-12474579D02*
X16998634Y-12455531D01*
X16998634Y-12455531D02*
X17008158Y-12426960D01*
X17008158Y-12426960D02*
X17017682Y-12379341D01*
X17017682Y-12379341D02*
X17017682Y-12341246D01*
X17017682Y-12341246D02*
X17008158Y-12293627D01*
X17008158Y-12293627D02*
X16998634Y-12265055D01*
X16998634Y-12265055D02*
X16989111Y-12246008D01*
X16989111Y-12246008D02*
X16970063Y-12217436D01*
X16970063Y-12217436D02*
X16960539Y-12207912D01*
M02*
